<?xml version="1.0" encoding="utf-8"?>
<!-- Generator: Adobe Illustrator 19.0.0, SVG Export Plug-In . SVG Version: 6.00 Build 0)  -->
<svg version="1.1" id="Слой_1" xmlns="http://www.w3.org/2000/svg" xmlns:xlink="http://www.w3.org/1999/xlink" x="0px" y="0px"
	 viewBox="0 0 559 445" style="enable-background:new 0 0 559 445;" xml:space="preserve">
<style type="text/css">
	.st0{fill:url(#SVGID_1_);}
	.st1{fill:url(#SVGID_2_);}
	.st2{fill:#6AAFE8;}
	.st3{fill:url(#SVGID_3_);}
	.st4{fill:url(#SVGID_4_);}
	.st5{fill:url(#SVGID_5_);}
	.st6{fill:url(#SVGID_6_);}
	.st7{fill:url(#SVGID_7_);}
	.st8{fill:#FFFFFF;}
	.st9{fill:url(#SVGID_8_);}
	.st10{fill:url(#SVGID_9_);}
	.st11{fill:url(#SVGID_10_);}
	.st12{fill:url(#SVGID_11_);}
	.st13{fill:#1487E3;}
	.st14{fill:#78C2FF;}
	.st15{fill:#FF7E55;}
	.st16{fill:#424773;}
	.st17{fill:#292C47;}
	.st18{fill:#EEA886;}
	.st19{fill:#754836;}
	.st20{fill:#E2D2CA;}
	.st21{fill:#FFCB55;}
	.st22{fill:#A1D4FF;}
	.st23{fill:url(#SVGID_12_);}
	.st24{fill:url(#SVGID_13_);}
	.st25{fill:#4D78EB;}
	.st26{fill:#E0E0E0;}
	.st27{fill:#FF8761;}
	.st28{opacity:0.76;}
	.st29{fill:#4AAFFF;}
	.st30{fill:#1A598C;}
	.st31{fill:#2273B5;}
	.st32{fill:#3788CC;}
	.st33{fill:#414773;}
	.st34{fill:#2D314F;}
	.st35{fill:#2B3B57;}
	.st36{fill:#FFC655;}
	.st37{fill:#353A3D;}
	.st38{fill:#D4D8E8;}
	.st39{fill:#E55353;}
	.st40{fill:#6069A8;}
	.st41{fill:#202338;}
	.st42{fill:#464240;}
	.st43{fill:#EB4747;}
	.st44{fill:#325BB3;}
	.st45{fill:#A77860;}
	.st46{fill:#5E5853;}
	.st47{fill:#91887F;}
	.st48{fill:#EDDAD3;}
	.st49{fill:#6E6760;}
	.st50{fill:#807066;}
</style>
<g>
	<g>
		<linearGradient id="SVGID_1_" gradientUnits="userSpaceOnUse" x1="124.0152" y1="243.5784" x2="424.4441" y2="243.5784">
			<stop  offset="0" style="stop-color:#40D5E6"/>
			<stop  offset="1" style="stop-color:#5577FF"/>
		</linearGradient>
		<path class="st0" d="M132.2,343.7h270.4V152.9c0-5.2-4.2-9.5-9.5-9.5H141.6c-5.2,0-9.5,4.2-9.5,9.5V343.7z"/>
	</g>
	<g>
		<linearGradient id="SVGID_2_" gradientUnits="userSpaceOnUse" x1="141.7325" y1="230.2791" x2="392.5625" y2="230.2791">
			<stop  offset="0" style="stop-color:#404B61"/>
			<stop  offset="0.486" style="stop-color:#3C4860"/>
			<stop  offset="1" style="stop-color:#2F3E5C"/>
		</linearGradient>
		<rect x="141.7" y="153.2" class="st1" width="250.8" height="154.1"/>
	</g>
	<g>
		<path class="st2" d="M115.4,153.9H51.6l0.1-0.6c1-5.3,5.7-9.1,11-9.1c0.8,0,1.5,0.1,2.3,0.2c3.3-6.3,9.8-10.2,16.9-10.2
			c6.1,0,11.9,2.9,15.5,7.9c1.3-0.4,2.7-0.6,4.1-0.6c6.9,0,12.8,5,13.8,11.8L115.4,153.9z M52.8,153h61.5c-1.2-6-6.6-10.5-12.8-10.5
			c-1.4,0-2.8,0.2-4.1,0.7l-0.3,0.1l-0.2-0.3c-3.4-4.8-9-7.7-14.9-7.7c-6.9,0-13.2,3.8-16.3,10l-0.2,0.3l-0.4-0.1
			c-0.8-0.2-1.6-0.3-2.4-0.3C58,145.3,53.9,148.5,52.8,153z"/>
	</g>
	<g>
		<path class="st2" d="M349.7,75.4l-0.2-0.1c-22.6-11.6-19.6-33.9-19.6-34.2l0.1-0.4h0.4c14.4,0,18.9-4.6,19-4.7l0.4-0.4l0.3,0.4
			c0,0,4.6,4.7,19,4.7h0.4l0.1,0.4c0,0.2,3.1,22.6-19.6,34.2L349.7,75.4z M330.8,41.7c-0.3,3-1.2,22.2,18.9,32.7
			c20.1-10.4,19.2-29.6,18.9-32.7c-12.5-0.1-17.6-3.6-18.9-4.7C348.4,38.1,343.3,41.6,330.8,41.7z"/>
	</g>
	<g>
		<g>
			<linearGradient id="SVGID_3_" gradientUnits="userSpaceOnUse" x1="472.7351" y1="322.8921" x2="537.2735" y2="322.8921">
				<stop  offset="0" style="stop-color:#3076A1"/>
				<stop  offset="1" style="stop-color:#639C38"/>
			</linearGradient>
			<path class="st3" d="M473.6,372.9c-3.4-15.6,4-19.5,11.1-23.2c5.8-3.1,11.3-6,11-15.2c-0.4-12.2,7.9-16.6,15.2-20.5
				c5.4-2.9,10.6-5.7,11.3-11.2c1.8-13.3,14.1-29.9,14.3-30l0.8,0.6c-0.1,0.2-12.3,16.5-14.1,29.6c-0.8,6-6.2,8.9-11.8,11.9
				c-7.4,4-15.1,8.1-14.7,19.6c0.3,9.8-5.7,13-11.5,16c-7.1,3.8-13.8,7.3-10.6,22.2L473.6,372.9z"/>
		</g>
		<g>
			<linearGradient id="SVGID_4_" gradientUnits="userSpaceOnUse" x1="467.129" y1="313.4833" x2="551.3926" y2="313.4833">
				<stop  offset="0" style="stop-color:#3076A1"/>
				<stop  offset="1" style="stop-color:#639C38"/>
			</linearGradient>
			<path class="st4" d="M477.3,369c-0.2,0-0.3,0-0.5,0c-3.1-0.2-6.1-2.6-9.5-7.4l-0.2-0.3l0.2-0.3c0.1-0.1,5.5-6.7,3.5-19.2
				c-0.5-2.9-1.1-5.1-1.6-6.9c-0.7-2.6-1.2-4.3-0.4-5.7c1-1.7,3.8-2.7,11.6-4.5c8.3-2,11.1-11.4,13.6-19.7c2.3-7.8,4.5-15.2,11-14.9
				c6,0.2,15-9.1,23-17.3c7.4-7.6,14.4-14.8,18.9-14.7c1.1,0,2,0.5,2.7,1.3c4,4.7,0.3,12-3.3,18.9c-3.1,5.9-6,11.6-4.1,15.3
				c2.3,4.7,2.7,8.9,0.9,12.2c-2,3.9-6.8,6.4-14.1,7.5c-6.7,1-7.4,8.3-8.2,16c-0.9,9-1.9,19.3-13.2,20.3c-8.4,0.7-14,6.6-19,11.8
				C484.8,365.4,481.3,369,477.3,369z M468.3,361.3c3.1,4.3,5.9,6.5,8.6,6.7c3.7,0.3,7.2-3.3,11.1-7.4c5.1-5.3,10.9-11.3,19.6-12.1
				c10.5-0.9,11.4-10.3,12.3-19.4c0.8-8.1,1.6-15.8,9-16.9c7-1,11.5-3.4,13.4-7c1.6-3,1.2-6.9-1-11.3c-2.1-4.1,0.9-10,4.1-16.1
				c3.5-6.7,7-13.6,3.4-17.9c-0.5-0.6-1.2-1-2-1c-4-0.1-10.9,6.9-18.2,14.4c-8.4,8.7-17.1,17.6-23.5,17.6c-0.1,0-0.2,0-0.2,0
				c-5.8-0.2-7.7,6.5-10,14.3c-2.5,8.5-5.4,18.2-14.3,20.3c-7.1,1.7-10.2,2.6-11,4.1c-0.6,1-0.2,2.5,0.5,5c0.5,1.8,1.1,4.1,1.6,7
				C473.7,353.3,469.4,359.9,468.3,361.3z"/>
		</g>
		<g>
			<linearGradient id="SVGID_5_" gradientUnits="userSpaceOnUse" x1="447.7692" y1="300.7351" x2="502.1218" y2="300.7351">
				<stop  offset="0" style="stop-color:#3076A1"/>
				<stop  offset="1" style="stop-color:#639C38"/>
			</linearGradient>
			<path class="st5" d="M477.7,365.7c-0.1,0-0.2,0-0.3,0c-5.1-0.5-8.9-11.5-12.7-22.2c-1.8-5.1-3.5-9.9-5.1-12.9
				c-1.3-2.4-2.9-4.9-4.4-7.3c-4.2-6.4-8.5-13-7.1-18.9c0.7-3.1,2.9-5.6,6.7-7.8c8.3-4.8,7-7.5,4.2-13.4c-2-4.3-4.9-10.3-5-19.6
				c0-4-0.1-7.5-0.2-10.5c-0.3-9.8-0.4-14.8,1.7-16.6c0.9-0.7,2.1-0.9,3.8-0.6c3,0.6,4.3,3,5.6,5.5c1.7,3.3,3.7,6.9,9.7,8.2
				c5.6,1.2,11,2.8,12.4,6.5c1,2.6,0.1,6-3,10.5c-0.7,1.1-1,2-0.8,2.8c0.5,1.8,3.3,3.1,6.5,4.6c4.6,2.1,10.3,4.8,11.9,10.3
				c1.3,4.4-0.2,10-4.6,17c-10.4,16.5-10,27.6-9.6,37.5c0.3,7.3,0.5,14.2-3.9,21.9C481.6,364.1,479.7,365.7,477.7,365.7z
				 M457.8,236.7c-0.7,0-1.3,0.2-1.7,0.5c-1.8,1.5-1.6,6.6-1.4,15.8c0.1,3.1,0.2,6.5,0.2,10.6c0.1,9.1,2.9,15,4.9,19.2
				c2.8,5.9,4.4,9.4-4.6,14.6c-3.5,2-5.6,4.4-6.3,7.2c-1.3,5.4,2.9,11.9,6.9,18.1c1.6,2.4,3.2,4.9,4.5,7.4c1.7,3.1,3.4,8,5.2,13.1
				c3.5,9.9,7.4,21.2,11.9,21.6c1.7,0.2,3.5-1.4,5.3-4.6c4.3-7.5,4-13.9,3.7-21.4c-0.4-10-0.8-21.3,9.8-38c4.2-6.7,5.7-12,4.5-16.2
				c-1.5-5.1-6.8-7.6-11.4-9.7c-3.4-1.6-6.4-3-7-5.2c-0.3-1.1,0-2.3,0.9-3.6c2.9-4.2,3.8-7.3,2.9-9.6c-1.3-3.3-6.7-4.8-11.8-5.9
				c-6.4-1.3-8.6-5.4-10.3-8.7c-1.3-2.4-2.4-4.6-5-5C458.7,236.8,458.2,236.7,457.8,236.7z"/>
		</g>
		<g>
			<linearGradient id="SVGID_6_" gradientUnits="userSpaceOnUse" x1="462.8763" y1="312.4883" x2="479.3555" y2="312.4883">
				<stop  offset="0" style="stop-color:#3076A1"/>
				<stop  offset="1" style="stop-color:#639C38"/>
			</linearGradient>
			<path class="st6" d="M477.8,371.6l-0.9-0.3c5.1-16.1-4.1-52.2-6.9-61c-1.4-4.3-0.1-10.8,1.1-17.1c1.6-8.1,3.2-16.5-0.9-19.7
				c-7.7-5.9-7.3-19.6-7.3-20.2l1,0c0,0.1-0.4,13.8,6.9,19.4c4.6,3.5,2.9,12.2,1.3,20.6c-1.2,6.2-2.4,12.6-1.1,16.7
				C474.3,320.9,482.9,355.6,477.8,371.6z"/>
		</g>
		<linearGradient id="SVGID_7_" gradientUnits="userSpaceOnUse" x1="425.5784" y1="315.7546" x2="478.7799" y2="315.7546">
			<stop  offset="0" style="stop-color:#3076A1"/>
			<stop  offset="1" style="stop-color:#639C38"/>
		</linearGradient>
		<path class="st7" d="M439.3,267.1c-2.1-5.4-10.4-4.6-9.6,3c0.8,7.6,6.1,15.7-2,28.7c-8.1,12.9,10.4,15.5,17,23.6
			c6.6,8.1,8.9,19.3,14.5,26.4c5.6,7.1,9.4,24.1,13.9,17.8c4.6-6.3,0.3-14.6,0.8-26c0.5-11.4,10.7-18.6,0.5-26
			c-10.2-7.4-20.4-9.6-17-26.2C458.7,281,445.9,283.8,439.3,267.1z"/>
		<g>
			<path class="st8" d="M480.4,368c-0.1-0.3-5.7-33.8-18.3-42.9c-12.9-9.3-15.2-18-19.7-38.3l0.9-0.2c4.4,20.1,6.7,28.6,19.3,37.8
				c12.9,9.4,18.5,42.2,18.7,43.5L480.4,368z"/>
		</g>
		<linearGradient id="SVGID_8_" gradientUnits="userSpaceOnUse" x1="461.2006" y1="436.2947" x2="505.9615" y2="262.2246">
			<stop  offset="0" style="stop-color:#3076A1"/>
			<stop  offset="1" style="stop-color:#639C38"/>
		</linearGradient>
		<path class="st9" d="M469,366.8c0,0,3.8-9.3-3.1-22.5c-6.8-13.2-12.4-11.2,4.1-21.3c16.5-10.1,0.1-42.1,14.1-46.2
			c14-4.1,26.2-55.8,36.8-49.2c10.7,6.6-3.6,32,4.1,39.6c7.6,7.6,8.6,17.3-7.1,25.1c-15.7,7.8,11.2,37.8-10.1,46.9
			C486.5,348.4,492.6,384.2,469,366.8z"/>
		<g>
			<path class="st8" d="M475.5,376.6c0-0.1-2.3-12,4.9-27.4c7.4-15.6,10.9-32.7,9.4-45.7c-0.8-7,3.7-9.8,8.1-12.5
				c4.3-2.6,8.7-5.3,8.5-12.3c-0.2-6.3,2.4-21,2.5-21.6l0.9,0.2c0,0.2-2.7,15.2-2.5,21.4c0.3,7.5-4.4,10.4-8.9,13.1
				c-4.3,2.6-8.4,5.1-7.6,11.5c1.5,13.2-2.1,30.5-9.5,46.3c-7.1,15-4.9,26.6-4.9,26.8L475.5,376.6z"/>
		</g>
		<path class="st8" d="M492.7,311c4.8-4.4,11.1-5.1,9.8,1.5c-1.3,6.6-5.8,8.5-3.6,12.6c2.3,4.1,6,8.3-0.4,13.4
			c-6.4,5.1-10,5.7-11.9,15.3c-1.9,9.6-1.5,16.2-9.8,16.6c-8.3,0.4-5.1-11.7-2.4-17.1c0,0,4-6.2,1.3-14.4c-2.6-8.2-7.7-12.6,3-15.4
			C489.5,320.7,489.5,314,492.7,311z"/>
		<g>
			<linearGradient id="SVGID_9_" gradientUnits="userSpaceOnUse" x1="477.4708" y1="346.0611" x2="497.1387" y2="346.0611">
				<stop  offset="0" style="stop-color:#3076A1"/>
				<stop  offset="1" style="stop-color:#639C38"/>
			</linearGradient>
			<path class="st10" d="M477.5,376.5c0-1.2-0.6-28.9,4.6-33.5c5.3-4.8,6.3-13.2,6.4-17.8c0.2-6,7.9-9.5,8.2-9.7l0.4,0.9
				c-0.1,0-7.5,3.5-7.7,8.8c-0.2,5.8-1.5,13.7-6.8,18.4c-4.9,4.4-4.3,32.5-4.3,32.8L477.5,376.5z"/>
		</g>
		<linearGradient id="SVGID_10_" gradientUnits="userSpaceOnUse" x1="460.5821" y1="381.522" x2="496.9434" y2="381.522">
			<stop  offset="0" style="stop-color:#FF9340"/>
			<stop  offset="1" style="stop-color:#FFCE45"/>
		</linearGradient>
		<polygon class="st11" points="496.9,365.2 488.4,397.8 469.2,397.8 460.6,365.2 		"/>
		<linearGradient id="SVGID_11_" gradientUnits="userSpaceOnUse" x1="460.5821" y1="381.522" x2="496.9434" y2="381.522">
			<stop  offset="0" style="stop-color:#C97332"/>
			<stop  offset="1" style="stop-color:#FFCE45"/>
		</linearGradient>
		<path class="st12" d="M496.9,365.2c0,0-18.9,3.5-18.9,32.6h-8.9l-8.6-32.6H496.9z"/>
	</g>
	<g>
		<rect x="133.4" y="280.1" class="st13" width="25.3" height="2.9"/>
	</g>
	<g>
		<polygon class="st14" points="128.1,201.2 87.8,201.2 87.8,149.6 88.7,149.6 88.7,200.2 128.1,200.2 		"/>
	</g>
	<g>
		<polygon class="st14" points="298.8,167.2 297.9,167.2 297.9,114 349.2,114 349.2,69.2 350.2,69.2 350.2,114.9 298.8,114.9 		"/>
	</g>
	<g>
		<polygon class="st14" points="464.7,226.4 411.3,226.4 411.3,225.5 463.7,225.5 463.7,194.5 464.7,194.5 		"/>
	</g>
	<g>
		<path class="st15" d="M65.4,269.5c0,0-1.1,16,2,18c2,1.2,9.8,5.3,9.6,6c-0.2,0.8-4.4,6.8-4.4,6.8s-15-9.9-15.5-13
			c-0.5-3,0.7-23.5,2.8-24.4c1.5-0.7,2.4-0.1,4.3,1.3C66.9,266.2,65.4,269.5,65.4,269.5z"/>
	</g>
	<g>
		<g>
			<g>
				<path class="st16" d="M63.6,386.3c0,0-0.5,3.2-0.5,3.7c-0.1,0.5-5.2-0.3-5.2-0.3l-0.4-3.9C57.5,385.9,63,385.8,63.6,386.3z"/>
			</g>
		</g>
	</g>
	<g>
		<g>
			<g>
				<path class="st17" d="M63.2,389.6c0,0,1.6,2,3.2,2.8c1.6,0.9,4.1,1.2,5,2.1c0.7,0.6,2.5,3.4-4.1,3.3c-6.5-0.1-9.7,0.4-10.4-0.7
					c-0.7-1.1,1-7.8,1-7.8S59.4,389.9,63.2,389.6z"/>
			</g>
		</g>
	</g>
	<g>
		<g>
			<g>
				<path class="st16" d="M89.4,386.3c0,0-0.5,3.2-0.5,3.7s-5.2-0.3-5.2-0.3l-0.4-3.9C83.2,385.9,88.7,385.8,89.4,386.3z"/>
			</g>
		</g>
	</g>
	<g>
		<g>
			<g>
				<path class="st17" d="M88.9,389.6c0,0,1.6,2,3.2,2.8c1.6,0.9,7.4,1.6,8.3,2.4c0.7,0.6,1.8,3.2-7.4,3c-6.5-0.2-9.7,0.4-10.4-0.7
					c-0.7-1.1,1-7.8,1-7.8S85.1,390,88.9,389.6z"/>
			</g>
		</g>
	</g>
	<g>
		<g>
			<g>
				<path class="st17" d="M65.5,302.9c0,0-4.8,7.7-4.5,14.6c0.4,6.9-0.4,14.4-1.2,21.6c-0.8,8.1-3,24.9-3.1,29.2
					c-0.1,4.3,0.2,20.6,0.2,20.6l8.4-0.1c0,0,3-32.9,4.4-36.3c1.4-3.4,7.4-28.1,7.6-30.8C77.5,319,65.5,302.9,65.5,302.9z"/>
			</g>
		</g>
	</g>
	<g>
		<g>
			<g>
				<path class="st17" d="M90.9,303.9c0,0,1.9,18.9,2.4,23.1c0.5,4.2,0.2,22.7,0.4,25.3c0.2,2.7-1.6,30.7-2.1,36.1l-9.2-0.1
					c0,0-0.6-22.7-0.6-33.8c0-11-2.8-23.9-6.1-31.2c-3.2-7.3-10.7-7.5-12.7-21C63,302.5,88.2,299.6,90.9,303.9z"/>
			</g>
		</g>
	</g>
	<g>
		<g>
			<g>
				<path class="st18" d="M70.6,238.1c0,0,5.8-3.8,9.8,0.3c4,4.1,6,13.8,3.1,15.7c-2.9,1.9-7.8,2.4-10.2-0.2
					c-2.3-2.6-4.8-6.6-5.4-9.5C67.3,241.5,69.1,239.3,70.6,238.1z"/>
			</g>
		</g>
	</g>
	<g>
		<g>
			<g>
				<path class="st18" d="M81.6,254.8c0,0-0.1,4,0.4,4.9c0.4,0.9-8.4,0.9-8.4,0.9s-0.7-4.7-2.1-8.7
					C70.1,247.9,81.6,254.8,81.6,254.8z"/>
			</g>
		</g>
	</g>
	<g>
		<g>
			<g>
				<path class="st19" d="M71.7,251.8c0,0,0.8,0.8,3.2-0.1c2.3-1,4.5-4.9,5.5-5.5c0.9-0.6,0.8-1.2,0.8-1.2l0.9,0.8l1.1-0.2
					c0,0-1.7-2.7-0.5-4.2c1.2-1.5-3.7-9-10.9-4.4c0,0-5.6,3.1-4.6,6.4C68.1,246.8,69.9,250.5,71.7,251.8z"/>
			</g>
		</g>
	</g>
	<g>
		<g>
			<g>
				<path class="st20" d="M82.5,259.6c0,0,0-1.6-0.8-1.8c-0.7-0.2-8.3-0.9-9.2-0.5v1.9C72.5,259.2,74.3,260.3,82.5,259.6z"/>
			</g>
		</g>
	</g>
	<g>
		<g>
			<g>
				<path class="st18" d="M80.6,243.9c-0.3-0.5-2.1-1.8-2.3,0c-0.1,1.9,1.8,3.9,2.5,3.5C81.7,247,81.3,245.2,80.6,243.9z"/>
			</g>
		</g>
	</g>
	<g>
		<g>
			<g>
				<path class="st19" d="M68.9,239.1c0,0-8.2,2.2,2.4,12.4L68.9,239.1z"/>
			</g>
		</g>
	</g>
	<g>
		<g>
			<path class="st18" d="M142.5,282.9l-8.4-0.1c0.7-0.4,1.9-1.2,1.6-1.5c-0.4-0.5-2.7,0.6-3.7,0.7c-0.9,0.1-2.4,0-3.5,0.4l-2.7,1.1
				l2.4,2.2c0,0,4.4,0.6,5.7,0.7c2.1,0.1,8.5-2.3,8.6-2.7C142.8,283.1,142.5,282.9,142.5,282.9z"/>
		</g>
	</g>
	<g>
		<g>
			<g>
				<path class="st15" d="M93.4,261.9c-5.3-0.9-11-2.3-11-2.3l-9.9-0.4c0,0-9.1,2-12.7,3.6c-0.3,0.2-0.3,8.1-1.3,10.2l3,6.3
					c0,0,1.7,12.5,2.1,18c0.2,2.5-3.5,23.8-3.5,23.8s4,1.2,10.8,1.9c6.8,0.7,23.7-0.3,23.8-1.1c0.1-0.8-3.3-29.8-3.4-31.3
					c-0.2-2.3,0.7-13,0.7-13c1.3,1.7,8.7,8.2,12.3,10.2c2.6,1.5,8.9,0.6,10.7,0.4c4-0.4,15.1-1.2,15.3-1.6c0.2-0.2-0.6-4.3-1.1-4.4
					c-0.4-0.1-14.7-0.8-18.3-0.7c-1.5,0.1-6.2-5.2-6.2-5.2S96.4,263.2,93.4,261.9z"/>
			</g>
		</g>
	</g>
	<g>
		<polygon class="st21" points="32.3,221.7 58.6,221.7 58.6,240.7 58.6,244.7 54.5,240.7 32.3,240.7 		"/>
	</g>
	<g>
		<g>
			<g>
				<path class="st2" d="M455.5,161.1H430v-25.5h25.5V161.1z M430.8,160.2h23.8v-23.8h-23.8V160.2z"/>
			</g>
			<g>
				<path class="st2" d="M519.1,144.9h-58.4v-6.2h58.4V144.9z M461.5,144h56.7v-4.5h-56.7V144z"/>
			</g>
			<g>
				<path class="st2" d="M519.1,173.9H430v-6.2h89.1V173.9z M430.8,173.1h87.4v-4.5h-87.4V173.1z"/>
			</g>
			<g>
				<path class="st2" d="M486.7,185.9H430v-6.2h56.7V185.9z M430.8,185h55v-4.5h-55V185z"/>
			</g>
			<g>
				<path class="st2" d="M500.2,156.8h-39.6v-6.2h39.6V156.8z M461.5,155.9h37.9v-4.5h-37.9V155.9z"/>
			</g>
		</g>
		<g>
			<path class="st2" d="M529.2,199.5H419.8v-77.5h109.4V199.5z M420.7,198.6h107.7v-75.8H420.7V198.6z"/>
		</g>
	</g>
	<g>
		<polygon class="st2" points="381.3,87.2 373.1,87.2 373.1,86.3 380.3,86.3 380.3,79 381.3,79 		"/>
	</g>
	<g>
		<polygon class="st2" points="326.2,87.2 318,87.2 318,79 319,79 319,86.3 326.2,86.3 		"/>
	</g>
	<g>
		<polygon class="st2" points="319,32.2 318.1,32.2 318.1,24 326.2,24 326.2,25 319,25 		"/>
	</g>
	<g>
		<polygon class="st2" points="381.3,32.2 380.3,32.2 380.3,25 373.1,25 373.1,24 381.3,24 		"/>
	</g>
	<g>
		<rect x="380.3" y="44.4" class="st2" width="1" height="22.4"/>
	</g>
	<g>
		<rect x="318" y="44.4" class="st2" width="1" height="22.4"/>
	</g>
	<g>
		<path class="st14" d="M88.3,150.1c-1.9,0-3.5-1.6-3.5-3.5c0-1.9,1.6-3.5,3.5-3.5c1.9,0,3.5,1.6,3.5,3.5
			C91.8,148.5,90.2,150.1,88.3,150.1z M88.3,144c-1.4,0-2.5,1.1-2.5,2.5c0,1.4,1.1,2.5,2.5,2.5c1.4,0,2.5-1.1,2.5-2.5
			C90.8,145.1,89.7,144,88.3,144z"/>
	</g>
	<g>
		<path class="st14" d="M349.7,69.7c-1.9,0-3.5-1.6-3.5-3.5c0-1.9,1.6-3.5,3.5-3.5c1.9,0,3.5,1.6,3.5,3.5
			C353.2,68.2,351.6,69.7,349.7,69.7z M349.7,63.7c-1.4,0-2.5,1.1-2.5,2.5c0,1.4,1.1,2.5,2.5,2.5c1.4,0,2.5-1.1,2.5-2.5
			C352.3,64.8,351.1,63.7,349.7,63.7z"/>
	</g>
	<g>
		<path class="st14" d="M464.2,195.1c-1.9,0-3.5-1.6-3.5-3.5c0-1.9,1.6-3.5,3.5-3.5c1.9,0,3.5,1.6,3.5,3.5
			C467.7,193.5,466.1,195.1,464.2,195.1z M464.2,189c-1.4,0-2.5,1.1-2.5,2.5c0,1.4,1.1,2.5,2.5,2.5s2.5-1.1,2.5-2.5
			C466.7,190.2,465.6,189,464.2,189z"/>
	</g>
	<g>
		<path class="st22" d="M111.5,52.8h-24v-24h24V52.8z M88.4,51.8h22.1V29.7H88.4V51.8z"/>
	</g>
	<g>
		<rect x="99" y="35.3" class="st22" width="1" height="11.2"/>
	</g>
	<g>
		<rect x="93.9" y="40.4" class="st22" width="11.2" height="1"/>
	</g>
	<g>
		<path class="st22" d="M477.9,81.8h-34.4V57.3h34.4V81.8z M444.5,80.8h32.5V58.2h-32.5V80.8z"/>
	</g>
	<g>
		<polygon class="st22" points="460.7,72.1 443.7,58.1 444.3,57.4 460.7,70.9 477.1,57.4 477.7,58.1 		"/>
	</g>
	<g>
		
			<rect x="462.3" y="74.3" transform="matrix(0.6882 0.7255 -0.7255 0.6882 201.2176 -318.5692)" class="st22" width="17.9" height="1"/>
	</g>
	<g>
		
			<rect x="449.7" y="65.9" transform="matrix(0.726 0.6877 -0.6877 0.726 174.7721 -289.0562)" class="st22" width="1" height="17.9"/>
	</g>
	<g>
		<path class="st22" d="M171.5,106.4l-0.4-0.9c-0.3,0-0.6-0.1-0.9-0.2l-0.7,0.7l-2.1-1.5l0.4-0.9c-0.2-0.3-0.4-0.5-0.5-0.8l-1,0
			l-0.4-2.6l0.9-0.4c0-0.3,0.1-0.6,0.2-0.9l-0.7-0.7l1.5-2.1l0.9,0.4c0.3-0.2,0.5-0.4,0.8-0.5l0-1l2.6-0.4l0.4,0.9
			c0.3,0,0.6,0.1,0.9,0.2l0.7-0.7l2.1,1.5l-0.4,0.9c0.2,0.3,0.4,0.5,0.5,0.8l1,0l0.4,2.6l-0.9,0.4c0,0.3-0.1,0.6-0.2,0.9l0.7,0.7
			l-1.5,2.1l-0.9-0.4c-0.3,0.2-0.5,0.4-0.8,0.5l0,1L171.5,106.4z M170,104.5l0.2,0.1c0.4,0.1,0.8,0.2,1.2,0.3l0.2,0l0.3,0.8l1.4-0.2
			l0-0.9l0.2-0.1c0.4-0.2,0.7-0.4,1-0.6l0.2-0.1l0.8,0.3l0.8-1.2l-0.6-0.6l0.1-0.2c0.1-0.4,0.2-0.8,0.3-1.2l0-0.2l0.8-0.3l-0.2-1.4
			l-0.9,0l-0.1-0.2c-0.2-0.4-0.4-0.7-0.6-1l-0.1-0.2l0.3-0.8l-1.2-0.8l-0.6,0.6l-0.2-0.1c-0.4-0.1-0.8-0.2-1.2-0.3l-0.2,0l-0.3-0.8
			l-1.4,0.2l0,0.9l-0.2,0.1c-0.4,0.2-0.7,0.4-1,0.6l-0.2,0.1l-0.8-0.3l-0.8,1.2l0.6,0.6l-0.1,0.2c-0.1,0.4-0.2,0.8-0.3,1.2l0,0.2
			l-0.8,0.3l0.2,1.4l0.9,0l0.1,0.2c0.2,0.4,0.4,0.7,0.6,1l0.1,0.2l-0.3,0.8l1.2,0.8L170,104.5z M171.8,103.3c-0.6,0-1.1-0.2-1.6-0.5
			c-1.3-0.9-1.6-2.7-0.7-3.9c0.9-1.3,2.7-1.6,3.9-0.7c0.6,0.4,1,1.1,1.1,1.8c0.1,0.7,0,1.5-0.5,2.1c-0.4,0.6-1.1,1-1.8,1.1
			C172.1,103.3,171.9,103.3,171.8,103.3z M171.8,98.3c-0.7,0-1.3,0.3-1.7,0.9c-0.3,0.5-0.5,1-0.4,1.6c0.1,0.6,0.4,1,0.9,1.4l0,0
			c0.5,0.3,1,0.5,1.6,0.4c0.6-0.1,1-0.4,1.4-0.9c0.3-0.5,0.5-1,0.4-1.6c-0.1-0.6-0.4-1-0.9-1.4C172.6,98.5,172.2,98.3,171.8,98.3z"
			/>
	</g>
	<g>
		<path class="st22" d="M151.6,109.4l-0.8-2.1c-0.9-0.1-1.7-0.3-2.5-0.6l-1.6,1.5l-4.4-3.1l0.9-2c-0.5-0.7-1-1.4-1.4-2.2l-2.2-0.1
			l-0.9-5.4l2.1-0.8c0.1-0.9,0.3-1.7,0.6-2.5l-1.5-1.6l3.1-4.4l2,0.9c0.7-0.5,1.4-1,2.2-1.4l0.1-2.2l5.3-0.9l0.8,2.1
			c0.9,0.1,1.7,0.3,2.5,0.6l1.6-1.5l4.4,3.1l-0.9,2c0.5,0.7,1,1.4,1.4,2.2l2.2,0.1l0.9,5.4l-2.1,0.8c-0.1,0.9-0.3,1.7-0.6,2.5
			l1.5,1.6l-3.1,4.4l-2-0.9c-0.7,0.5-1.4,1-2.2,1.4l-0.1,2.2L151.6,109.4z M148.1,105.7l0.3,0.1c0.9,0.3,1.9,0.6,2.8,0.6l0.3,0
			l0.7,1.9l3.8-0.6l0.1-2l0.3-0.1c0.9-0.4,1.7-0.9,2.5-1.5l0.2-0.2l1.9,0.8l2.2-3.1l-1.4-1.5l0.1-0.3c0.3-0.9,0.6-1.9,0.6-2.8l0-0.3
			l1.9-0.7l-0.6-3.8l-2-0.1l-0.1-0.3c-0.4-0.9-0.9-1.7-1.5-2.5l-0.2-0.2l0.8-1.9l-3.1-2.2l-1.5,1.4l-0.3-0.1
			c-0.9-0.3-1.9-0.6-2.8-0.6l-0.3,0l-0.7-1.9l-3.8,0.6l-0.1,2l-0.3,0.1c-0.9,0.4-1.7,0.9-2.5,1.5l-0.2,0.2l-1.9-0.8l-2.2,3.1
			l1.4,1.5l-0.1,0.3c-0.3,0.9-0.6,1.9-0.6,2.8l0,0.3l-1.9,0.7l0.6,3.8l2,0.1l0.1,0.3c0.4,0.9,0.9,1.7,1.5,2.5l0.2,0.2l-0.8,1.9
			l3.1,2.2L148.1,105.7z M152.1,102.2c-1.2,0-2.5-0.4-3.6-1.1c-2.8-2-3.4-5.8-1.4-8.6c2-2.8,5.8-3.4,8.6-1.4c2.8,2,3.4,5.8,1.5,8.6
			C155.9,101.3,154,102.2,152.1,102.2z M152.1,90.8c-1.6,0-3.2,0.8-4.3,2.2c-0.8,1.1-1.1,2.5-0.9,3.9c0.2,1.4,1,2.6,2.1,3.4
			c2.3,1.7,5.6,1.1,7.3-1.2c0.8-1.1,1.1-2.5,0.9-3.9c-0.2-1.4-1-2.6-2.1-3.4C154.2,91.1,153.2,90.8,152.1,90.8z"/>
	</g>
	<g>
		<g>
			<g>
				<path class="st14" d="M26.8,114.4c-9.8,0-17.8-8-17.8-17.8h1c0,9.3,7.6,16.8,16.8,16.8c9.3,0,16.8-7.6,16.8-16.8
					c0-9.3-7.6-16.8-16.8-16.8v-1c9.8,0,17.8,8,17.8,17.8C44.6,106.5,36.6,114.4,26.8,114.4z M26.8,112c-8.4,0-15.3-6.9-15.3-15.3
					c0-8.4,6.9-15.3,15.3-15.3s15.3,6.9,15.3,15.3h-1c0-7.9-6.4-14.4-14.4-14.4c-7.9,0-14.4,6.4-14.4,14.4c0,7.9,6.4,14.4,14.4,14.4
					V112z"/>
			</g>
		</g>
	</g>
	<g>
		<polygon class="st14" points="24.7,102.5 18.2,96.1 18.9,95.5 24.7,101.2 34.8,91.1 35.4,91.8 		"/>
	</g>
	<linearGradient id="SVGID_12_" gradientUnits="userSpaceOnUse" x1="267.4283" y1="304.123" x2="267.4283" y2="470.6994">
		<stop  offset="0" style="stop-color:#40D5E6"/>
		<stop  offset="1" style="stop-color:#5577FF"/>
	</linearGradient>
	<polygon class="st23" points="402.6,314.8 267.4,314.8 132.3,314.8 102.7,425.4 268.3,425.4 432.2,425.4 	"/>
	<path class="st8" d="M142.5,334.2h16.6c0.7,0,1.2,0.5,1.1,1.1l-1.6,7.2c-0.1,0.4-0.6,0.8-1.1,0.8h-16.9c-0.7,0-1.2-0.6-1.1-1.2
		l1.9-7.2C141.5,334.5,142,334.2,142.5,334.2z"/>
	<polygon class="st8" points="166.7,334.2 179.3,334.2 177.6,343.3 164.8,343.3 	"/>
	<polygon class="st8" points="185.6,334.2 198.1,334.2 196.8,343.3 184,343.3 	"/>
	<polygon class="st8" points="204.4,334.2 216.9,334.2 216,343.3 203.2,343.3 	"/>
	<polygon class="st8" points="223.2,334.2 235.8,334.2 235.2,343.3 222.4,343.3 	"/>
	<polygon class="st8" points="242.1,334.2 254.6,334.2 254.4,343.3 241.6,343.3 	"/>
	<polygon class="st8" points="392.8,334.2 373.9,334.2 376,343.3 395.2,343.3 	"/>
	<polygon class="st8" points="367.7,334.2 355.1,334.2 356.8,343.3 369.6,343.3 	"/>
	<polygon class="st8" points="348.8,334.2 336.3,334.2 337.6,343.3 350.4,343.3 	"/>
	<polygon class="st8" points="330,334.2 317.4,334.2 318.4,343.3 331.2,343.3 	"/>
	<polygon class="st8" points="311.2,334.2 298.6,334.2 299.2,343.3 312,343.3 	"/>
	<polygon class="st8" points="292.3,334.2 279.8,334.2 280,343.3 292.8,343.3 	"/>
	<polygon class="st8" points="260.9,334.2 273.4,334.2 273.7,343.3 260.9,343.3 	"/>
	<polygon class="st8" points="137,350.1 163.2,350.1 161.7,359.5 135,359.5 	"/>
	<polygon class="st8" points="396.9,350.1 364.4,350.1 366.3,359.5 399.3,359.5 	"/>
	<polygon class="st8" points="357.9,350.1 345,350.1 346.4,359.5 359.7,359.5 	"/>
	<polygon class="st8" points="338.5,350.1 325.5,350.1 326.6,359.5 339.8,359.5 	"/>
	<polygon class="st8" points="319,350.1 306.1,350.1 306.8,359.5 320,359.5 	"/>
	<polygon class="st8" points="299.6,350.1 286.6,350.1 287,359.5 300.2,359.5 	"/>
	<polygon class="st8" points="133.1,366.9 159.9,366.9 157.9,376.2 130.6,376.2 	"/>
	<polygon class="st8" points="166.6,366.9 180,366.9 178.4,376.2 164.7,376.2 	"/>
	<polygon class="st8" points="186.7,366.9 200.1,366.9 287.3,366.9 287.6,376.2 185.2,376.2 	"/>
	<polygon class="st8" points="294,366.9 307.4,366.9 308.1,376.2 294.5,376.2 	"/>
	<polygon class="st8" points="314.1,366.9 327.5,366.9 328.6,376.2 315,376.2 	"/>
	<polygon class="st8" points="334.2,366.9 347.6,366.9 349.1,376.2 335.4,376.2 	"/>
	<polygon class="st8" points="354.3,366.9 367.8,366.9 369.6,376.2 355.9,376.2 	"/>
	<polygon class="st8" points="374.5,366.9 401.3,366.9 403.7,376.2 376.4,376.2 	"/>
	<polygon class="st8" points="280.1,350.1 267.3,350.1 267.3,359.5 280.4,359.5 	"/>
	<polygon class="st8" points="260.7,350.1 247.7,350.1 247.3,359.5 260.6,359.5 	"/>
	<polygon class="st8" points="241.2,350.1 228.2,350.1 227.5,359.5 240.7,359.5 	"/>
	<polygon class="st8" points="221.8,350.1 208.8,350.1 207.7,359.5 220.9,359.5 	"/>
	<polygon class="st8" points="202.3,350.1 189.3,350.1 187.9,359.5 201.1,359.5 	"/>
	<polygon class="st8" points="182.8,350.1 169.9,350.1 168,359.5 181.2,359.5 	"/>
	<polygon class="st8" points="143.1,328.5 145.2,320.3 151.3,320.3 149.3,328.5 	"/>
	<polygon class="st8" points="157.4,320.3 169.6,320.3 167.9,328.5 155.5,328.5 	"/>
	<polygon class="st8" points="175.7,320.3 187.9,320.3 186.5,328.5 174.1,328.5 	"/>
	<polygon class="st8" points="194,320.3 206.2,320.3 205.1,328.5 192.7,328.5 	"/>
	<polygon class="st8" points="212.3,320.3 224.5,320.3 223.7,328.5 211.3,328.5 	"/>
	<polygon class="st8" points="230.6,320.3 242.8,320.3 242.4,328.5 229.9,328.5 	"/>
	<polygon class="st8" points="248.9,320.3 261.1,320.3 261,328.5 248.6,328.5 	"/>
	<polygon class="st8" points="267.2,320.3 279.4,320.3 279.6,328.5 267.2,328.5 	"/>
	<polygon class="st8" points="285.5,320.3 297.6,320.3 298.2,328.5 285.8,328.5 	"/>
	<polygon class="st8" points="303.7,320.3 315.9,320.3 316.8,328.5 304.4,328.5 	"/>
	<polygon class="st8" points="322,320.3 334.2,320.3 335.4,328.5 323,328.5 	"/>
	<polygon class="st8" points="340.3,320.3 352.5,320.3 354,328.5 341.6,328.5 	"/>
	<polygon class="st8" points="358.6,320.3 370.8,320.3 372.6,328.5 360.2,328.5 	"/>
	<polygon class="st8" points="376.9,320.3 389.1,320.3 391.2,328.5 378.8,328.5 	"/>
	<linearGradient id="SVGID_13_" gradientUnits="userSpaceOnUse" x1="-50.0259" y1="429.6831" x2="279.4594" y2="429.6831">
		<stop  offset="0" style="stop-color:#40D5E6"/>
		<stop  offset="1" style="stop-color:#5577FF"/>
	</linearGradient>
	<path class="st24" d="M423.6,434H111.3c-4.8,0-8.6-3.9-8.6-8.6l0,0h329.5l0,0C432.2,430.1,428.3,434,423.6,434z"/>
	<path class="st25" d="M305.7,389.7c-0.3-1.9-2-3.4-4-3.4h-34.3h-34.3c-2,0-3.7,1.4-4,3.4l-4.3,26c-0.4,2.5,1.5,4.7,4,4.7h38.6H306
		c2.5,0,4.4-2.2,4-4.7L305.7,389.7z"/>
	<g>
		<g>
			<rect x="158.7" y="166.3" class="st26" width="27.9" height="2.9"/>
		</g>
		<g>
			<rect x="194.4" y="187.9" class="st26" width="20.2" height="2.9"/>
		</g>
		<g>
			<rect x="217.7" y="187.9" class="st13" width="13.4" height="2.9"/>
		</g>
		<g>
			<rect x="159" y="242" class="st13" width="13.4" height="2.9"/>
		</g>
		<g>
			<rect x="233.8" y="187.9" class="st26" width="32.3" height="2.9"/>
		</g>
		<g>
			<rect x="159" y="231.2" class="st26" width="20.8" height="2.9"/>
		</g>
		<g>
			<rect x="187.9" y="252.8" class="st26" width="12.7" height="2.9"/>
		</g>
		<g>
			<rect x="159" y="252.8" class="st13" width="25.1" height="2.9"/>
		</g>
		<g>
			<rect x="159" y="263.6" class="st26" width="13.9" height="2.9"/>
		</g>
		<g>
			<rect x="192" y="166.3" class="st14" width="19.8" height="2.9"/>
		</g>
		<g>
			<rect x="192" y="198.6" class="st13" width="19.8" height="2.9"/>
		</g>
		<g>
			<rect x="182.1" y="209.4" class="st26" width="8.5" height="2.9"/>
		</g>
		<g>
			<rect x="173.7" y="220.3" class="st14" width="19" height="2.9"/>
		</g>
		<g>
			<rect x="195.6" y="220.3" class="st13" width="26.3" height="2.9"/>
		</g>
		<g>
			<rect x="159" y="209.5" class="st13" width="19.8" height="2.9"/>
		</g>
		<g>
			<rect x="159" y="220.3" class="st13" width="11.8" height="2.9"/>
		</g>
		<g>
			<rect x="194.6" y="209.5" class="st27" width="11.1" height="2.9"/>
		</g>
		<g>
			<rect x="159.3" y="274.3" class="st27" width="11.1" height="2.9"/>
		</g>
		<g>
			<rect x="158.9" y="187.9" class="st14" width="19.8" height="2.9"/>
		</g>
		<g>
			<rect x="176.4" y="242" class="st14" width="19.8" height="2.9"/>
		</g>
		<g>
			<rect x="176.7" y="263.6" class="st14" width="19.8" height="2.9"/>
		</g>
		<g>
			<rect x="211.9" y="263.6" class="st14" width="19.8" height="2.9"/>
		</g>
		<g>
			<rect x="158.9" y="198.6" class="st14" width="28.3" height="2.9"/>
		</g>
		<g>
			<rect x="291.4" y="166.3" class="st14" width="19.8" height="2.9"/>
		</g>
		<g>
			<rect x="220.7" y="274.3" class="st14" width="19.8" height="2.9"/>
		</g>
		<g>
			<rect x="317.4" y="166.3" class="st14" width="13.3" height="2.9"/>
		</g>
		<g>
			<rect x="362.3" y="177.1" class="st14" width="13.3" height="2.9"/>
		</g>
		<g>
			<rect x="217.2" y="166.3" class="st13" width="25.3" height="2.9"/>
		</g>
		<g>
			<rect x="315.7" y="177.1" class="st13" width="25.3" height="2.9"/>
		</g>
		<g>
			<rect x="284.7" y="187.9" class="st13" width="25.3" height="2.9"/>
		</g>
		<g>
			<rect x="251.8" y="198.6" class="st13" width="25.3" height="2.9"/>
		</g>
		<g>
			<rect x="313.2" y="187.9" class="st14" width="18" height="2.9"/>
		</g>
		<g>
			<rect x="261.2" y="166.3" class="st27" width="25.3" height="2.9"/>
		</g>
		<g>
			<rect x="232.4" y="198.6" class="st27" width="14.8" height="2.9"/>
		</g>
		<g>
			<rect x="220.7" y="242.2" class="st27" width="14.8" height="2.9"/>
		</g>
		<g>
			<rect x="247.2" y="166.3" class="st26" width="9.3" height="2.9"/>
		</g>
		<g>
			<rect x="217.2" y="198.6" class="st26" width="9.3" height="2.9"/>
		</g>
		<g>
			<rect x="347.1" y="177.1" class="st26" width="9.3" height="2.9"/>
		</g>
		<g>
			<rect x="158.7" y="177.1" class="st13" width="14.5" height="2.9"/>
		</g>
		<g>
			<rect x="197.3" y="231.3" class="st13" width="11.4" height="2.9"/>
		</g>
		<g>
			<rect x="176.7" y="177.1" class="st13" width="4.7" height="2.9"/>
		</g>
		<g>
			<rect x="272.6" y="177.1" class="st26" width="38.6" height="2.9"/>
		</g>
		<g>
			<rect x="235.6" y="263.6" class="st26" width="38.6" height="2.9"/>
		</g>
		<g>
			<rect x="184.8" y="177.1" class="st27" width="4.8" height="2.9"/>
		</g>
		<g>
			<rect x="256.4" y="177.1" class="st13" width="12.6" height="2.9"/>
		</g>
		<g>
			<rect x="269.1" y="187.9" class="st27" width="12.6" height="2.9"/>
		</g>
		<g>
			<rect x="204.1" y="274.3" class="st27" width="12.6" height="2.9"/>
		</g>
		<g>
			<rect x="226.2" y="177.1" class="st13" width="26.9" height="2.9"/>
		</g>
		<g>
			<rect x="201.2" y="242.2" class="st13" width="15.7" height="2.9"/>
		</g>
		<g>
			<rect x="200.2" y="263.6" class="st13" width="7.9" height="2.9"/>
		</g>
		<g>
			<rect x="213.1" y="177.1" class="st14" width="9.3" height="2.9"/>
		</g>
		<g>
			<rect x="182" y="187.9" class="st27" width="9.3" height="2.9"/>
		</g>
		<g>
			<rect x="183.8" y="231.3" class="st27" width="9.3" height="2.9"/>
		</g>
		<g>
			<rect x="193.5" y="177.1" class="st13" width="16.1" height="2.9"/>
		</g>
	</g>
	<g class="st28">
		<path class="st8" d="M429.5,291.3H312.6c-2.2,0-4-1.8-4-4v-81c0-2.2,1.8-4,4-4h116.9c2.2,0,4,1.8,4,4v81
			C433.5,289.5,431.7,291.3,429.5,291.3z"/>
	</g>
	<g>
		<g>
			<path class="st29" d="M420,254.2h-20.1c-0.9,0-1.5-0.7-1.5-1.5v-3.1c0-0.9,0.7-1.5,1.5-1.5H420c0.9,0,1.5,0.7,1.5,1.5v3.1
				C421.5,253.5,420.9,254.2,420,254.2z"/>
		</g>
	</g>
	<g>
		<g>
			<path class="st29" d="M420,265.8h-20.1c-0.9,0-1.5-0.7-1.5-1.5v-3.1c0-0.9,0.7-1.5,1.5-1.5H420c0.9,0,1.5,0.7,1.5,1.5v3.1
				C421.5,265.1,420.9,265.8,420,265.8z"/>
		</g>
	</g>
	<g>
		<g>
			<path class="st29" d="M420,277.4h-20.1c-0.9,0-1.5-0.7-1.5-1.5v-3.1c0-0.9,0.7-1.5,1.5-1.5H420c0.9,0,1.5,0.7,1.5,1.5v3.1
				C421.5,276.7,420.9,277.4,420,277.4z"/>
		</g>
	</g>
	<g>
		<g>
			<g>
				<path class="st29" d="M387.1,234.2c-5.2-14.4-19-23.3-33.5-22.9c-3.5,0.1-7.1,0.8-10.6,2c-10.6,3.8-18.2,12.2-21.3,22.2
					c-2.2,6.9-2.2,14.5,0.4,21.9c0.3,0.7,0.5,1.4,0.8,2.1c1.4,3.2,3.2,6.1,5.3,8.6c9,10.6,24,15.1,37.9,10.1
					C384.2,271.9,393.5,252.2,387.1,234.2z M363.4,270.2c-10.4,3.7-21.6,0.4-28.4-7.6c-1.6-1.9-3-4.1-4-6.4
					c-0.2-0.5-0.4-1.1-0.6-1.6c-2-5.5-2-11.2-0.3-16.4c2.3-7.5,8-13.8,16-16.6c2.6-0.9,5.3-1.4,7.9-1.5c10.9-0.3,21.2,6.3,25.1,17.1
					C383.8,250.6,376.8,265.4,363.4,270.2z"/>
			</g>
		</g>
		<g>
			<g>
				<path class="st30" d="M330,238.1l-8.2-2.6c3.1-10,10.7-18.4,21.3-22.2c3.5-1.3,7.1-1.9,10.6-2l0.3,8.6c-2.6,0.1-5.3,0.6-7.9,1.5
					C338,224.3,332.3,230.7,330,238.1z"/>
			</g>
		</g>
		<g>
			<g>
				<path class="st31" d="M331,256.2l-7.9,3.4c-0.3-0.7-0.6-1.4-0.8-2.1c-2.6-7.3-2.6-15-0.4-21.9l8.2,2.6
					c-1.6,5.2-1.6,10.9,0.3,16.4C330.5,255.1,330.7,255.6,331,256.2z"/>
			</g>
		</g>
		<g>
			<g>
				<path class="st32" d="M328.4,268.2c-2.2-2.5-4-5.4-5.3-8.6l7.9-3.4c1,2.4,2.4,4.5,4,6.4L328.4,268.2z"/>
			</g>
		</g>
	</g>
	<g>
		<g>
			<g>
				<path class="st18" d="M366.2,266.3c0,0-1.7-2.9,1-10.8c2.6-7.6,11.4-6.9,14.2-2c2.8,4.9,1.9,7.9-2.3,13.3
					C375,272.3,367.9,268.8,366.2,266.3z"/>
			</g>
		</g>
		<g>
			<g>
				<path class="st18" d="M386.8,401.1c0,0,0.4,3.2,0.5,3.7c0.1,0.5,4.9-0.3,4.9-0.3l0.4-3.8C392.5,400.6,387.4,400.6,386.8,401.1z"
					/>
			</g>
		</g>
		<g>
			<g>
				<path class="st33" d="M387.2,404.3c0,0-1.5,1.9-3,2.8c-1.5,0.8-3.8,1.2-4.7,2.1c-0.6,0.6-2.3,3.3,3.8,3.3
					c6.1-0.1,9.1,0.4,9.8-0.7c0.7-1-1-7.7-1-7.7S390.7,404.6,387.2,404.3z"/>
			</g>
		</g>
		<g>
			<g>
				<path class="st18" d="M353.3,401.1c0,0,0.4,3.2,0.5,3.7c0.1,0.5,4.9-0.3,4.9-0.3l0.4-3.8C359.1,400.6,353.9,400.6,353.3,401.1z"
					/>
			</g>
		</g>
		<g>
			<g>
				<path class="st33" d="M353.8,404.3c0,0-1.5,1.9-3,2.8c-1.5,0.8-6.9,1.5-7.8,2.4c-0.6,0.6-1.7,3.2,7,2.9c6.1-0.2,9.1,0.4,9.8-0.7
					c0.7-1-1-7.7-1-7.7S356.8,404.5,353.8,404.3z"/>
			</g>
		</g>
		<g>
			<g>
				<path class="st34" d="M385.1,321c0,0,2.5,7.7,2.1,14.3c-0.3,6.6,1.3,13.9,1.9,20.8c0.7,7.7,3.7,26,3.8,30.1
					c0.1,4.1-0.5,17.3-0.5,17.3l-6,0.1c0,0-5-31.9-6.3-35.2c-1.3-3.3-7.8-26.5-8-29.1C372.1,336.7,385.1,321,385.1,321z"/>
			</g>
		</g>
		<g>
			<g>
				<path class="st34" d="M360.3,320.2c0,0-3.6,20.3-4.1,24.4c-0.4,4.1-0.7,19.6-0.9,22.2c-0.2,2.5-1.4,33.2-2.6,36.9h6.7
					c0,0,6.9-22.3,6.9-32.8c0-10.5,4.5-22.9,7.5-29.9c2.9-7,9.6-7.1,11.5-20C385.1,321,362.7,316.1,360.3,320.2z"/>
			</g>
		</g>
		<g>
			<g>
				<path class="st18" d="M368.6,268.4c0,0,0.8,2.2,0,3.8c-0.8,1.6,9.6,0.6,9.6,0.6s-0.5-3.2,0.9-5.9
					C380.5,264.2,368.6,268.4,368.6,268.4z"/>
			</g>
		</g>
		<g>
			<g>
				<path class="st35" d="M385.6,322.6c0,0-3.7,3.8-25.7-0.6l0.3-1.9l24.9,0.9L385.6,322.6z"/>
			</g>
		</g>
		<g>
			<g>
				<path class="st18" d="M367,272.6c0,0-3.8,0.4-4.9,0.6c-1.1,0.2-8.5-1.3-10-1.5c-1.5-0.2-8-4.6-8.2-5.1c-0.2-0.5-3.9-9.9-4.1-12
					c-0.2-2-3.6-1-3.3,0.4c0.5,2.6,1.3,9,1.6,10.8c0.4,2,1.5,6.5,2.2,7.1c0.6,0.6,6.4,5,12.1,6.9c5.7,1.9,10,4.6,10,4.6h28
					c0,0,10.9-15.6,11.1-17.9c0.2-2.3-7.6-18-9.2-19.9c-1.6-2-3.8,0.6-3.8,0.6s4.7,13.8,5.3,15.7c0.6,2-5.5,10.6-7.1,10.6
					c-1.7,0-6-0.5-7.9-0.6c-1.9-0.1-3.9-0.9-3.9-0.9L367,272.6z"/>
			</g>
		</g>
		<g>
			<g>
				<path class="st36" d="M354.9,283c0,0,3.4,2.3,3.7,6.2c0.3,3.9,1.6,10.1,2.2,12.2c0.6,2.1-0.5,17.5-0.7,18.6
					c-0.2,1.1,21.7,3.7,25,1.1c0,0,0.9-14.3,1.3-18.4c0.4-4.1,2.3-13.9,2.9-15.3c0.6-1.3,8.2-12,8.5-13.4c0,0-3.9-6.3-6.7-6.3
					c0,0-4.5,5.2-5.9,5.5c-1.5,0.2-10.4-1.4-10.4-1.4c0,0-1,1.3-6.2-0.2c0,0-6.2,0.7-7.2,0.8c-1.2,0.2-9.7-1.1-9.7-1.1
					s-3.4,5.7-2.8,8.6L354.9,283z"/>
			</g>
		</g>
		<g>
			<g>
				<path class="st18" d="M340,255.9c0,0-0.8-3.6,0.2-4.7c0.5-0.6,1.8-2.2,1.9-2.4c0.1-0.2,1.5-1,1.5-1.4s-1.3-0.8-2.5,0.2
					c-1.2,1.1-1.9,1.3-2.3,1.2c-0.5-0.1-1.1-4-1.2-4.9c-0.1-1-0.4-3.5-1-3.3c-0.6,0.2-0.6,1.3-0.6,1.3s-0.7-1.9-1.2-1.5
					c-0.5,0.4-0.4,1.3-0.4,1.3s-0.9-1.1-1.1-0.3c-0.2,0.8,0,1.5,0,1.5s-0.9-0.5-1,0.7c-0.1,1.2,0.3,4.8,0.9,6c0.6,1.3,3,4.6,3.3,5.9
					C336.8,256.8,340,255.9,340,255.9z"/>
			</g>
		</g>
		<g>
			<g>
				<path class="st18" d="M389.3,249.5c0,0-2.6-4.4-3.5-4.8c-0.9-0.4-2.1-0.6-3.2-1.4c-1.1-0.8-2.5-1.4-2.5-1.7
					c0.1-0.3,1.4-0.2,2.8,0.4c1.4,0.6,2,0.3,2.1,0c0.1-0.3-0.7-2.5-1.2-3c-0.4-0.5-3.4-3.5-2.9-4c0.5-0.4,2.4,1.2,2.7,1.5
					c0,0-1.5-3.2-0.9-3.4c0.6-0.2,1.7,1,1.7,1s-0.1-2.8,2.8,1.7c0,0-0.6-1.5,0.3-1c0.9,0.5,1.8,3.3,2.1,4.7c0.3,1.4,1.6,5.9,2.7,7
					C393.4,247.7,389.3,249.5,389.3,249.5z"/>
			</g>
		</g>
		<g>
			<g>
				<path class="st37" d="M379.1,266.8c0,0-1.4,0.1-4.3-0.9c-2.9-1-3.1-6.1-3.8-5.5c-1.3,1.2-2.5,0.4-3-0.3c0,0,1.4-1.9,0.8-2.8
					c-0.7-0.9-1.7-1.6-1.7-1.6s2.1-9.9,11.4-5.4C389.4,255.6,379.1,266.8,379.1,266.8z"/>
			</g>
		</g>
		<g>
			<g>
				<path class="st38" d="M368.6,272.1l0.3-1.4c0,0,6-0.1,9.2,0.4l0.3,1.7C378.5,272.8,374.3,274.6,368.6,272.1z"/>
			</g>
		</g>
		<g>
			<g>
				<path class="st18" d="M370.1,259.2c0.5-0.9,2.5-1.5,2.8,1c0.2,2-3.6,4.1-3.6,2.3C369.2,260.7,369.7,259.8,370.1,259.2z"/>
			</g>
		</g>
		<g>
			<g>
				<path class="st39" d="M339.8,255.1c0,0-2.2,0.1-3.2,1c0,0-0.1,0.6,0.2,1.1c0,0,1.9-0.9,3.3-1
					C340.1,256.1,340.1,255.3,339.8,255.1z"/>
			</g>
		</g>
		<g>
			<g>
				<circle class="st37" cx="338.2" cy="256" r="0.9"/>
			</g>
		</g>
	</g>
	<g>
		<g>
			<g>
				<path class="st40" d="M284.4,179.1c0,0,3.1,5.2,4.4,6.1c1.8,1.2,0.7,2.3-0.2,2.3c-0.8,0-5.1,0.3-6.1-0.8s-1.4-4.3-2.3-5.1
					c-0.9-0.8-1.8-4.2,0.4-5C282.6,175.9,284.4,179.1,284.4,179.1z"/>
			</g>
		</g>
	</g>
	<g>
		<g>
			<g>
				<path class="st41" d="M283.1,176.8c0,0,3.5,6.1,4.1,7c0.6,0.9-1.1,0.9-2.2,0.5c-1.1-0.4-3.8-4.8-4.2-5.6c-0.5-1-0.1-2-0.1-2
					L283.1,176.8z"/>
			</g>
		</g>
	</g>
	<g>
		<g>
			<g>
				<polygon class="st40" points="279.5,180.1 280.3,186.3 280.7,186.3 280.6,181.8 				"/>
			</g>
		</g>
	</g>
	<g>
		<g>
			<g>
				<path class="st40" d="M253.9,179.1c0,0,3.1,5.2,4.4,6.1c1.8,1.2,0.7,2.3-0.2,2.3c-0.8,0-5.1,0.3-6.1-0.8
					c-0.9-1.1-1.4-4.3-2.3-5.1c-0.9-0.8-1.8-4.3,0.4-5C252.1,176,253.9,179.1,253.9,179.1z"/>
			</g>
		</g>
	</g>
	<g>
		<g>
			<g>
				<path class="st41" d="M252.7,176.8c0,0,3.3,6.1,4,7c0.6,0.9-1.1,0.9-2.2,0.5c-1.1-0.4-3.8-4.8-4.2-5.6c-0.5-1-0.1-2-0.1-2
					L252.7,176.8z"/>
			</g>
		</g>
	</g>
	<g>
		<g>
			<g>
				<polygon class="st40" points="248.9,180.1 249.8,186.3 250.2,186.3 250.1,181.8 				"/>
			</g>
		</g>
	</g>
	<g>
		<g>
			<g>
				<path class="st41" d="M240.2,131.6l27.9,12.7c0,0,3.1,1,3.5,4.5c1.1,10.8,9.2,27.9,9.2,27.9c2.6,1.3,2.4,0.2,2.4,0.2
					c-1.6-5.2-3.6-26.8-4.3-35.5c-0.2-1.8-0.2-3.1-0.3-3.5c0-0.3-0.3-0.6-0.8-1c-3.8-3.1-19.6-9.5-19.6-9.5
					C246.3,126.9,240.2,131.6,240.2,131.6z"/>
			</g>
		</g>
	</g>
	<g>
		<g>
			<g>
				<path class="st41" d="M234.9,137c0.9,7.5,11.6,6.7,11.6,6.7h13c0,0-3.4,7.6-4.7,14c-1.4,6.8-4.7,18.9-4.7,18.9s0.2,0.4,2.6,0.2
					c0,0,10.2-20.4,14.1-25.5c0.8-1.1,3.3-7.1,3.7-10.7c0.1-1.2,0.1-2.1-0.4-2.5c-0.5-0.4-1.5-1.1-2.9-2c-4.1-2.6-11.2-6.5-15.1-7.4
					c-5.3-1.2-13.7-3.4-13.7-3.4S234.1,129.5,234.9,137z"/>
			</g>
		</g>
	</g>
	<g>
		<path class="st42" d="M243.8,79c0,0-2-3.7-1-7.6c1-3.9,4.6-7.9,10-6.1c5.4,1.8,9.7,6,6.5,10.8c-3.2,4.8,2.9,7,1.3,9.3
			c-1.6,2.3-1,4.7-0.3,5.2c0.7,0.5,2.8,2.4,2.6,4.7c-0.2,2.2-10.4-6.6-10.4-6.6S246.9,77.6,243.8,79z"/>
	</g>
	<g>
		<path class="st43" d="M260.1,126.3c0,0-0.8,3.9-21.6-1C238.5,125.3,245.5,123,260.1,126.3z"/>
	</g>
	<g>
		<g>
			<path class="st44" d="M238.3,126.4c-0.3,0.6-0.6,1.2-1,1.8c7.6,0.2,15.2,0.4,22.8,0.7c-1.2-4-0.8-9.5-0.6-13.6
				c0.3-5.1,3.1-8.6,2.8-13.7c1.5,0.2,1.8,0.3,3.3,0.5c-2.3-6.6-3.1-9.8-10.3-12.3c-2.3-0.8-3.9-1-6.4-0.8
				c-8.3,0.7-10.8,0.8-14.9,8.3c6.4,1,5.3,3.3,7.3,9.6c0.9,3.1,1.9,6.5,1.4,9.8C242.2,119.9,238.3,123.5,238.3,126.4z"/>
		</g>
	</g>
	<g>
		<g>
			<path class="st18" d="M251.5,91.3c-3.4-0.6-2.7-2.5-2.7-2.5s0.2-1.1,0.2-2.4c0-0.3,0-0.7,0-1.1c0-0.6,0-1.1-0.1-1.7
				c-0.3-2.3,6.2-0.9,6.2-0.9s-0.4,4.6,0.5,6C256.6,90.1,254.9,92,251.5,91.3z"/>
		</g>
	</g>
	<g>
		<g>
			<path class="st18" d="M245,88.8c0,0,6.8,7.9,9.4,9.7c0,0,2.9-2.6,1.1-9.6C255.5,89,252.2,87.3,245,88.8z"/>
		</g>
	</g>
	<g>
		<path class="st18" d="M245.2,69.8c0,0-3.6,6.9,0,13.3c3.5,6.5,10.5-2.8,10.9-3.9c0.4-1.1,2.8-7.3-1.9-9.2
			C249.5,68.2,246.2,67.9,245.2,69.8z"/>
	</g>
	<g>
		<path class="st42" d="M246.4,72.2c0,0-2.4,3.2-2.7,5.6c0,0-1-4.5,1.8-8.8c2.8-4.3,9.8-0.2,10.7,1.5c0.9,1.7,3.7,3.2-0.9,10.7
			C255.2,81.2,246.9,75.4,246.4,72.2z"/>
	</g>
	<g>
		<path class="st45" d="M252.1,83.8c0,0-0.6,1.3-3,2.6c0-0.3,0-0.7,0-1.1C249.1,85.3,250.7,85.1,252.1,83.8z"/>
	</g>
	<g>
		<path class="st18" d="M216.2,120.2c0,0-1.7,0.8-2.5,0.4c-0.8-0.3-2-0.4-2.4-0.4c-0.5,0-2.2-0.6-2.1,0.1c0,0.6,2.7,1.1,3.2,1.3
			c0.5,0.2-1.6,1.4-1.8,1.9c-0.2,0.5,2.2,4,3.6,3c1.4-1,2.1-2.9,2.4-3.1c0.3-0.1,1-0.7,1-0.7L216.2,120.2z"/>
	</g>
	<g>
		<path class="st18" d="M210.8,123.2c0,0-4,3.3-4,3.7c-0.1,0.4,0.1,0.7,0.5,0.4c0.4-0.3,3.9-3.1,3.9-3.1s-4,4.7-4.1,5
			c-0.1,0.2,0.3,0.6,0.5,0.5c0.2-0.1,4.4-4.6,4.4-4.6s-3.7,4.4-3.7,4.7c0,0.3,0.4,0.6,0.7,0.3c0.3-0.3,4-4.2,4-4.2s-2.5,3.4-2.3,3.7
			c0.1,0.2,0.4,0.6,1-0.3c0.6-0.9,2.3-2.8,2.3-2.8L210.8,123.2z"/>
	</g>
	<g>
		<g>
			<path class="st15" d="M258.2,143.7h-11.7c0,0-10.8,0.9-11.6-6.7c-0.9-7.5,3.5-11.7,3.5-11.7s5.7,1.5,10.6,2.7
				c2.5-0.5,5.5-0.9,9-0.8c0,0,21,6.9,20.4,10.6C278.5,137.8,269.7,133.1,258.2,143.7z"/>
		</g>
	</g>
	<g>
		<polygon class="st46" points="250.6,130.6 272.9,130.3 261.6,136 		"/>
	</g>
	<g>
		<path class="st44" d="M257.5,127.8c0,0-5,1.9-11.1,0.2l-0.3-2.3l12.6,0.7L257.5,127.8z"/>
	</g>
	<g>
		<polygon class="st47" points="261.6,136 250.6,131.7 250.6,130.6 262.5,134.9 		"/>
	</g>
	<g>
		<g>
			<path class="st48" d="M257.5,128.9c-0.1,0.8,0.8,1.4,1.5,1.1l1.3-0.6c0.4-0.2,0.6-0.6,0.5-1c-0.5-3.4-1.7-16.5,0-18.7
				c0.6-0.8,1-1.6,1.2-2.2c1.1,2.9,2.5,6.6,3.1,8.6l10.5,14l3.5,0.9c-4.4-10.6-7.9-16.2-7.9-16.2c-0.7-1.8-2.7-7.4-4.4-12.4
				c-1.1-3.1-2.1-6-2.7-7.6c-0.3-0.8-0.8-1.5-1.5-1.9c-1.6-1-4.3-2.5-6.8-3.7c0,0,0,0,0,0c-0.1,0-0.2-0.1-0.2-0.1c0,0,0,0,0,0
				c0,0,0,0,0,0C260.2,96.1,258.4,116,257.5,128.9C257.5,128.8,257.5,128.8,257.5,128.9z"/>
		</g>
		<g>
			<path class="st48" d="M240.1,89.6c-1.5,0.2-5.2,3.8-7.2,7.5c-2.3,4.2-4.5,8.9-6.3,10.4c-3.2,2.9-12,13-12.4,12.7
				c-0.2-0.1,2.4,3,2.8,3.2c0.2,0.1,14.5-12.4,15.9-14.3c1.3-1.8,4.8-9.3,5.9-9.2c0,0,0,0,0,0c0,0,0,0,0,0c0.1,0.2,1.4,2.9,2.6,7
				c0,0.1,0,0.1,0.1,0.2c0.8,2.8,0.8,5.9,0.3,9.3c-0.3,2.6-2.3,6.8-3.4,8.9c-0.1,0.2-0.1,0.7,0,1.1v0c0.1,0.2,0.2,0.4,0.4,0.4
				l4.2,1.6l1,0.4c0.7,0.3,1.5,0.1,2-0.3c0.5-0.3,0.8-0.8,0.9-1.5c0.9-7.2,2.1-14.6,3.1-17.4c4.2-12.2-1.6-21.3-1.6-21.3
				S241.4,89.1,240.1,89.6z"/>
		</g>
	</g>
	<g>
		<polygon class="st49" points="261.6,136 268.3,117.9 289.6,118.3 283.3,134.9 		"/>
	</g>
	<g>
		
			<ellipse transform="matrix(-0.8943 -0.4474 0.4474 -0.8943 467.4629 363.9091)" class="st50" cx="276.7" cy="126.7" rx="1.8" ry="2.6"/>
	</g>
	<g>
		<path class="st42" d="M252.6,76.6c0,0,1.4,2.1,0.1,4c-1.3,1.8,0.3,3.6,0.6,5.6c0.3,1.9-5.3,7.1,0.9,9.7c6.2,2.6,8.1-1.7,6.6-4.1
			c-1.6-2.4-2.7-4.3-2.8-7.6C257.8,80.8,256.7,75.5,252.6,76.6z"/>
	</g>
	<g>
		<polygon class="st14" points="207.9,51.1 234.2,51.1 234.2,70.1 234.2,74.1 230.2,70.1 207.9,70.1 		"/>
	</g>
</g>
</svg>
