<?xml version="1.0" encoding="utf-8"?>
<!-- Generator: Adobe Illustrator 23.0.3, SVG Export Plug-In . SVG Version: 6.00 Build 0)  -->
<svg version="1.1" id="Layer_1" xmlns="http://www.w3.org/2000/svg" xmlns:xlink="http://www.w3.org/1999/xlink" x="0px" y="0px"
	 viewBox="0 0 290 250" style="enable-background:new 0 0 290 250;" xml:space="preserve">
<style type="text/css">
	.st0{opacity:0.4;}
	.st1{fill:#FFFFFF;}
	.st2{fill:#007BFF;}
</style>
<g class="st0">
	<g>
		<circle class="st1" cx="254" cy="19" r="2.5"/>
		<path class="st2" d="M254,17c1.1,0,2,0.9,2,2s-0.9,2-2,2s-2-0.9-2-2S252.9,17,254,17 M254,16c-1.66,0-3,1.34-3,3s1.34,3,3,3
			s3-1.34,3-3S255.66,16,254,16L254,16z"/>
	</g>
	<g>
		<circle class="st1" cx="270" cy="19" r="2.5"/>
		<path class="st2" d="M270,17c1.1,0,2,0.9,2,2s-0.9,2-2,2s-2-0.9-2-2S268.9,17,270,17 M270,16c-1.66,0-3,1.34-3,3s1.34,3,3,3
			s3-1.34,3-3S271.66,16,270,16L270,16z"/>
	</g>
</g>
<g class="st0">
	<g>
		<circle class="st1" cx="254" cy="32" r="2.5"/>
		<path class="st2" d="M254,30c1.1,0,2,0.9,2,2s-0.9,2-2,2s-2-0.9-2-2S252.9,30,254,30 M254,29c-1.66,0-3,1.34-3,3s1.34,3,3,3
			s3-1.34,3-3S255.66,29,254,29L254,29z"/>
	</g>
	<g>
		<circle class="st1" cx="270" cy="32" r="2.5"/>
		<path class="st2" d="M270,30c1.1,0,2,0.9,2,2s-0.9,2-2,2s-2-0.9-2-2S268.9,30,270,30 M270,29c-1.66,0-3,1.34-3,3s1.34,3,3,3
			s3-1.34,3-3S271.66,29,270,29L270,29z"/>
	</g>
</g>
<g>
	<g>
		<circle class="st1" cx="68" cy="227" r="2.5"/>
		<path d="M68,225c1.1,0,2,0.9,2,2s-0.9,2-2,2s-2-0.9-2-2S66.9,225,68,225 M68,224c-1.66,0-3,1.34-3,3s1.34,3,3,3c1.66,0,3-1.34,3-3
			S69.66,224,68,224L68,224z"/>
	</g>
	<g>
		<circle class="st1" cx="33" cy="227" r="2.5"/>
		<path d="M33,225c1.1,0,2,0.9,2,2s-0.9,2-2,2c-1.1,0-2-0.9-2-2S31.9,225,33,225 M33,224c-1.66,0-3,1.34-3,3s1.34,3,3,3
			c1.66,0,3-1.34,3-3S34.66,224,33,224L33,224z"/>
	</g>
	<g>
		<circle class="st1" cx="50" cy="227" r="2.5"/>
		<path d="M50,225c1.1,0,2,0.9,2,2s-0.9,2-2,2s-2-0.9-2-2S48.9,225,50,225 M50,224c-1.66,0-3,1.34-3,3s1.34,3,3,3s3-1.34,3-3
			S51.66,224,50,224L50,224z"/>
	</g>
</g>
</svg>
