<?xml version="1.0" encoding="utf-8"?>
<!-- Generator: Adobe Illustrator 19.0.0, SVG Export Plug-In . SVG Version: 6.00 Build 0)  -->
<svg version="1.1" id="Layer_1" xmlns="http://www.w3.org/2000/svg" xmlns:xlink="http://www.w3.org/1999/xlink" x="0px" y="0px"
	 viewBox="0 0 358 277" style="enable-background:new 0 0 358 277;" xml:space="preserve">
<style type="text/css">
	.st0{fill:#D9F3F9;stroke:#DCE8EA;stroke-miterlimit:10;}
	.st1{fill:#D1E2E5;stroke:#DCE8EA;stroke-miterlimit:10;}
	.st2{fill:#FFC18F;}
	.st3{fill:#01C8DA;}
	.st4{fill:#FFB173;}
	.st5{fill:#BF8238;}
	.st6{fill:#424242;}
	.st7{fill:none;stroke:#424242;stroke-width:4;stroke-miterlimit:10;}
	.st8{fill:#595959;}
	.st9{fill:#FFFFFF;}
	.st10{fill:#007BFF;}
	.st11{fill:#09C3CC;}
	.st12{fill:none;stroke:#424242;stroke-width:3;stroke-miterlimit:10;}
	.st13{fill:#E2F1F2;stroke:#DCE8EA;stroke-miterlimit:10;}
</style>
<path id="XMLID_49_" class="st0" d="M335.6,263.2H22.4c-3.6,0-6.5-2.9-6.5-6.5l0,0c0-3.6,2.9-6.5,6.5-6.5h313.3
	c3.6,0,6.5,2.9,6.5,6.5l0,0C342.2,260.2,339.2,263.2,335.6,263.2z"/>
<rect id="XMLID_44_" x="315.1" y="158.5" class="st1" width="5.9" height="91.6"/>
<polygon id="XMLID_42_" class="st1" points="100.4,244.8 100.4,193.3 91.9,193.3 91.9,244.8 70.2,244.8 70.2,253.2 120.2,253.2 
	120.2,244.8 "/>
<path id="XMLID_1_" class="st1" d="M123.5,198.5H66.9c-6.9,0-12.6-5.6-12.6-12.6v-72.1c0-6.9,5.6-12.6,12.6-12.6h56.6
	c6.9,0,12.6,5.6,12.6,12.6v72.1C136.1,192.8,130.4,198.5,123.5,198.5z"/>
<path id="XMLID_40_" class="st2" d="M224.4,92.4h-17.9c-2.6,0-5,1-6.8,2.9l-4.2,4.3l6.9,3.9h13.2c4.8,0,8.7-3.9,8.7-8.7V92.4z"/>
<path id="XMLID_39_" class="st3" d="M208.5,104.1l-10.6-10.6l-30.5,30.5L142.5,98c-2.3-2.4-5.2-4.1-8.3-5l0,0l-6.4,12.6l39.6,39.6
	l1.5-1.5l0,0L208.5,104.1z"/>
<rect id="XMLID_38_" x="103" y="71.9" class="st4" width="11.5" height="20.8"/>
<path id="XMLID_37_" class="st2" d="M119.8,78.9h-5.3c-9,0-16.2-7.3-16.2-16.2V28.6h37.7v34.1C136.1,71.7,128.8,78.9,119.8,78.9z"/>
<path id="XMLID_36_" class="st5" d="M100.4,63.4h-3c-2.8,0-5-2.2-5-5v-29c0-2.8,2.2-5,5-5h3c2.8,0,5,2.2,5,5v29
	C105.4,61.2,103.1,63.4,100.4,63.4z"/>
<path id="XMLID_35_" class="st5" d="M103.7,59.3h-3c-2.8,0-5-2.2-5-5V37.5c0-2.8,2.2-5,5-5h3c2.8,0,5,2.2,5,5v16.7
	C108.7,57,106.4,59.3,103.7,59.3z"/>
<circle id="XMLID_34_" class="st2" cx="99.6" cy="58.8" r="5.8"/>
<circle id="XMLID_33_" class="st6" cx="98.9" cy="59.4" r="9.7"/>
<path id="XMLID_32_" class="st7" d="M133.6,29c0-8.4-6.8-15.2-15.2-15.2h-4.9c-8.4,0-15.2,6.8-15.2,15.2v31.8"/>
<path id="XMLID_31_" class="st5" d="M136.3,37.4h-35.9V25.6c0-4,3.2-7.2,7.2-7.2h39.1v8.7C146.7,32.8,142.1,37.4,136.3,37.4z"/>
<circle id="XMLID_30_" class="st8" cx="98.9" cy="59.3" r="6.3"/>
<path id="XMLID_29_" class="st9" d="M113.2,64c0,4.4,3.6,7.9,7.9,7.9c4.4,0,7.9-3.5,7.9-7.9H113.2z"/>
<path id="XMLID_28_" class="st4" d="M126.5,61.5h-1c-1.1,0-2-0.9-2-2v-8.5c0-1.1,0.9-2,2-2h1c1.1,0,2,0.9,2,2v8.5
	C128.5,60.6,127.6,61.5,126.5,61.5z"/>
<polygon id="XMLID_27_" class="st10" points="109,86.4 97.4,88.9 76.4,93.5 76.4,164 135.8,164 135.8,93.5 "/>
<polygon id="XMLID_26_" class="st3" points="103,82.1 98.3,88.7 104.2,92.7 110.4,85.6 "/>
<polygon id="XMLID_25_" class="st3" points="114.6,82.4 119.1,89 113.9,92.7 107.9,85.6 "/>
<path id="XMLID_24_" class="st3" d="M76.4,93.5l-0.2,0.1c-2.4,2-4.4,4.5-5.8,7.3l-19.3,39.4c-2.2,3.6,0.4,8.3,4.7,8.3h49.5v-11.1
	H71.3c-1.2,0-2-1.4-1.3-2.4l6.6-12.1L76.4,93.5z"/>
<path id="XMLID_23_" class="st2" d="M117.2,139.7h-11.5v8.9H126l0,0C126,143.7,122.1,139.7,117.2,139.7z"/>
<circle id="XMLID_43_" class="st11" cx="123.6" cy="248.2" r="7.9"/>
<rect id="XMLID_22_" x="79" y="137.5" class="st3" width="26.3" height="11.1"/>
<path id="XMLID_21_" class="st3" d="M188.4,182c-5-6.4-12.7-10.2-20.8-10.2H162c-3-4.9-8.3-7.9-14.1-7.9h-70v7.9v3
	c0,8.3,6.7,15,15,15h43.6l-37.1,37.1l12.7,12.7l47.4-47.4c0.7-0.7,1.4-1.6,2-2.4h6c2.6,0,5,1.2,6.6,3.2l38.2,49l14.2-11.1L188.4,182
	z"/>
<path id="XMLID_20_" class="st6" d="M249.4,232.4l-23.2,18.7c-2.1,1.7-5.3,1.4-7-0.8l-6.8-8.5l18.4-14.8c4.8-3.9,11.9-3.1,15.8,1.7
	L249.4,232.4z"/>
<path id="XMLID_19_" class="st6" d="M112.7,262.4l-21.1-21.1c-1.9-1.9-1.9-5.1,0-7l7.7-7.7l16.7,16.7c4.4,4.4,4.4,11.5,0,15.9
	L112.7,262.4z"/>
<circle id="XMLID_18_" class="st11" cx="64.7" cy="248.2" r="7.9"/>
<path id="XMLID_17_" class="st12" d="M102.6,66.1c0,0,2.4,9.7,14.6,9.3"/>
<circle id="XMLID_16_" class="st6" cx="117.2" cy="74.1" r="2.7"/>
<path id="XMLID_14_" class="st9" d="M301.4,126.1h-93c-1,0-1.7-0.9-1.4-1.9l19-63.7c0.2-0.6,0.7-1,1.4-1h93c1,0,1.7,0.9,1.4,1.9
	l-19,63.7C302.6,125.6,302,126.1,301.4,126.1z"/>
<path id="XMLID_13_" class="st13" d="M304.5,126.1h-93c-1,0-1.7-0.9-1.4-1.9l19-63.7c0.2-0.6,0.7-1,1.4-1h93c1,0,1.7,0.9,1.4,1.9
	l-19,63.7C305.7,125.6,305.1,126.1,304.5,126.1z"/>
<rect id="XMLID_12_" x="254.9" y="109.7" class="st0" width="5.8" height="16.3"/>
<path id="XMLID_11_" class="st0" d="M272.4,107.7h-15.8c-1.1,0-1.9,1-1.8,2.1l5.2,33.3c0.2,1.1-0.7,2.1-1.8,2.1h-24.4
	c-1,0-1.8,0.8-1.8,1.8l0,0c0,1,0.8,1.8,1.8,1.8h27h5.4h11.9c1.1,0,1.9-1,1.8-2.1l-5.8-37.4C274.1,108.3,273.3,107.7,272.4,107.7z"/>
<circle id="XMLID_7_" class="st9" cx="167" cy="61.5" r="3"/>
<circle id="XMLID_5_" class="st9" cx="185.1" cy="61.5" r="3"/>
<rect id="XMLID_3_" x="31.2" y="148.6" class="st6" width="289.7" height="9.9"/>
<g id="XMLID_104_">
	<path id="XMLID_107_" class="st10" d="M274.1,83.8c0,1.2-0.4,2.1-1.3,2.8c-4.1,3.2-8.2,6.5-12.3,9.7c-2,1.5-4.6,0.8-5.5-1.5
		c-0.5-1.4-0.1-2.9,1.1-3.8c2.8-2.2,5.6-4.5,8.5-6.7c0.4-0.3,0.3-0.4,0-0.7c-2.8-2.2-5.6-4.4-8.3-6.6c-1.2-0.9-1.7-2.1-1.3-3.6
		c0.4-1.4,1.3-2.2,2.7-2.5c1-0.2,2,0,2.8,0.7c4.1,3.2,8.1,6.4,12.2,9.6C273.6,81.8,274.1,82.7,274.1,83.8z"/>
	<path id="XMLID_106_" class="st3" d="M282.1,97.1c-1.4,0-2.7,0-4.1,0c-4.6,0-9.1,0-13.7,0c-0.2,0-0.5,0.1-0.6-0.2
		c-0.1-0.3,0.2-0.4,0.4-0.6c2.4-1.9,4.9-3.9,7.3-5.8c0.2-0.2,0.5-0.3,0.8-0.3c3.2,0,6.3,0,9.4,0c0.1,0,0.2,0,0.2,0
		c-0.1,0.1-0.2,0.1-0.3,0.1c-1.6,0.6-2.4,2.1-2.2,3.8C279.6,95.8,280.6,96.7,282.1,97.1z"/>
	<path id="XMLID_105_" class="st10" d="M282.1,97.1c-1.5-0.4-2.5-1.3-2.8-2.9c-0.3-1.7,0.6-3.1,2.2-3.8c0.1,0,0.2-0.1,0.3-0.1
		c1.5-0.2,2.9,0.1,3.8,1.5c0.7,1.1,0.8,2.3,0.2,3.5c-0.6,1.2-1.7,1.7-3,1.8C282.6,97.1,282.4,97.1,282.1,97.1z"/>
</g>
</svg>
