<?xml version="1.0" encoding="utf-8"?>
<!-- Generator: Adobe Illustrator 19.0.0, SVG Export Plug-In . SVG Version: 6.00 Build 0)  -->
<svg version="1.1" id="Layer_1" xmlns="http://www.w3.org/2000/svg" xmlns:xlink="http://www.w3.org/1999/xlink" x="0px" y="0px"
	 viewBox="0 0 622 560" style="enable-background:new 0 0 622 560;" xml:space="preserve">
<style type="text/css">
	.st0{opacity:0.67;}
	.st1{fill:#4E87C3;}
	.st2{fill:#ECE8EC;}
	.st3{fill:#F5D09F;}
	.st4{fill:#151E1C;}
	.st5{fill:#E9BB88;}
	.st6{fill:#007CFF;}
	.st7{fill:#FFFFFF;}
	.st8{fill:#FFFFFF;stroke:#E5E5E5;stroke-miterlimit:10;}
	.st9{fill:#251F3E;}
	.st10{fill:#312C48;}
	.st11{fill:#44263D;}
	.st12{fill:#00C8DB;}
	.st13{fill:#7DADDF;}
	.st14{fill:#93BCEB;}
	.st15{fill:#CCE1F7;}
</style>
<g id="XMLID_1_">
	<g id="XMLID_119_" class="st0">
		<ellipse id="XMLID_120_" class="st1" cx="316" cy="521.1" rx="274" ry="18.4"/>
	</g>
	<g id="XMLID_117_">
		<path id="XMLID_118_" class="st2" d="M424,517.8c0,0,28.1,4.8,58.2,4.8c28,0,54.9-4.8,54.9-4.8l-2.2-4.9
			c-9.6-21.4-46.1-13.1-54.4-35.2h0c-6.9,22.1-44.8,13.8-54.4,35.2L424,517.8z"/>
	</g>
	<g id="XMLID_115_">
		<rect id="XMLID_116_" x="473.7" y="351.7" class="st2" width="15.2" height="142.2"/>
	</g>
	<g id="XMLID_113_">
		<polygon id="XMLID_114_" class="st3" points="478,482.2 471.3,467.7 456.8,473.1 460.9,488 		"/>
	</g>
	<g id="XMLID_111_">
		<path id="XMLID_112_" class="st4" d="M477.9,482l3.5,11.8l-15.3,4.8c0,0-34.6,14.5-41.1,7.8c-3-3.1,8.3-6.1,15.6-10.9
			c7.2-4.8,18.6-11.6,18.6-11.6S469.1,484.4,477.9,482z"/>
	</g>
	<g id="XMLID_109_">
		<polygon id="XMLID_110_" class="st3" points="401.3,503.6 399,487.8 383.6,488.9 383.2,504.3 		"/>
	</g>
	<g id="XMLID_107_">
		<path id="XMLID_108_" class="st4" d="M401.3,503.4v12.3l-16.1,0.3c0,0-37.3,4.2-41.6-4.1c-2-3.8,9.7-3.5,18-6.1
			c8.3-2.6,21.1-5.8,21.1-5.8S392.2,503.2,401.3,503.4z"/>
	</g>
	<g id="XMLID_105_">
		<path id="XMLID_106_" class="st5" d="M261.7,231.8l21.3-7.1l18.9,4.8c10.6-2.8,14.2-2.6,35.9-8.2c18.4-4.7,39.5-14.1,39.5-14.1
			l15.6-26.2c10.1,0.9,31.4,12,31.4,12s-29.1,39.6-37.4,42.3c-8.3,2.8-64.1,9.6-85.4,7.1c-6.7-0.8-19.8-7.9-19.8-7.9l-16.8,2.8
			l-13.1,8.9l-2.3-1.9l5.2-5.7L261.7,231.8z"/>
	</g>
	<g id="XMLID_103_">
		<path id="XMLID_104_" class="st6" d="M409.1,131c0,0,27.1,4.5,26.7,28.9c-0.3,15.9-22.1,45.5-22.1,45.5s-12-16.6-26.7-21.2
			c0,0,9.6-28,12.5-36.8C403.2,136.4,409.1,131,409.1,131z"/>
	</g>
	<g id="XMLID_101_">
		<rect id="XMLID_102_" x="454.3" y="347.6" class="st2" width="53.8" height="29"/>
	</g>
	<g id="XMLID_99_">
		<path id="XMLID_100_" class="st2" d="M461.5,234.8c-2.6-35.1-4.5-70.2-5.7-105.3c33.3-14.8,107.5-8.2,114.4,13.8
			c7.4,23.3-20.7,89.7-20.7,114.6c0,24.8,9.7,42.8,11,53.8c1.4,11-5.5,19.3-5.5,19.3H470C467.8,298.9,464,266.8,461.5,234.8z"/>
	</g>
	<g id="XMLID_97_">
		<path id="XMLID_98_" class="st7" d="M461.5,234.8c-2.8-36.5-4.7-73.1-5.8-109.8c36.6-8.5,94.7-1.1,100.8,18.2
			c7.4,23.3-20.7,89.7-20.7,114.6c0,24.8,9.7,42.8,11,53.8c1.4,11-5.5,19.3-5.5,19.3H470C467.8,298.9,464,266.8,461.5,234.8z"/>
	</g>
	<g id="XMLID_95_">
		<path id="XMLID_96_" class="st8" d="M395,357.2h152.1c4.4,0,8-3.6,8-8V331H395V357.2z"/>
	</g>
	<g id="XMLID_93_">
		<path id="XMLID_94_" class="st9" d="M425.3,270.7c0,0-76.6,45.5-81.1,64.3c-5.4,22.4,31.3,155.2,31.3,155.2
			c8.7,5.8,24.7,3.9,30.6-1.4c0,0-29.6-113.6-26.3-121.2c7.9-18.6,75-40.7,96.2-61c21.2-20.2,23-39.6,23-39.6L425.3,270.7z"/>
	</g>
	<g id="XMLID_91_">
		<path id="XMLID_92_" class="st10" d="M512.9,250.4c0,0,26.1,54.4,2.6,76.5c-10.7,10.1-75,0.9-78.7,11l38.8,128.9
			c0,0-6.8,4.2-20.6,11.1c0,0-80.7-142.3-72.4-160.7c8.3-18.4,64-29,66.7-39.1c2.8-10.1,4.6-26.7,4.6-26.7L512.9,250.4z"/>
	</g>
	<g id="XMLID_89_">
		<path id="XMLID_90_" class="st3" d="M402.2,102.8c1.7,6.3,4.6,13.3,10.8,15.3c5.7,1.9,11.8-1.2,16.9-4.2
			c6.1-3.6,12.2-7.6,16.1-13.5c5.9-9,10.7-19.9,10-30.6c-0.2-3.8-5.8-8.4-8.1-11.4c-1.6-2.1-4-3.5-6.5-4.6
			c-5.7-2.7-11.9-4.6-18.1-5.7c-10.5-1.7-22.1,0.6-24.2,12.1C396.7,73.9,398.7,89.5,402.2,102.8z"/>
	</g>
	<g id="XMLID_87_">
		<circle id="XMLID_88_" class="st11" cx="420.4" cy="78.4" r="2.9"/>
	</g>
	<g id="XMLID_85_">
		<circle id="XMLID_86_" class="st11" cx="404.1" cy="78.4" r="2.9"/>
	</g>
	<g id="XMLID_74_">
		<g id="XMLID_81_">
			<path id="XMLID_82_" class="st11" d="M423,88.9c-5.5,0-10-4.5-10-10s4.5-10,10-10c5.5,0,10,4.5,10,10S428.5,88.9,423,88.9z
				 M423,70.8c-4.5,0-8.1,3.6-8.1,8.1s3.7,8.1,8.1,8.1c4.5,0,8.1-3.6,8.1-8.1S427.4,70.8,423,70.8z"/>
		</g>
		<g id="XMLID_79_">
			<path id="XMLID_80_" class="st11" d="M407.9,73.6l-1.5-1.1c1.2-1.6,3-2.6,5.1-2.7c2.2-0.1,4.5,0.8,6,2.4l-1.3,1.3
				c-1.2-1.3-2.9-1.9-4.6-1.8C410.1,71.7,408.8,72.4,407.9,73.6z"/>
		</g>
		<g id="XMLID_75_">
			<path id="XMLID_76_" class="st11" d="M400.9,88.9c-5.5,0-10-4.5-10-10s4.5-10,10-10c5.5,0,10,4.5,10,10S406.4,88.9,400.9,88.9z
				 M400.9,70.8c-4.5,0-8.1,3.6-8.1,8.1s3.7,8.1,8.1,8.1c4.5,0,8.1-3.6,8.1-8.1S405.4,70.8,400.9,70.8z"/>
		</g>
	</g>
	<g id="XMLID_72_">
		<path id="XMLID_73_" class="st3" d="M476.1,120c0,0-0.1-2.1-7.5-3.9c-2.1-0.5-4.8-0.5-6.4-2c-6-5.2-11.4-14.9-13.5-22
			c-0.3-1.1-0.6-2.2-0.3-3.2c-5,4.2-9.8,8.6-14.4,13.2c-1.6,1.6-11.2,0.7-10,2.8c0.3,0.6,2.8,6.2,5.2,11.6c-4.6,3-9.8,7-9.8,7
			l-6.4,35.9l18.9,10.6c0,0,21.2-4.6,35-12C480.6,150.6,476.1,120,476.1,120z"/>
	</g>
	<g id="XMLID_70_">
		<path id="XMLID_71_" class="st6" d="M468.6,116.1c0,0-5.5,10.1-19.3,16.1c-13.8,6-26.2-12-26.2-12L409.1,131
			c0,0-1.3,48.9,4.7,75.6c6,26.7,11.5,64.1,11.5,64.1s6.2,9,14.1,9.6c9.6,0.7,22.9-6.9,43.9-3.1c23.3,4.2,40.6,0.5,40.6,0.5
			s-17.9-87.5-22.1-105c-4.1-17.5-14.9-53.3-14.9-53.3S477.8,117.1,468.6,116.1z"/>
	</g>
	<g id="XMLID_68_">
		<path id="XMLID_69_" class="st2" d="M222.2,246.5h83.2v-6.9h-86.2v3.9C219.2,245.1,220.6,246.5,222.2,246.5z"/>
	</g>
	<g id="XMLID_66_">
		<path id="XMLID_67_" class="st8" d="M250.3,160.3c2.4,0,4.5,1.5,5.3,3.8l27.4,75.5l-1.7,0.7l0.4,1.3l-62.6-2.1L192.6,168
			c-1.4-3.7,1.4-7.7,5.3-7.7L250.3,160.3z"/>
	</g>
	<g id="XMLID_64_">
		<path id="XMLID_65_" class="st2" d="M228.9,205c1.9,7.1,5.5,12.8,8.1,12.7c2.6-0.1,3.3-6,1.4-13.1c-1.9-7.1-5.5-12.8-8.1-12.7
			C227.7,192,227.1,197.9,228.9,205z"/>
	</g>
	<g id="XMLID_60_">
		<g id="XMLID_61_">
			<path id="XMLID_62_" class="st11" d="M411.6,72.3c0.1,5.5-2.1,9.7-4.4,14.5c-1,2.1-1.9,5-1,7.3c0.1,0.3,0.4,0.6,0.8,0.6
				c2.1-0.1,4.6-1.5,6.5-2.4c0.8-0.4,0.2-1.7-0.6-1.4c-0.9,0.3-1.8,0.8-2.8,1.1c-2,0.5-2.3,0.9-2.4-1.2c-0.1-2.6,2.2-5.4,3.2-7.8
				c1.4-3.5,2-6.9,1.6-10.6C412.5,71.7,411.6,71.7,411.6,72.3L411.6,72.3z"/>
		</g>
	</g>
	<g id="XMLID_57_">
		<g id="XMLID_58_">
			<path id="XMLID_59_" class="st11" d="M419,67.2c1.1,0.4,2.3,0.3,3.5,0.4c1.2,0.1,2.5,0.3,3.7,0.4c1.6,0.2,2-2.6,0.4-2.8
				c-2.3-0.4-5.3-1-7.6-0.4C417.8,65.2,417.9,66.8,419,67.2L419,67.2z"/>
		</g>
	</g>
	<g id="XMLID_54_">
		<g id="XMLID_55_">
			<path id="XMLID_56_" class="st11" d="M400.7,67.2c2,0.3,3.9,0,5.9,0.1c1.9,0.1,1.8-2.7,0-2.9c-2.1-0.2-4.4-0.2-6.1,1.1
				C399.9,66,399.8,67.1,400.7,67.2L400.7,67.2z"/>
		</g>
	</g>
	<g id="XMLID_51_">
		<g id="XMLID_52_">
			<path id="XMLID_53_" class="st11" d="M432,77c2-0.2,3.8-1,5.7-1.6c1.8-0.6,3.9-1,5.6-2c0.5-0.3,0.3-1.2-0.3-1.2
				c-1.9,0-3.9,0.8-5.7,1.4c-1.9,0.6-3.8,1.2-5.5,2.2C431.3,76.2,431.4,77.1,432,77L432,77z"/>
		</g>
	</g>
	<g id="XMLID_41_">
		<g id="XMLID_49_">
			<path id="XMLID_50_" class="st10" d="M417.7,62.6c-9-0.6-18.4-0.6-26.2-4.7c-3.8-2-7.2-5.1-7.9-9.1c-0.7-4,2.2-8.6,6.5-8.9
				c0.9-0.1,1.9,0,2.6-0.4c1-0.6,1.1-1.8,1.3-2.9c1-7.1,6.9-14.3,14.7-14.1c6.3,0.1,12.1,5,18.2,3.5c1.9-0.5,3.5-1.5,5.2-2.3
				c5.2-2.5,11.3-3.3,17-2.3c6,1.1,12.4,5.8,11,11.4c-0.5,1.8-1.8,3.5-2.2,5.3c-1.3,6.7,9.4,10,11.5,16.5c1.9,5.9-3.9,11.8-3.5,18
				c0.2,3.4,2.2,7.5-0.4,9.9c-1.4,1.3-3.8,1.6-4.7,3.2c-1.3,2.2,1.1,4.7,1.3,7.2c0.3,3.1-3.3,5.7-6.6,5.4c-3.3-0.3-6.1-2.7-7.4-5.6
				c-1.3-2.8-1.4-6-1.3-9.1c5.6-1.6,9.1-10.9,3.8-13.2c-2.8-1.3-5.8,1.8-6.9,4.4C438.2,66,429.2,62.6,417.7,62.6z"/>
		</g>
		<g id="XMLID_47_">
			<path id="XMLID_48_" class="st10" d="M440.6,76.9c-1.9,4.3-3.7,8.6-5.6,12.8c-0.7,1.7-1.5,3.5-3,4.7c-2.2,1.9-5.4,2-8.2,1.4
				c-2.8-0.6-8.2-2.1-11-1.9c-6.5,0.6-11.3,3.7-11.7,4.5c-0.8,1.6,0.3,4.1,0.4,5.9c0,1.9-0.3,3.8-1.2,5.4c-0.6,1.1-1.6,2-2.4,2.9
				c-2.3,2.5-4.4,5.5-4.2,8.9c0.3,4.6,4.5,7.8,8.3,10.4c2.5,1.6,5,3.3,7.9,3.8c1.9,0.4,3.9,0.2,5.9,0c4.1-0.4,8.3-0.7,12.2-1.9
				c3.9-1.2,7.7-3.3,10.2-6.6c2.1-2.8,3.2-6.3,4.1-9.7c1.6-5.5,3.2-11,3.4-16.7c0.2-5.3-0.8-10.6-1.4-16c-0.5-4.6-0.6-9.3-0.3-14
				c0-0.6,0.1-1.9-0.7-2.1c-0.9-0.1-0.6,1.3-0.7,1.8C442.1,72.9,441.5,74.9,440.6,76.9z"/>
		</g>
		<g id="XMLID_45_">
			<path id="XMLID_46_" class="st3" d="M406.3,101.4c-0.9,1.9-0.4,4.4,1.1,5.8c0.7,0.7,1.6,1.1,2.6,1c0.9-0.1,1.8-0.9,1.7-1.9
				c0-0.3-0.2-0.7,0-1c0.2-0.3,0.6-0.3,0.9-0.4c1.3-0.1,2.8,0,3.4,1.1c0.2,0.3,0.2,0.7,0.4,1.1c0.5,0.8,1.6,0.9,2.5,0.8
				c1.3-0.1,2.6-0.4,3.9-0.9c0.6-0.2,1.3-0.5,1.7-1c0.5-0.5,0.7-1.2,0.5-1.9c-0.2-0.5-0.7-0.9-1.1-1.2
				C419.9,100.2,409.5,94.4,406.3,101.4z"/>
		</g>
		<g id="XMLID_42_">
			<g id="XMLID_43_">
				<path id="XMLID_44_" class="st11" d="M408.2,101.3c2.1,1.3,6.5,1.4,8.5-0.1c0.5-0.4,0.4-1.2-0.3-1.2c-1.3,0-2.6,0.5-3.9,0.6
					c-1.3,0.1-2.7-0.2-4-0.1C408,100.4,407.8,101.1,408.2,101.3L408.2,101.3z"/>
			</g>
		</g>
	</g>
	<g id="XMLID_39_">
		<path id="XMLID_40_" class="st8" d="M464.4,338.8c0,0-2.7-74.3,13.9-79.2s53-3.5,53-3.5l3.3,13.3c0,0-47.7-3.5-54.4,5.6
			c-6.6,9.1,0,64.5,0,64.5L464.4,338.8z"/>
	</g>
	<g id="XMLID_37_">
		<path id="XMLID_38_" class="st3" d="M330.8,229.5l21.3-7.1l18.9,4.8c10.6-2.8,14.2-2.6,35.9-8.2c18.4-4.7,39.5-14.1,39.5-14.1
			l23.9-35.8c10.1,0.9,23.1,21.5,23.1,21.5s-29.1,39.6-37.4,42.3c-8.3,2.8-71.5,10.1-92.7,7.6c-6.7-0.8-18.6-8.1-18.6-8.1l-10.8,2.5
			l-13.1,8.9l-2.3-1.9l5.2-5.7L330.8,229.5z"/>
	</g>
	<g id="XMLID_35_">
		<path id="XMLID_36_" class="st6" d="M487,119.4c0,0,28.5,4.6,28.1,29c-0.3,15.9-22.1,45.5-22.1,45.5s-12-16.6-26.7-21.2
			c0,0,11.5-22.5,12.4-31.7C479.6,131.8,487,119.4,487,119.4z"/>
	</g>
	<g id="XMLID_33_">
		<path id="XMLID_34_" class="st8" d="M286,246.5h83.2v-6.9H283v3.9C283,245.1,284.4,246.5,286,246.5z"/>
	</g>
	<g id="XMLID_31_">
		<rect id="XMLID_32_" x="332.4" y="241.7" class="st2" width="28.7" height="2.2"/>
	</g>
	<g id="XMLID_29_">
		<rect id="XMLID_30_" x="323.9" y="241.7" class="st2" width="4.2" height="2.2"/>
	</g>
	<g id="XMLID_21_">
		<g id="XMLID_26_">
			<polygon id="XMLID_27_" class="st7" points="151.5,217.3 147.6,188.8 149,183.6 152.1,187.9 155.7,217 			"/>
		</g>
		<g id="XMLID_24_">
			<polygon id="XMLID_25_" class="st7" points="170.2,219.2 174.3,190.7 177,186.1 178.8,191.1 174.4,220 			"/>
		</g>
		<g id="XMLID_22_">
			<polygon id="XMLID_23_" class="st7" points="157.2,221.4 157.5,192.2 160,187.6 162.1,192.3 161.7,221.4 			"/>
		</g>
	</g>
	<g id="XMLID_19_">
		<polygon id="XMLID_20_" class="st12" points="174.5,249.5 152.4,249.5 148.4,212.9 177.4,212.9 		"/>
	</g>
	<g id="XMLID_17_">
		<polygon id="XMLID_18_" class="st8" points="459.5,526.3 464.8,526.3 405.2,267.1 394,267.1 		"/>
	</g>
	<g id="XMLID_15_">
		<polygon id="XMLID_16_" class="st8" points="298.1,523.6 303.4,523.6 341.7,267.1 330.5,267.1 		"/>
	</g>
	<g id="XMLID_13_">
		<polygon id="XMLID_14_" class="st8" points="217.8,525.2 223.1,525.2 181,267.1 169.8,267.1 		"/>
	</g>
	<g id="XMLID_11_">
		<polygon id="XMLID_12_" class="st8" points="69.4,522.4 74.7,522.4 125.4,267.1 114.2,267.1 		"/>
	</g>
	<g id="XMLID_9_">
		<rect id="XMLID_10_" x="157.5" y="255.6" class="st13" width="279.4" height="11.6"/>
	</g>
	<g id="XMLID_7_">
		<rect id="XMLID_8_" x="67.9" y="255.6" class="st14" width="257.7" height="11.6"/>
	</g>
	<g id="XMLID_5_">
		<rect id="XMLID_6_" x="163.7" y="245.9" class="st14" width="298.9" height="15.5"/>
	</g>
	<g id="XMLID_3_">
		<rect id="XMLID_4_" x="28.7" y="245.9" class="st15" width="277.1" height="15.5"/>
	</g>
</g>
</svg>
