<?xml version="1.0" encoding="utf-8"?>
<!-- Generator: Adobe Illustrator 19.0.0, SVG Export Plug-In . SVG Version: 6.00 Build 0)  -->
<svg version="1.1" id="Layer_1" xmlns="http://www.w3.org/2000/svg" xmlns:xlink="http://www.w3.org/1999/xlink" x="0px" y="0px"
	 viewBox="0 0 322.5 324" style="enable-background:new 0 0 322.5 324;" xml:space="preserve">
<style type="text/css">
	.st0{fill:#007BFF;}
	.st1{fill:#01C8DA;}
</style>
<g>
	<path class="st0" d="M195.6,160.9c0.2,11.5-3.9,20.6-12.3,27.3c-40,31.8-80,63.6-120.3,95.1c-19.2,15-45.5,7.4-53.5-14.8
		c-4.8-13.6-0.7-28.2,10.7-37.3c27.7-22,55.3-44.1,83.2-65.9c3.9-3,3.3-4.3-0.1-6.9C76,136.8,48.8,115.2,21.5,93.5
		C10,84.3,5,72.5,8.7,57.9C12.2,44.2,21.5,36,35.2,33.2c10-2.1,19.4,0.4,27.4,6.7c39.8,31.4,79.5,62.9,119.3,94.4
		C190.7,141.2,195.7,150.1,195.6,160.9z"/>
	<path class="st1" d="M274.1,291.1c-13.5,0.1-26.9,0.3-40.4,0.3c-44.7,0-89.5,0-134.2,0c-2.1,0-5,1.1-6.1-1.6
		c-1.3-3.1,1.6-4.2,3.5-5.7c24-19,48.1-37.9,72-57c2.3-1.9,4.6-3.1,7.8-3.1c30.9,0.1,61.7,0,92.6,0.1c0.8,0,1.6,0.3,2.4,0.4
		c-1.1,0.5-2.2,0.9-3.3,1.4c-15.3,6-23.8,20.5-21.3,36.8C249.5,278.3,259.3,287,274.1,291.1z"/>
	<path class="st0" d="M274.1,291.1c-14.7-4.1-24.6-12.8-27-28.5c-2.5-16.3,6-30.8,21.3-36.8c1.1-0.4,2.2-0.9,3.3-1.4
		c15.1-1.9,28.5,1,37.4,14.6c7.3,11.1,7.7,22.9,1.5,34.5c-6.1,11.4-16.2,17.1-29.1,17.7C279,291.4,276.6,291.1,274.1,291.1z"/>
</g>
</svg>
