<?xml version="1.0" encoding="utf-8"?>
<!-- Generator: Adobe Illustrator 23.0.3, SVG Export Plug-In . SVG Version: 6.00 Build 0)  -->
<svg version="1.1" id="Слой_1" xmlns="http://www.w3.org/2000/svg" xmlns:xlink="http://www.w3.org/1999/xlink" x="0px" y="0px"
	 viewBox="0 0 664.7 454.5" style="enable-background:new 0 0 664.7 454.5;" xml:space="preserve">
<style type="text/css">
	.st0{fill:url(#SVGID_1_);}
	.st1{fill:url(#SVGID_2_);}
	.st2{fill:#64A4FF;}
	.st3{fill:#BBD070;}
	.st4{fill:#97A43C;}
	.st5{fill:#48753A;}
	.st6{fill:#DBD8E3;}
	.st7{fill:#323657;}
	.st8{fill:#EEA987;}
	.st9{fill:#E8734D;}
	.st10{fill:#C4C1CC;}
	.st11{fill:#EFAA88;}
	.st12{fill:#EEA886;}
	.st13{fill:#16202E;}
	.st14{fill:#A77860;}
	.st15{fill:#4DA8F2;}
	.st16{fill:#FFC955;}
	.st17{clip-path:url(#SVGID_4_);fill:#96CBFF;}
	.st18{clip-path:url(#SVGID_4_);fill:#95CAFF;}
	.st19{clip-path:url(#SVGID_4_);fill:#94C9FF;}
	.st20{clip-path:url(#SVGID_4_);fill:#93C9FF;}
	.st21{clip-path:url(#SVGID_4_);fill:#92C8FF;}
	.st22{clip-path:url(#SVGID_4_);fill:#91C7FF;}
	.st23{clip-path:url(#SVGID_4_);fill:#90C6FF;}
	.st24{clip-path:url(#SVGID_4_);fill:#8FC6FF;}
	.st25{clip-path:url(#SVGID_4_);fill:#8EC5FF;}
	.st26{clip-path:url(#SVGID_4_);fill:#8DC4FF;}
	.st27{clip-path:url(#SVGID_4_);fill:#8CC3FF;}
	.st28{clip-path:url(#SVGID_4_);fill:#8BC2FF;}
	.st29{clip-path:url(#SVGID_4_);fill:#8AC2FF;}
	.st30{clip-path:url(#SVGID_4_);fill:#89C1FF;}
	.st31{clip-path:url(#SVGID_4_);fill:#88C0FF;}
	.st32{clip-path:url(#SVGID_4_);fill:#87BFFF;}
	.st33{clip-path:url(#SVGID_4_);fill:#86BFFF;}
	.st34{clip-path:url(#SVGID_4_);fill:#85BEFF;}
	.st35{clip-path:url(#SVGID_4_);fill:#84BDFF;}
	.st36{clip-path:url(#SVGID_4_);fill:#83BCFF;}
	.st37{clip-path:url(#SVGID_4_);fill:#82BBFF;}
	.st38{clip-path:url(#SVGID_4_);fill:#81BBFF;}
	.st39{clip-path:url(#SVGID_4_);fill:#80BAFF;}
	.st40{clip-path:url(#SVGID_4_);fill:#7FB9FF;}
	.st41{clip-path:url(#SVGID_4_);fill:#7EB8FF;}
	.st42{clip-path:url(#SVGID_4_);fill:#7DB7FF;}
	.st43{clip-path:url(#SVGID_4_);fill:#7CB7FF;}
	.st44{clip-path:url(#SVGID_4_);fill:#7BB6FF;}
	.st45{clip-path:url(#SVGID_4_);fill:#7AB5FF;}
	.st46{clip-path:url(#SVGID_4_);fill:#79B4FF;}
	.st47{clip-path:url(#SVGID_4_);fill:#78B4FF;}
	.st48{clip-path:url(#SVGID_4_);fill:#77B3FF;}
	.st49{clip-path:url(#SVGID_4_);fill:#76B2FF;}
	.st50{clip-path:url(#SVGID_4_);fill:#74B1FF;}
	.st51{clip-path:url(#SVGID_4_);fill:#73B0FF;}
	.st52{clip-path:url(#SVGID_4_);fill:#72B0FF;}
	.st53{clip-path:url(#SVGID_4_);fill:#71AFFF;}
	.st54{clip-path:url(#SVGID_4_);fill:#70AEFF;}
	.st55{clip-path:url(#SVGID_4_);fill:#6FADFF;}
	.st56{clip-path:url(#SVGID_4_);fill:#6EADFF;}
	.st57{clip-path:url(#SVGID_4_);fill:#6DACFF;}
	.st58{clip-path:url(#SVGID_4_);fill:#6CABFF;}
	.st59{clip-path:url(#SVGID_4_);fill:#6BAAFF;}
	.st60{clip-path:url(#SVGID_4_);fill:#6AA9FF;}
	.st61{clip-path:url(#SVGID_4_);fill:#69A9FF;}
	.st62{clip-path:url(#SVGID_4_);fill:#68A8FF;}
	.st63{clip-path:url(#SVGID_4_);fill:#67A7FF;}
	.st64{clip-path:url(#SVGID_4_);fill:#66A6FF;}
	.st65{clip-path:url(#SVGID_4_);fill:#65A6FF;}
	.st66{clip-path:url(#SVGID_4_);fill:#64A5FF;}
	.st67{clip-path:url(#SVGID_4_);fill:#63A4FF;}
	.st68{clip-path:url(#SVGID_4_);fill:#62A3FF;}
	.st69{clip-path:url(#SVGID_4_);fill:#61A2FF;}
	.st70{clip-path:url(#SVGID_4_);fill:#60A2FF;}
	.st71{clip-path:url(#SVGID_4_);fill:#5FA1FF;}
	.st72{clip-path:url(#SVGID_4_);fill:#5EA0FF;}
	.st73{clip-path:url(#SVGID_4_);fill:#5D9FFF;}
	.st74{clip-path:url(#SVGID_4_);fill:#5C9EFF;}
	.st75{clip-path:url(#SVGID_4_);fill:#5B9EFF;}
	.st76{clip-path:url(#SVGID_4_);fill:#5A9DFF;}
	.st77{clip-path:url(#SVGID_4_);fill:#599CFF;}
	.st78{clip-path:url(#SVGID_4_);fill:#589BFF;}
	.st79{clip-path:url(#SVGID_4_);fill:#579BFF;}
	.st80{clip-path:url(#SVGID_4_);fill:#569AFF;}
	.st81{clip-path:url(#SVGID_4_);fill:#5599FF;}
	.st82{fill:#CFA345;}
	.st83{fill:#6069A8;}
	.st84{fill:#202338;}
	.st85{fill:#464240;}
	.st86{fill:#EB4747;}
	.st87{fill:#5F8CC9;}
	.st88{fill:#5E5853;}
	.st89{fill:#91887F;}
	.st90{fill:#EDDAD3;}
	.st91{fill:#6E6760;}
	.st92{fill:#807066;}
	.st93{fill:#FFCB55;}
	.st94{fill:#CF8C6C;}
	.st95{fill:#3B3F66;}
	.st96{fill:#555C94;}
	.st97{fill:#354C70;}
	.st98{fill:#DEB135;}
	.st99{fill:#F2C344;}
	.st100{fill:#D9D0C4;}
	.st101{fill:#84BDFF;}
	.st102{fill:#FFD255;}
	.st103{fill:#3C5780;}
	.st104{fill:#C48A6F;}
	.st105{clip-path:url(#SVGID_6_);fill:#96CBFF;}
	.st106{clip-path:url(#SVGID_6_);fill:#95CAFF;}
	.st107{clip-path:url(#SVGID_6_);fill:#94C9FF;}
	.st108{clip-path:url(#SVGID_6_);fill:#93C9FF;}
	.st109{clip-path:url(#SVGID_6_);fill:#92C8FF;}
	.st110{clip-path:url(#SVGID_6_);fill:#91C7FF;}
	.st111{clip-path:url(#SVGID_6_);fill:#90C6FF;}
	.st112{clip-path:url(#SVGID_6_);fill:#8FC6FF;}
	.st113{clip-path:url(#SVGID_6_);fill:#8EC5FF;}
	.st114{clip-path:url(#SVGID_6_);fill:#8DC4FF;}
	.st115{clip-path:url(#SVGID_6_);fill:#8CC3FF;}
	.st116{clip-path:url(#SVGID_6_);fill:#8BC2FF;}
	.st117{clip-path:url(#SVGID_6_);fill:#8AC2FF;}
	.st118{clip-path:url(#SVGID_6_);fill:#89C1FF;}
	.st119{clip-path:url(#SVGID_6_);fill:#88C0FF;}
	.st120{clip-path:url(#SVGID_6_);fill:#87BFFF;}
	.st121{clip-path:url(#SVGID_6_);fill:#86BFFF;}
	.st122{clip-path:url(#SVGID_6_);fill:#85BEFF;}
	.st123{clip-path:url(#SVGID_6_);fill:#84BDFF;}
	.st124{clip-path:url(#SVGID_6_);fill:#83BCFF;}
	.st125{clip-path:url(#SVGID_6_);fill:#82BBFF;}
	.st126{clip-path:url(#SVGID_6_);fill:#81BBFF;}
	.st127{clip-path:url(#SVGID_6_);fill:#80BAFF;}
	.st128{clip-path:url(#SVGID_6_);fill:#7FB9FF;}
	.st129{clip-path:url(#SVGID_6_);fill:#7EB8FF;}
	.st130{clip-path:url(#SVGID_6_);fill:#7DB7FF;}
	.st131{clip-path:url(#SVGID_6_);fill:#7CB7FF;}
	.st132{clip-path:url(#SVGID_6_);fill:#7BB6FF;}
	.st133{clip-path:url(#SVGID_6_);fill:#7AB5FF;}
	.st134{clip-path:url(#SVGID_6_);fill:#79B4FF;}
	.st135{clip-path:url(#SVGID_6_);fill:#78B4FF;}
	.st136{clip-path:url(#SVGID_6_);fill:#77B3FF;}
	.st137{clip-path:url(#SVGID_6_);fill:#76B2FF;}
	.st138{clip-path:url(#SVGID_6_);fill:#74B1FF;}
	.st139{clip-path:url(#SVGID_6_);fill:#73B0FF;}
	.st140{clip-path:url(#SVGID_6_);fill:#72B0FF;}
	.st141{clip-path:url(#SVGID_6_);fill:#71AFFF;}
	.st142{clip-path:url(#SVGID_6_);fill:#70AEFF;}
	.st143{clip-path:url(#SVGID_6_);fill:#6FADFF;}
	.st144{clip-path:url(#SVGID_6_);fill:#6EADFF;}
	.st145{clip-path:url(#SVGID_6_);fill:#6DACFF;}
	.st146{clip-path:url(#SVGID_6_);fill:#6CABFF;}
	.st147{clip-path:url(#SVGID_6_);fill:#6BAAFF;}
	.st148{clip-path:url(#SVGID_6_);fill:#6AA9FF;}
	.st149{clip-path:url(#SVGID_6_);fill:#69A9FF;}
	.st150{clip-path:url(#SVGID_6_);fill:#68A8FF;}
	.st151{clip-path:url(#SVGID_6_);fill:#67A7FF;}
	.st152{clip-path:url(#SVGID_6_);fill:#66A6FF;}
	.st153{clip-path:url(#SVGID_6_);fill:#65A6FF;}
	.st154{clip-path:url(#SVGID_6_);fill:#64A5FF;}
	.st155{clip-path:url(#SVGID_6_);fill:#63A4FF;}
	.st156{clip-path:url(#SVGID_6_);fill:#62A3FF;}
	.st157{clip-path:url(#SVGID_6_);fill:#61A2FF;}
	.st158{clip-path:url(#SVGID_6_);fill:#60A2FF;}
	.st159{clip-path:url(#SVGID_6_);fill:#5FA1FF;}
	.st160{clip-path:url(#SVGID_6_);fill:#5EA0FF;}
	.st161{clip-path:url(#SVGID_6_);fill:#5D9FFF;}
	.st162{clip-path:url(#SVGID_6_);fill:#5C9EFF;}
	.st163{clip-path:url(#SVGID_6_);fill:#5B9EFF;}
	.st164{clip-path:url(#SVGID_6_);fill:#5A9DFF;}
	.st165{clip-path:url(#SVGID_6_);fill:#599CFF;}
	.st166{clip-path:url(#SVGID_6_);fill:#589BFF;}
	.st167{clip-path:url(#SVGID_6_);fill:#579BFF;}
	.st168{clip-path:url(#SVGID_6_);fill:#569AFF;}
	.st169{clip-path:url(#SVGID_6_);fill:#5599FF;}
	.st170{fill:#DB9C7C;}
	.st171{clip-path:url(#SVGID_8_);fill:#96CBFF;}
	.st172{clip-path:url(#SVGID_8_);fill:#95CAFF;}
	.st173{clip-path:url(#SVGID_8_);fill:#94C9FF;}
	.st174{clip-path:url(#SVGID_8_);fill:#93C9FF;}
	.st175{clip-path:url(#SVGID_8_);fill:#92C8FF;}
	.st176{clip-path:url(#SVGID_8_);fill:#91C7FF;}
	.st177{clip-path:url(#SVGID_8_);fill:#90C6FF;}
	.st178{clip-path:url(#SVGID_8_);fill:#8FC6FF;}
	.st179{clip-path:url(#SVGID_8_);fill:#8EC5FF;}
	.st180{clip-path:url(#SVGID_8_);fill:#8DC4FF;}
	.st181{clip-path:url(#SVGID_8_);fill:#8CC3FF;}
	.st182{clip-path:url(#SVGID_8_);fill:#8BC2FF;}
	.st183{clip-path:url(#SVGID_8_);fill:#8AC2FF;}
	.st184{clip-path:url(#SVGID_8_);fill:#89C1FF;}
	.st185{clip-path:url(#SVGID_8_);fill:#88C0FF;}
	.st186{clip-path:url(#SVGID_8_);fill:#87BFFF;}
	.st187{clip-path:url(#SVGID_8_);fill:#86BFFF;}
	.st188{clip-path:url(#SVGID_8_);fill:#85BEFF;}
	.st189{clip-path:url(#SVGID_8_);fill:#84BDFF;}
	.st190{clip-path:url(#SVGID_8_);fill:#83BCFF;}
	.st191{clip-path:url(#SVGID_8_);fill:#82BBFF;}
	.st192{clip-path:url(#SVGID_8_);fill:#81BBFF;}
	.st193{clip-path:url(#SVGID_8_);fill:#80BAFF;}
	.st194{clip-path:url(#SVGID_8_);fill:#7FB9FF;}
	.st195{clip-path:url(#SVGID_8_);fill:#7EB8FF;}
	.st196{clip-path:url(#SVGID_8_);fill:#7DB7FF;}
	.st197{clip-path:url(#SVGID_8_);fill:#7CB7FF;}
	.st198{clip-path:url(#SVGID_8_);fill:#7BB6FF;}
	.st199{clip-path:url(#SVGID_8_);fill:#7AB5FF;}
	.st200{clip-path:url(#SVGID_8_);fill:#79B4FF;}
	.st201{clip-path:url(#SVGID_8_);fill:#78B4FF;}
	.st202{clip-path:url(#SVGID_8_);fill:#77B3FF;}
	.st203{clip-path:url(#SVGID_8_);fill:#76B2FF;}
	.st204{clip-path:url(#SVGID_8_);fill:#74B1FF;}
	.st205{clip-path:url(#SVGID_8_);fill:#73B0FF;}
	.st206{clip-path:url(#SVGID_8_);fill:#72B0FF;}
	.st207{clip-path:url(#SVGID_8_);fill:#71AFFF;}
	.st208{clip-path:url(#SVGID_8_);fill:#70AEFF;}
	.st209{clip-path:url(#SVGID_8_);fill:#6FADFF;}
	.st210{clip-path:url(#SVGID_8_);fill:#6EADFF;}
	.st211{clip-path:url(#SVGID_8_);fill:#6DACFF;}
	.st212{clip-path:url(#SVGID_8_);fill:#6CABFF;}
	.st213{clip-path:url(#SVGID_8_);fill:#6BAAFF;}
	.st214{clip-path:url(#SVGID_8_);fill:#6AA9FF;}
	.st215{clip-path:url(#SVGID_8_);fill:#69A9FF;}
	.st216{clip-path:url(#SVGID_8_);fill:#68A8FF;}
	.st217{clip-path:url(#SVGID_8_);fill:#67A7FF;}
	.st218{clip-path:url(#SVGID_8_);fill:#66A6FF;}
	.st219{clip-path:url(#SVGID_8_);fill:#65A6FF;}
	.st220{clip-path:url(#SVGID_8_);fill:#64A5FF;}
	.st221{clip-path:url(#SVGID_8_);fill:#63A4FF;}
	.st222{clip-path:url(#SVGID_8_);fill:#62A3FF;}
	.st223{clip-path:url(#SVGID_8_);fill:#61A2FF;}
	.st224{clip-path:url(#SVGID_8_);fill:#60A2FF;}
	.st225{clip-path:url(#SVGID_8_);fill:#5FA1FF;}
	.st226{clip-path:url(#SVGID_8_);fill:#5EA0FF;}
	.st227{clip-path:url(#SVGID_8_);fill:#5D9FFF;}
	.st228{clip-path:url(#SVGID_8_);fill:#5C9EFF;}
	.st229{clip-path:url(#SVGID_8_);fill:#5B9EFF;}
	.st230{clip-path:url(#SVGID_8_);fill:#5A9DFF;}
	.st231{clip-path:url(#SVGID_8_);fill:#599CFF;}
	.st232{clip-path:url(#SVGID_8_);fill:#589BFF;}
	.st233{clip-path:url(#SVGID_8_);fill:#579BFF;}
	.st234{clip-path:url(#SVGID_8_);fill:#569AFF;}
	.st235{clip-path:url(#SVGID_8_);fill:#5599FF;}
	.st236{fill:#293B57;}
	.st237{fill:#E3F2FF;}
	.st238{fill:#EBEBEB;}
	.st239{fill:#162D40;}
	.st240{fill:#1D3B54;}
	.st241{fill:#D1C0BA;}
	.st242{fill:#FAE6DE;}
	.st243{fill:#54281A;}
	.st244{fill:#366E9C;}
	.st245{fill:#5C544D;}
	.st246{fill:#3C4145;}
	.st247{fill:#FCCCA2;}
	.st248{fill:#E2D2CA;}
	.st249{fill:#63A4FF;}
	.st250{fill:#F25F54;}
	.st251{fill:#C98462;}
	.st252{fill:#DE9D7D;}
	.st253{fill:#252E3B;}
	.st254{fill:#88C0FF;}
	.st255{fill:#5FA0FF;}
	.st256{fill:#5189DB;}
	.st257{fill:#C2BEBC;}
	.st258{fill:#D6D6D6;}
	.st259{fill:#E8E8E8;}
	.st260{fill:#C2C2C2;}
</style>
<g>
	<g>
		<linearGradient id="SVGID_1_" gradientUnits="userSpaceOnUse" x1="458.5742" y1="283.5448" x2="638.0717" y2="283.5448">
			<stop  offset="0" style="stop-color:#96CBFF"/>
			<stop  offset="1" style="stop-color:#5599FF"/>
		</linearGradient>
		<path class="st0" d="M614.6,323.4c3.8-6.2,6.5-12.9,8.4-19.7l14.8-2.8l0.2-16.4l0.2-16.4l-14.8-3.1c-1.7-6.9-4.4-13.6-8-19.9
			l8.5-12.5l-11.5-11.7l-11.5-11.7l-12.6,8.2c-6.2-3.8-12.9-6.5-19.7-8.4l-2.8-14.8l-16.4-0.2l-16.4-0.2l-3.1,14.8
			c-6.9,1.7-13.6,4.4-19.9,8l-12.5-8.5l-11.7,11.5l-11.7,11.5l8.2,12.6c-3.8,6.2-6.5,12.9-8.4,19.7l-14.8,2.8l-0.2,16.4l-0.2,16.4
			l14.8,3.1c1.7,6.9,4.4,13.6,8,19.9l-8.5,12.5l11.5,11.7l11.5,11.7l12.6-8.2c6.2,3.8,12.9,6.5,19.7,8.4l2.8,14.8l16.4,0.2l16.4,0.2
			l3.1-14.8c6.9-1.7,13.6-4.4,19.9-8l12.5,8.5l11.7-11.5l11.7-11.5L614.6,323.4z M519.6,311.7c-15.6-15.9-15.3-41.3,0.5-56.9
			c15.9-15.6,41.3-15.3,56.9,0.5c15.6,15.9,15.3,41.3-0.5,56.9C560.6,327.8,535.2,327.6,519.6,311.7z"/>
		
			<linearGradient id="SVGID_2_" gradientUnits="userSpaceOnUse" x1="-124.4662" y1="836.3155" x2="9.5633" y2="836.3155" gradientTransform="matrix(0.9948 -0.1022 0.1022 0.9948 144.4458 -671.4432)">
			<stop  offset="0" style="stop-color:#96CBFF"/>
			<stop  offset="1" style="stop-color:#5599FF"/>
		</linearGradient>
		<path class="st1" d="M225,190.9c2.3-4.9,3.9-10.1,4.7-15.3l10.8-3.2l-1.1-12.2l-1.1-12.2l-11.2-1.2c-1.8-5-4.3-9.8-7.5-14.2
			l5.3-9.9l-9.4-7.8l-9.4-7.8l-8.8,7.1c-4.9-2.3-10.1-3.9-15.3-4.7l-3.2-10.8l-12.2,1.1l-12.2,1.1l-1.2,11.2
			c-5,1.8-9.8,4.3-14.2,7.5l-9.9-5.3l-7.8,9.4l-7.8,9.4l7.1,8.8c-2.3,4.9-3.9,10.1-4.7,15.3l-10.8,3.2l1.1,12.2l1.1,12.2l11.2,1.2
			c1.8,5,4.3,9.8,7.5,14.2l-5.3,9.9l9.4,7.8l9.4,7.8l8.8-7.1c4.9,2.3,10.1,3.9,15.3,4.7l3.2,10.8L179,233l12.2-1.1l1.2-11.2
			c5-1.8,9.8-4.3,14.2-7.5l9.9,5.3l7.8-9.4l7.8-9.4L225,190.9z M153.6,189.5c-12.8-10.6-14.5-29.5-3.9-42.3
			c10.6-12.8,29.5-14.5,42.3-3.9c12.8,10.6,14.5,29.5,3.9,42.3C185.3,198.3,166.4,200.1,153.6,189.5z"/>
		<g>
			<path class="st2" d="M586.9,437.6h-1v-73.1c0-16.3-13.2-29.5-29.5-29.5h-75.2c-16.8,0-30.5-13.7-30.5-30.5V167.9
				c0-16.3-13.2-29.5-29.5-29.5H229.5v-1h191.7c16.8,0,30.5,13.7,30.5,30.5v136.6c0,16.3,13.2,29.5,29.5,29.5h75.2
				c16.8,0,30.5,13.7,30.5,30.5V437.6z"/>
		</g>
		<g>
			<g>
				<g>
					<g>
						<g>
							<path class="st3" d="M278.6,91.1c0,0,11.6,46.2-16.3,58.8c-27.9,12.6-22.5-10.5-22.5-10.5s-11.4-3.2,19.7-20.8
								C274.2,110.3,278.6,91.1,278.6,91.1z"/>
						</g>
					</g>
				</g>
			</g>
			<g>
				<g>
					<g>
						<g>
							<path class="st4" d="M351.6,95.1c0,0,5.7,40.3-47,57.7c-52.7,17.4-60.2,39.5-60.2,39.5S242.7,103,351.6,95.1z"/>
						</g>
					</g>
				</g>
			</g>
			<g>
				<g>
					<g>
						<g>
							<path class="st5" d="M244.1,175.9c-15.6-6,21.5-38,50.1-37.1c28.6,0.9,47.9,11.4,67.1,7C361.2,145.7,321.1,205.3,244.1,175.9
								z"/>
						</g>
					</g>
				</g>
			</g>
		</g>
		<g>
			<g>
				<g>
					<path class="st6" d="M296.6,202.6c0.9-12.1,1.5-23.5,1.9-34.1c-2.9-1.6-6.5-3.4-9.3-4.7c-8.7-4.2-20.9-9.8-28.7-13.3
						c-4.6-2.1-9-3.6-9-3.6s-31.2-3-33.7-2.8c-0.8,0-4.7,1.4-9.8,3.4c-11.1,4.2-32.4,12.7-35.8,15.2c-5,3.6-22.8,90.9-23.3,96.8
						c-0.5,5.8,24.2,13.6,47.1,19.7c0,8.9-0.2,21.3-0.4,32.6c0,1.9-0.1,3.8-0.1,5.7h100c-0.1-1.9-0.3-3.9-0.3-5.7c0-0.2,0-0.5,0-0.7
						c-0.4-7.7-1.9-21.4-1.5-34.8c0,0-0.2-14.1,1.2-20.2C295,229.1,296.6,202.6,296.6,202.6z M169.8,254
						c0.2-11.4,15.3-32.5,15.3-32.5s0.7-0.3,0.7-0.3c0,0,0.8-0.1,0.8-0.1c0,0,2.4-2.2,2.4-2.2c0.6,2,5.6,30.6,6.8,47.2
						C181.5,263.3,169.7,259.4,169.8,254z"/>
				</g>
			</g>
			<g>
				<g>
					<path class="st7" d="M298.5,311.6c-0.7-4.7-1.3-9.5-1.8-14.1c0,0,0,0,0-0.1c-0.2-1.5-0.4-3.1-0.5-4.6c0-0.1,0-0.2,0-0.2
						c-0.7-6.4-1.3-12.5-1.8-18.1c-0.3-4.3,0-8.5,0.6-12.6c1.7-28.7,2.6-58.9,2.6-58.9c0.9-12.4,1.4-23.9,1.8-34.7
						c0,0-39.2-18.5-42.7-19.6c0,0,7.4,17.4,13,56.4c2.1,15,6.1,40.2,9,65.9v0c1.6,13.9,4.5,28,6.7,40.5c0.3,1.9,0.7,3.8,1,5.7h13.1
						C299,315.4,298.7,313.5,298.5,311.6z"/>
				</g>
			</g>
			<g>
				<g>
					<path class="st7" d="M233.3,265.6c1.5-14.5,2.9-29,2.3-36.9c-5.4-63.7-20.7-80.6-22.9-83c-1.7,0.7-8.2,3.1-10.1,3.9
						c-10.5,4.1-31.8,11.7-34.6,13.7c-5,3.6-24.6,95.1-25.2,101c-0.4,4,25.2,12.4,51.3,19.8c-0.2,7.2,0.4,17.3-1.9,27.8
						c-0.4,1.9-1,3.1-1.1,5.5l36.4-0.1c0.2-1.9,0.5-3.8,0.7-5.7c0.7-5.7,1.4-11.5,2.1-17.7c10.9,2.8,18.4,4.6,18.4,4.6
						s10.3-17.3,13.2-24.4C262.3,273,249.1,269.8,233.3,265.6z M186.2,243.6c-0.3-13-0.3-22.1-0.3-22.1c1.3,4.5,3.1,17.2,4.6,29.9
						C185.2,248.8,186.2,246.3,186.2,243.6z"/>
				</g>
			</g>
			<g>
				<g>
					<path class="st8" d="M216.1,145c0,0,4-7.5,2.9-28.8c-0.3-5.9,31,14,31,14s-0.1,2-0.2,4.8c0,1.1-0.1,2.4-0.1,3.7
						c0,0.4,0,0.7,0,1.1c0,0.6,0,1.2,0,1.7c0,0.7,0,1.4,0.1,2.1c0,0.8,0.1,1.5,0.2,2.2c0.1,1.3,0.9,3.6,1.2,4.2
						C252.6,153.2,227.8,153.4,216.1,145z"/>
				</g>
			</g>
			<g>
				<path class="st9" d="M242.4,158.5l5.8,7.7c0,0-3.4,4.5-9.4,1.2L242.4,158.5z"/>
			</g>
			<g>
				<path class="st9" d="M246.6,166.6c0,0,21.1,51.6,16.6,117.1l-6.7,12.1l-7.5-10.3c0,0-1.2-87-7.2-119.1L246.6,166.6z"/>
			</g>
			<g>
				<path class="st8" d="M248.5,151.3l-6.2,7.2c0,0-9.9-1.9-12.8-7.1C226.6,146.3,248.5,151.3,248.5,151.3z"/>
			</g>
			<g>
				<path class="st10" d="M249.9,145c0,0-0.7,5.5-7.6,13.5l7.5,10.1l4.1-20.9L249.9,145z"/>
			</g>
			<g>
				<path class="st10" d="M218,138.4c0,0,14.3,16.2,24.3,20.2l-4.7,11.5l-22.8-25.2L218,138.4z"/>
			</g>
			<g>
				<g>
					<path class="st7" d="M365.2,284.9c0,0-19-18.4-31.5-21.5c-5.8-1.4-13.4-9.4-20.6-18.7c-2.4-3.1-4.7-6.3-6.9-9.5c0,0,0,0,0,0
						c-8.8-12.8-15.8-25-15.8-25s-26.2-30.6-5.2-44.3c0,0,9-0.2,13.9,2.5c5.1,2.8,15.9,25.3,17.7,29.3c1.8,4,21.7,41.1,23,42
						c1.3,0.8,3.5,3.9,11.5,8.2c9.7,5.2,25,20.6,25,20.6L365.2,284.9z"/>
				</g>
			</g>
			<g>
				<path class="st11" d="M274,306.2c0,0-2.7-0.1-3.8-0.7c0,0-2-1.3-3.5-2.1c-0.5-0.3-0.9-0.5-1.2-0.6c-1.2-0.5-3.9-1.1-6.4-3
					c-2.5-1.9-10.6-9.5-10.6-9.5l5.3-8.1l2.4-8c0,0,19,1.9,21.5,3.4c0.2,0.1,0.5,0.3,0.7,0.5c2,1.5,2.9,3.4,3.9,4.3
					c0.4,0.3,3.7,3.9,3.5,5.3c-0.3,2-1.2,3.3-2.5,3.9c0,0-0.7,3.9-2.7,5.6c0,0-0.5,3.6-3.6,5C277.1,302.2,276.1,305.8,274,306.2z"/>
			</g>
			<g>
				<path class="st12" d="M243.7,61.3c0,0,34.3-8.3,27.1,35.2c-7.2,43.5-15.5,47-36.4,38.3c-20.9-8.7-19.5-36.5-20.7-50.1
					C212.5,71.2,232.8,62,243.7,61.3z"/>
			</g>
			<g>
				<path class="st12" d="M225.7,91.4c-0.5-3.8-8.1-5.1-8.6,0.6c-0.5,5.7,3.7,15.7,6.5,14.7C226.5,105.8,226.4,96.7,225.7,91.4z"/>
			</g>
			<g>
				<path class="st13" d="M215.8,107c0,0,0.7-13.7,5.7-14.2c5-0.5,5.8,5,5.8,5l5.1,0.9c0,0-1.8-11.9,3.2-14.1
					c5-2.2,32.4,6.1,36.3,2.5c3.9-3.6,1.7-27.8-5.6-31c-7.3-3.2-27.4-10.4-41.8-0.3c0,0-11.4-1.1-13,8.1
					C209.9,73.2,212.6,100.2,215.8,107z"/>
			</g>
			<g>
				<path class="st7" d="M262.7,274.2l-14.2,24.4c0,0-37.6-9.7-46.3-12.1l20-23.8C222.3,262.5,251.8,269.3,262.7,274.2z"/>
			</g>
			<g>
				<path class="st14" d="M249.8,143.6L249.8,143.6c-18.4-1.9-25.6-16.1-25.6-16.1c11.6,11.5,25.5,11.2,25.5,11.2c0,0.4,0,0.7,0,1.1
					c0,0.6,0,1.2,0,1.7C249.8,142.2,249.8,142.9,249.8,143.6z"/>
			</g>
		</g>
		<g>
			<path class="st15" d="M504.1,359.6c-1-1.3-2.6-2.2-4.4-2.2c-2.5,0-4.6,1.6-5.4,3.8l0,0l0,0c-0.2,0.5-0.3,1.1-0.3,1.7
				c0,0.7,0.1,1.4,0.3,2c0.4,1,1,1.9,1.8,2.5c0.8,0.6,1.8,1,2.9,1.1c0.1,0,0.3,0,0.4,0c0.1,0,0.2,0,0.3,0c0,0,0.1,0,0.1,0
				c0.6,0,1.1-0.1,1.6-0.3c2.1-0.8,3.7-2.8,3.7-5.2C505.3,361.7,504.8,360.5,504.1,359.6z M501.1,366.9L501.1,366.9
				c-0.4,0.1-0.8,0.2-1.2,0.2l0,0c-0.1,0-0.2,0-0.3,0c-0.4,0-0.8-0.1-1.1-0.2c-0.5-0.1-1-0.4-1.4-0.7c-0.1-0.1-0.3-0.2-0.4-0.4
				c-0.8-0.8-1.2-1.8-1.2-3c0-0.3,0-0.6,0.1-0.9c0-0.1,0.1-0.3,0.1-0.4c0.6-1.7,2.2-2.9,4-2.9c1.3,0,2.5,0.7,3.3,1.7
				c0.6,0.7,0.9,1.6,0.9,2.6C503.8,364.8,502.7,366.3,501.1,366.9z"/>
		</g>
		<g>
			<path class="st12" d="M289.4,254.1c21.3,22,49.5,49.6,49.5,49.6l11-20.9c0,0-25-29.4-42-49C302.7,236.4,293.2,242.5,289.4,254.1z
				"/>
		</g>
		<g>
			<g>
				<path class="st12" d="M276.2,283.7c0,0,5.7,2.8,7.2,4c1.5,1.2,7.6,5.8,9.1,6.9c1.5,1.1-2.2,4.1-13.1-0.6
					C268.5,289.2,276.2,283.7,276.2,283.7z"/>
			</g>
		</g>
		<g>
			<polygon class="st16" points="276.7,220.8 266.7,313.9 398.5,313.9 408.5,220.8 			"/>
		</g>
		<g>
			<path class="st16" d="M406,309.6H273.2l10.1-94.1h132.8L406,309.6z M274.3,308.6h130.8l9.9-92.1H284.2L274.3,308.6z"/>
		</g>
		<g>
			
				<rect x="256.2" y="305.5" transform="matrix(-1 -1.224647e-16 1.224647e-16 -1 534.393 619.433)" class="st16" width="22" height="8.4"/>
		</g>
		<g>
			<g>
				<defs>
					<rect id="SVGID_3_" x="44.4" y="313.7" width="358.2" height="5.7"/>
				</defs>
				<clipPath id="SVGID_4_">
					<use xlink:href="#SVGID_3_"  style="overflow:visible;"/>
				</clipPath>
				<path class="st17" d="M44.4,313.7v5.7V313.7z"/>
				<rect x="44.4" y="313.7" class="st17" width="5.5" height="5.7"/>
				<rect x="49.9" y="313.7" class="st18" width="5.5" height="5.7"/>
				<rect x="55.4" y="313.7" class="st19" width="5.5" height="5.7"/>
				<rect x="60.9" y="313.7" class="st20" width="5.5" height="5.7"/>
				<rect x="66.4" y="313.7" class="st21" width="5.5" height="5.7"/>
				<rect x="72" y="313.7" class="st22" width="5.5" height="5.7"/>
				<rect x="77.5" y="313.7" class="st23" width="5.5" height="5.7"/>
				<rect x="83" y="313.7" class="st24" width="5.5" height="5.7"/>
				<rect x="88.5" y="313.7" class="st25" width="5.5" height="5.7"/>
				<rect x="94" y="313.7" class="st26" width="5.5" height="5.7"/>
				<rect x="99.5" y="313.7" class="st27" width="5.5" height="5.7"/>
				<rect x="105" y="313.7" class="st28" width="5.5" height="5.7"/>
				<rect x="110.5" y="313.7" class="st29" width="5.5" height="5.7"/>
				<rect x="116" y="313.7" class="st30" width="5.5" height="5.7"/>
				<rect x="121.6" y="313.7" class="st31" width="5.5" height="5.7"/>
				<rect x="127.1" y="313.7" class="st32" width="5.5" height="5.7"/>
				<rect x="132.6" y="313.7" class="st33" width="5.5" height="5.7"/>
				<rect x="138.1" y="313.7" class="st34" width="5.5" height="5.7"/>
				<rect x="143.6" y="313.7" class="st35" width="5.5" height="5.7"/>
				<rect x="149.1" y="313.7" class="st36" width="5.5" height="5.7"/>
				<rect x="154.6" y="313.7" class="st37" width="5.5" height="5.7"/>
				<rect x="160.1" y="313.7" class="st38" width="5.5" height="5.7"/>
				<rect x="165.6" y="313.7" class="st39" width="5.5" height="5.7"/>
				<rect x="171.2" y="313.7" class="st40" width="5.5" height="5.7"/>
				<rect x="176.7" y="313.7" class="st41" width="5.5" height="5.7"/>
				<rect x="182.2" y="313.7" class="st42" width="5.5" height="5.7"/>
				<rect x="187.7" y="313.7" class="st43" width="5.5" height="5.7"/>
				<rect x="193.2" y="313.7" class="st44" width="5.5" height="5.7"/>
				<rect x="198.7" y="313.7" class="st45" width="5.5" height="5.7"/>
				<rect x="204.2" y="313.7" class="st46" width="5.5" height="5.7"/>
				<rect x="209.7" y="313.7" class="st47" width="5.5" height="5.7"/>
				<rect x="215.2" y="313.7" class="st48" width="5.5" height="5.7"/>
				<rect x="220.8" y="313.7" class="st49" width="5.5" height="5.7"/>
				<rect x="226.3" y="313.7" class="st50" width="5.5" height="5.7"/>
				<rect x="231.8" y="313.7" class="st51" width="5.5" height="5.7"/>
				<rect x="237.3" y="313.7" class="st52" width="5.5" height="5.7"/>
				<rect x="242.8" y="313.7" class="st53" width="5.5" height="5.7"/>
				<rect x="248.3" y="313.7" class="st54" width="5.5" height="5.7"/>
				<rect x="253.8" y="313.7" class="st55" width="5.5" height="5.7"/>
				<rect x="259.3" y="313.7" class="st56" width="5.5" height="5.7"/>
				<rect x="264.8" y="313.7" class="st57" width="5.5" height="5.7"/>
				<rect x="270.4" y="313.7" class="st58" width="5.5" height="5.7"/>
				<rect x="275.9" y="313.7" class="st59" width="5.5" height="5.7"/>
				<rect x="281.4" y="313.7" class="st60" width="5.5" height="5.7"/>
				<rect x="286.9" y="313.7" class="st61" width="5.5" height="5.7"/>
				<rect x="292.4" y="313.7" class="st62" width="5.5" height="5.7"/>
				<rect x="297.9" y="313.7" class="st63" width="5.5" height="5.7"/>
				<rect x="303.4" y="313.7" class="st64" width="5.5" height="5.7"/>
				<rect x="308.9" y="313.7" class="st65" width="5.5" height="5.7"/>
				<rect x="314.4" y="313.7" class="st66" width="5.5" height="5.7"/>
				<rect x="320" y="313.7" class="st67" width="5.5" height="5.7"/>
				<rect x="325.5" y="313.7" class="st68" width="5.5" height="5.7"/>
				<rect x="331" y="313.7" class="st69" width="5.5" height="5.7"/>
				<rect x="336.5" y="313.7" class="st70" width="5.5" height="5.7"/>
				<rect x="342" y="313.7" class="st71" width="5.5" height="5.7"/>
				<rect x="347.5" y="313.7" class="st72" width="5.5" height="5.7"/>
				<rect x="353" y="313.7" class="st73" width="5.5" height="5.7"/>
				<rect x="358.5" y="313.7" class="st74" width="5.5" height="5.7"/>
				<rect x="364" y="313.7" class="st75" width="5.5" height="5.7"/>
				<rect x="369.6" y="313.7" class="st76" width="5.5" height="5.7"/>
				<rect x="375.1" y="313.7" class="st77" width="5.5" height="5.7"/>
				<rect x="380.6" y="313.7" class="st78" width="5.5" height="5.7"/>
				<rect x="386.1" y="313.7" class="st79" width="5.5" height="5.7"/>
				<rect x="391.6" y="313.7" class="st80" width="5.5" height="5.7"/>
				<rect x="397.1" y="313.7" class="st81" width="5.5" height="5.7"/>
				<path class="st81" d="M402.6,319.4v-5.7V319.4z"/>
			</g>
		</g>
		<g>
			<rect x="311.2" y="434.8" class="st16" width="310.4" height="5.7"/>
		</g>
		<g>
			<path class="st82" d="M330.3,265.9c-1.1,5.2,1.4,10.1,5.4,10.9c4,0.8,8.2-2.7,9.2-7.9c1.1-5.2-1.4-10.1-5.4-10.9
				C335.5,257.1,331.3,260.7,330.3,265.9z"/>
		</g>
		<g>
			<g>
				<g>
					<path class="st83" d="M581.7,229c0,0,3,5.2,4.3,6c1.7,1.1,0.7,2.3-0.2,2.3c-0.8,0-5.1,0.3-6-0.8c-0.9-1.1-1.4-4.2-2.3-5.1
						c-0.9-0.8-1.8-4.1,0.4-4.9C579.9,225.8,581.7,229,581.7,229z"/>
				</g>
			</g>
		</g>
		<g>
			<g>
				<g>
					<path class="st84" d="M580.3,226.7c0,0,3.5,6,4.1,6.9c0.6,0.9-1.1,0.9-2.2,0.5c-1.1-0.4-3.8-4.8-4.2-5.5c-0.5-0.9-0.1-2-0.1-2
						L580.3,226.7z"/>
				</g>
			</g>
		</g>
		<g>
			<g>
				<g>
					<polygon class="st83" points="576.8,229.9 577.6,236.1 578,236.1 577.9,231.7 					"/>
				</g>
			</g>
		</g>
		<g>
			<g>
				<g>
					<path class="st83" d="M551.5,229c0,0,3,5.2,4.3,6c1.7,1.1,0.7,2.3-0.2,2.3c-0.8,0-5.1,0.3-6-0.8c-0.9-1.1-1.4-4.2-2.3-5.1
						c-0.9-0.8-1.8-4.2,0.4-4.9C549.8,225.9,551.5,229,551.5,229z"/>
				</g>
			</g>
		</g>
		<g>
			<g>
				<g>
					<path class="st84" d="M550.4,226.7c0,0,3.3,6,3.9,6.9c0.6,0.9-1.1,0.9-2.2,0.5c-1.1-0.4-3.8-4.8-4.2-5.5c-0.5-0.9-0.1-2-0.1-2
						L550.4,226.7z"/>
				</g>
			</g>
		</g>
		<g>
			<g>
				<g>
					<polygon class="st83" points="546.7,229.9 547.5,236.1 547.9,236.1 547.8,231.7 					"/>
				</g>
			</g>
		</g>
		<g>
			<g>
				<g>
					<path class="st84" d="M538,182l27.5,12.5c0,0,3.1,1,3.4,4.4c1.1,10.6,9,27.5,9,27.5c2.6,1.2,2.4,0.2,2.4,0.2
						c-1.6-5.2-3.6-26.5-4.3-35c-0.1-1.8-0.2-3.1-0.3-3.5c0-0.3-0.3-0.6-0.8-1c-3.8-3.1-19.3-9.4-19.3-9.4
						C544,177.5,538,182,538,182z"/>
				</g>
			</g>
		</g>
		<g>
			<g>
				<g>
					<path class="st84" d="M532.8,187.4c0.9,7.4,11.5,6.6,11.5,6.6h12.9c0,0-3.4,7.5-4.7,13.9c-1.4,6.7-4.6,18.6-4.6,18.6
						s0.2,0.4,2.5,0.2c0,0,10.1-20.1,14-25.2c0.8-1.1,3.2-7,3.6-10.5c0.1-1.2,0.1-2.1-0.4-2.5c-0.4-0.4-1.5-1.1-2.8-1.9
						c-4-2.5-11-6.5-14.9-7.3c-5.2-1.2-13.5-3.4-13.5-3.4S532,180,532.8,187.4z"/>
				</g>
			</g>
		</g>
		<g>
			<path class="st85" d="M541.6,130.1c0,0-1.9-3.7-1-7.5c0.9-3.9,4.6-7.8,9.8-6c5.3,1.8,9.6,5.9,6.4,10.6c-3.2,4.8,2.9,6.9,1.3,9.2
				c-1.5,2.3-1,4.6-0.3,5.1c0.7,0.5,2.8,2.4,2.5,4.6c-0.2,2.2-10.3-6.5-10.3-6.5S544.7,128.7,541.6,130.1z"/>
		</g>
		<g>
			<path class="st86" d="M557.7,176.9c0,0-0.8,3.9-21.3-1C536.4,175.9,543.3,173.6,557.7,176.9z"/>
		</g>
		<g>
			<g>
				<path class="st87" d="M536.1,176.9c-0.3,0.6-0.6,1.2-1,1.8c7.5,0.2,15,0.4,22.5,0.7c-1.2-4-0.8-9.4-0.6-13.5
					c0.3-5,3-8.5,2.7-13.5c1.5,0.2,1.7,0.3,3.2,0.5c-2.3-6.5-3.1-9.7-10.1-12.2c-2.3-0.8-3.8-1-6.3-0.8c-8.2,0.7-10.7,0.8-14.7,8.2
					c6.3,1,5.3,3.3,7.2,9.5c0.9,3.1,1.9,6.5,1.4,9.7C540,170.6,536.1,174.1,536.1,176.9z"/>
			</g>
		</g>
		<g>
			<g>
				<path class="st12" d="M549.2,142.3c-3.4-0.6-2.6-2.5-2.6-2.5s0.2-1.1,0.2-2.4c0-0.3,0-0.7,0-1.1c0-0.6,0-1.1-0.1-1.6
					c-0.3-2.2,6.1-0.9,6.1-0.9s-0.4,4.6,0.5,5.9C554.2,141.1,552.6,143,549.2,142.3z"/>
			</g>
		</g>
		<g>
			<g>
				<path class="st12" d="M542.8,139.8c0,0,6.8,7.8,9.3,9.6c0,0,2.9-2.6,1.1-9.4C553.2,140,549.9,138.4,542.8,139.8z"/>
			</g>
		</g>
		<g>
			<path class="st12" d="M543,121c0,0-3.5,6.8,0,13.2c3.5,6.4,10.3-2.8,10.8-3.9c0.4-1.1,2.8-7.2-1.9-9
				C547.2,119.5,544,119.2,543,121z"/>
		</g>
		<g>
			<path class="st85" d="M544.2,123.4c0,0-2.4,3.2-2.7,5.5c0,0-1-4.4,1.8-8.7c2.7-4.3,9.6-0.2,10.6,1.5c0.9,1.7,3.6,3.2-0.9,10.5
				C552.9,132.3,544.7,126.6,544.2,123.4z"/>
		</g>
		<g>
			<path class="st14" d="M549.8,134.9c0,0-0.6,1.3-3,2.6c0-0.3,0-0.7,0-1.1C546.8,136.4,548.4,136.2,549.8,134.9z"/>
		</g>
		<g>
			<path class="st12" d="M514.3,170.9c0,0-1.7,0.7-2.5,0.4c-0.8-0.3-2-0.4-2.4-0.4c-0.5,0-2.1-0.6-2.1,0.1c0,0.6,2.6,1.1,3.2,1.3
				c0.5,0.2-1.6,1.4-1.8,1.9c-0.2,0.5,2.2,3.9,3.5,3c1.3-1,2.1-2.9,2.4-3c0.3-0.1,1-0.7,1-0.7L514.3,170.9z"/>
		</g>
		<g>
			<path class="st12" d="M508.9,173.8c0,0-3.9,3.2-4,3.7c-0.1,0.4,0.1,0.6,0.5,0.4c0.4-0.3,3.9-3,3.9-3s-3.9,4.6-4.1,5
				c-0.1,0.2,0.3,0.6,0.5,0.5c0.2-0.1,4.4-4.5,4.4-4.5s-3.7,4.3-3.7,4.7c0,0.3,0.4,0.6,0.7,0.3c0.3-0.3,3.9-4.1,3.9-4.1
				s-2.4,3.3-2.3,3.6c0.1,0.2,0.4,0.6,1-0.3c0.6-0.9,2.3-2.8,2.3-2.8L508.9,173.8z"/>
		</g>
		<g>
			<g>
				<path class="st16" d="M555.8,194h-11.5c0,0-10.6,0.9-11.5-6.6c-0.9-7.4,3.5-11.6,3.5-11.6s5.6,1.5,10.5,2.7
					c2.5-0.5,5.4-0.9,8.9-0.8c0,0,20.8,6.9,20.1,10.5C575.8,188.2,567.1,183.6,555.8,194z"/>
			</g>
		</g>
		<g>
			<polygon class="st88" points="548.3,181.1 570.3,180.8 559.2,186.4 			"/>
		</g>
		<g>
			<path class="st87" d="M555.1,178.3c0,0-4.9,1.9-11,0.2l-0.3-2.3l12.5,0.7L555.1,178.3z"/>
		</g>
		<g>
			<polygon class="st89" points="559.2,186.4 548.3,182.2 548.3,181.1 560.1,185.4 			"/>
		</g>
		<g>
			<g>
				<path class="st90" d="M555.1,179.4c-0.1,0.8,0.8,1.4,1.5,1.1l1.3-0.5c0.4-0.2,0.6-0.6,0.5-1c-0.5-3.3-1.7-16.3,0-18.5
					c0.6-0.8,1-1.5,1.2-2.2c1.1,2.8,2.5,6.5,3,8.5l10.4,13.8l3.5,0.9c-4.3-10.5-7.8-16-7.8-16c-0.7-1.8-2.6-7.3-4.4-12.3
					c-1.1-3.1-2.1-6-2.6-7.5c-0.3-0.8-0.8-1.4-1.5-1.9c-1.6-1-4.3-2.5-6.7-3.7c0,0,0,0,0,0c-0.1,0-0.2-0.1-0.2-0.1c0,0,0,0,0,0
					c0,0,0,0,0,0C557.8,147,556,166.7,555.1,179.4C555.1,179.4,555.1,179.4,555.1,179.4z"/>
			</g>
			<g>
				<path class="st90" d="M537.9,140.6c-1.5,0.2-5.1,3.8-7.1,7.4c-2.2,4.1-4.5,8.8-6.2,10.3c-3.1,2.8-11.9,12.8-12.3,12.6
					c-0.2-0.1,2.4,3,2.7,3.1c0.2,0.1,14.4-12.2,15.7-14.1c1.3-1.8,4.7-9.2,5.8-9.1c0,0,0,0,0,0c0,0,0,0,0,0c0.1,0.2,1.3,2.9,2.5,6.9
					c0,0.1,0,0.1,0.1,0.2c0.8,2.8,0.7,5.8,0.3,9.2c-0.3,2.6-2.2,6.7-3.4,8.8c-0.1,0.2-0.1,0.7,0,1.1c0,0,0,0,0,0
					c0.1,0.2,0.2,0.4,0.4,0.4l4.2,1.5l1,0.4c0.7,0.3,1.4,0.1,2-0.3c0.5-0.3,0.8-0.8,0.9-1.4c0.9-7.1,2.1-14.4,3-17.1
					c4.1-12-1.6-21.1-1.6-21.1S539.2,140.1,537.9,140.6z"/>
			</g>
		</g>
		<g>
			<polygon class="st91" points="559.2,186.4 565.7,168.6 586.8,168.9 580.6,185.4 			"/>
		</g>
		<g>
			<path class="st92" d="M572.5,176.5c-0.6,1.3-0.4,2.7,0.4,3.1c0.9,0.4,2.1-0.2,2.8-1.5c0.6-1.3,0.4-2.7-0.4-3.1
				C574.4,174.5,573.1,175.2,572.5,176.5z"/>
		</g>
		<g>
			<path class="st85" d="M550.3,127.8c0,0,1.3,2.1,0.1,3.9c-1.2,1.8,0.3,3.6,0.6,5.5c0.3,1.9-5.2,7,0.9,9.6c6.1,2.6,8-1.7,6.5-4
				c-1.6-2.3-2.7-4.2-2.8-7.6C555.4,131.9,554.3,126.7,550.3,127.8z"/>
		</g>
		<g>
			<polygon class="st93" points="520.5,119.1 533.2,119.1 533.2,128.3 533.2,130.2 531.3,128.3 520.5,128.3 			"/>
		</g>
		<g>
			<g>
				<g>
					<g>
						<g>
							<path class="st3" d="M449.2,260.4c0,0-27.7,26.3-14.2,46.9c13.5,20.5,19.8,2.5,19.8,2.5s9.1,2.7-4.4-22.5
								C444,275.3,449.2,260.4,449.2,260.4z"/>
						</g>
					</g>
				</g>
			</g>
			<g>
				<g>
					<g>
						<g>
							<path class="st4" d="M398,231.8c0,0-21.1,24.9,7.1,59.3c28.3,34.4,23.9,52.6,23.9,52.6S468.4,283.8,398,231.8z"/>
						</g>
					</g>
				</g>
			</g>
			<g>
				<g>
					<g>
						<g>
							<path class="st5" d="M435.4,333.3c13.2,2.7,2.5-35.6-17.2-47.3c-19.7-11.7-37.4-12.8-48.4-24
								C369.7,262,370.6,320.2,435.4,333.3z"/>
						</g>
					</g>
				</g>
			</g>
		</g>
		<g>
			<g>
				<g>
					<g>
						<path class="st12" d="M349.4,350.1c0,0,0.6-1.5,0.7-1.7c0.1-0.2,0.7-0.6,1.4-1c0.7-0.4,1.8-0.5,1.9-0.5
							c0.1,0.1,0.3,0.1,0.4,0.4c0.2,0.3,0.1,0.7,0.1,0.7s0.4,0.3,0.3,0.7c0,0,0.3,0.3,0.2,0.8c0,0,0.3,0.3,0.2,0.6
							c0,0-0.6,0.4-0.8,0.6c-0.2,0.2-1.4,0.9-2.7,1.4C351.1,352,349.7,352,349.4,350.1z"/>
					</g>
				</g>
			</g>
			<g>
				<g>
					<g>
						<path class="st94" d="M351.6,349.2c0,0,0,0.8-0.1,1c-0.1,0.2,1.6,0.7,1.6,0.7S352.5,349.3,351.6,349.2z"/>
					</g>
				</g>
			</g>
			<g>
				<g>
					<g>
						<polygon class="st95" points="318.9,428.4 319.6,426 322.9,426.5 322.4,428.6 						"/>
					</g>
				</g>
			</g>
			<g>
				<g>
					<g>
						<polygon class="st96" points="345.4,428.1 345.6,429.4 349.1,428.8 348.9,426.8 						"/>
					</g>
				</g>
			</g>
			<g>
				<g>
					<g>
						<g>
							<path class="st97" d="M337.7,391.4c0,0-0.5,2.8-1.1,6c-0.1,0.5-0.2,1.1-0.3,1.7c-0.6,3-1.2,6-1.4,6.6
								c-0.5,1.4-11.4,21.3-11.4,21.3s-4.4-0.3-4.6-0.9c0,0,9.1-21.6,9-22.4c0-0.8,1.1-22.9,1.1-22.9S337.5,390.1,337.7,391.4z"/>
						</g>
					</g>
				</g>
			</g>
			<g>
				<g>
					<g>
						<g>
							<path class="st97" d="M342.7,379.4c0,0,4.2,21.7,4.6,23.4c0.4,1.7,2,23.9,2,23.9s-1,2-4.5,1.2c0,0-4.8-23.9-5.2-24.7
								c-1.6-3.1-9.3-18.2-10-20.3c-0.7-2.2-0.5-4.7-0.5-4.7S334.7,375,342.7,379.4z"/>
						</g>
					</g>
				</g>
			</g>
			<g>
				<g>
					<g>
						<g>
							<path class="st98" d="M340.9,351.3c0,0,1.9,4.6,2.3,4.5c0.5-0.1,5.8-6.4,5.8-6.4s2.4,3.1,2.1,3.4c-0.5,0.5-6.8,11-7.6,10.8
								c-0.9-0.2-4.8-6.6-4.8-6.6S338.5,352.1,340.9,351.3z"/>
						</g>
					</g>
				</g>
			</g>
			<g>
				<g>
					<g>
						<g>
							<path class="st99" d="M332.9,342.4c0,0,4.8,3.7,6.2,5.2c1.3,1.5,5,7.5,4.7,9.4c-1,7-1.5,13-1.5,17.7c0,4.2,1.3,5.2,0.5,5.3
								c-0.9,0.1-13.1,4.5-14.9,5c0,0,1.2-14.7,1.8-16.3C330.3,366.9,327.7,349.2,332.9,342.4z"/>
						</g>
					</g>
				</g>
			</g>
			<g>
				<g>
					<g>
						<path class="st100" d="M364,335.4l1.1,5.5l1.1,5.5c0,0-6.2-1.9-13.2-0.5l-0.5-2.4l-0.5-2.4C359,339.5,364,335.4,364,335.4z"/>
					</g>
				</g>
			</g>
			<g>
				<g>
					<g>
						<path class="st101" d="M345.6,429.4c0,0,2.7-0.5,2.8-0.6c0.1-0.1,0.7-1.1,1.1-1c0.4,0.2,0.4,1.5,0.8,1.7
							c0.4,0.2,3.6,2.4,4,2.8c0.4,0.4,2.8,0.2,3.1,0.8c0.3,0.7,0.3,2.3-3.3,1.9c-3.6-0.4-7.7,0.2-8.5-0.2
							C344.7,434.4,345.3,430.4,345.6,429.4z"/>
					</g>
				</g>
			</g>
			<g>
				<g>
					<g>
						<path class="st101" d="M318.8,428.3c0,0,2.7-0.1,2.8-0.1c0.1-0.1,0.8-1,1.2-0.8c0.4,0.2,0.2,1.5,0.5,1.8
							c0.4,0.3,3.2,2.9,3.5,3.4c0.3,0.5,2.7,0.6,2.9,1.3s-0.1,2.3-3.6,1.4c-3.5-1-7.7-1-8.4-1.6
							C317.2,433.1,318.4,429.3,318.8,428.3z"/>
					</g>
				</g>
			</g>
			<g>
				<g>
					<g>
						<g>
							<path class="st8" d="M340,380.4c0,0,0.3,1.3,0.8,1.6c0.5,0.3-2.4,3.1-2.4,3.1s-1.2-2.6-1.2-2.9
								C337.2,382,340,380.4,340,380.4z"/>
						</g>
					</g>
				</g>
			</g>
			<g>
				<g>
					<g>
						<g>
							<path class="st102" d="M330.8,348.1c0,0-3.5,16.5-3.7,18.2c-0.3,1.6,10.2,16.8,10.2,16.8l3.5-2.1c0,0-8.4-15.3-8.4-16
								c0-0.7,4-14,4-14s1.7-2.9-1.3-4.3C332,345.4,330.8,348.1,330.8,348.1z"/>
						</g>
					</g>
				</g>
			</g>
			<g>
				<g>
					<g>
						<path class="st103" d="M342,381.6c0,0,1.1,5.6,1.1,7.3c-0.1,1.7-6.5-2.7-6.1-4.4L342,381.6z"/>
					</g>
				</g>
			</g>
			<g>
				<g>
					<g>
						<g>
							<g>
								<path class="st12" d="M332.9,342.4c0,0,8.8,9.6,8.3,8.5c-1.9-3.8-3.3-4.4-3.3-5.1c0-0.5,0.2-2.1,0.3-2.7
									c0.1-1,0.1-1.8,0.1-1.8s-4.4-6.1-4.2-4C334.4,339.4,332.9,342.4,332.9,342.4z"/>
							</g>
						</g>
					</g>
				</g>
			</g>
			<g>
				<g>
					<g>
						<g>
							<g>
								<path class="st12" d="M341.3,331.1c0,0,1.2,2.8,1.2,3.5c0,0.7-0.2,1.2,0,1.9c0.1,0.8,0.8,2.5,0.7,2.9
									c-0.1,0.6-1.3,0.3-1.4,1.2c-0.2,0.9-1,2.6-1.4,2.7c-1.1,0.1-5.3-1.6-5.5-2.5c-0.3-0.9-1.8-5.7-2.2-6.7s7.3-6,8.1-4.5
									C341.3,331.1,341.3,331.1,341.3,331.1z"/>
							</g>
						</g>
					</g>
				</g>
			</g>
			<g>
				<g>
					<g>
						<path class="st13" d="M330.7,333.2c-0.6-2.4,2.2-2.7,2.2-2.7s1.8-2.1,6.1-1.8c4.3,0.2,3.7,5.9,3.7,5.9s-3-0.4-4.3-0.1
							c0,0-0.2,2.4,0,3l-1.6-0.1c0,0,0.2-2.1-0.6-2.2c-0.8-0.1-1,4.5-2.5,5.5c0,0,0-0.3-0.2-0.6l0,0l0,0c-0.3-0.5-0.7-1.4-1.1-2.4
							C331.7,336.2,331,334.4,330.7,333.2z"/>
					</g>
				</g>
			</g>
			<g>
				<g>
					<g>
						<g>
							<g>
								<path class="st12" d="M337.2,335.5c0,0-0.6-1.6-2-0.6c-1,0.8,0,3.5,1,3.5C337.2,338.5,337.7,337,337.2,335.5z"/>
							</g>
						</g>
					</g>
				</g>
			</g>
			<g>
				<g>
					<g>
						<path class="st104" d="M334.5,340c0,0,0.2,0.9,0.4,1.1c0.2,0.2,1.3,1.1,3.2,1.7l-0.2,1.7C338.1,344.5,334.4,343.1,334.5,340z"
							/>
					</g>
				</g>
			</g>
			<g>
				<g>
					<g>
						<g>
							<defs>
								<path id="SVGID_5_" d="M353.9,351.7l0.6-0.3l-2.8-6l-1.6,0.7l2.4,5.1C352.8,351.8,353.4,352,353.9,351.7z"/>
							</defs>
							<clipPath id="SVGID_6_">
								<use xlink:href="#SVGID_5_"  style="overflow:visible;"/>
							</clipPath>
							<path class="st105" d="M350.2,345.5v6.5V345.5z"/>
							<rect x="350.2" y="345.5" class="st105" width="0.1" height="6.5"/>
							<rect x="350.2" y="345.5" class="st106" width="0.1" height="6.5"/>
							<rect x="350.3" y="345.5" class="st107" width="0.1" height="6.5"/>
							<rect x="350.4" y="345.5" class="st108" width="0.1" height="6.5"/>
							<rect x="350.4" y="345.5" class="st109" width="0.1" height="6.5"/>
							<rect x="350.5" y="345.5" class="st110" width="0.1" height="6.5"/>
							<rect x="350.6" y="345.5" class="st111" width="0.1" height="6.5"/>
							<rect x="350.6" y="345.5" class="st112" width="0.1" height="6.5"/>
							<rect x="350.7" y="345.5" class="st113" width="0.1" height="6.5"/>
							<rect x="350.8" y="345.5" class="st114" width="0.1" height="6.5"/>
							<rect x="350.8" y="345.5" class="st115" width="0.1" height="6.5"/>
							<rect x="350.9" y="345.5" class="st116" width="0.1" height="6.5"/>
							<rect x="351" y="345.5" class="st117" width="0.1" height="6.5"/>
							<rect x="351" y="345.5" class="st118" width="0.1" height="6.5"/>
							<rect x="351.1" y="345.5" class="st119" width="0.1" height="6.5"/>
							<rect x="351.2" y="345.5" class="st120" width="0.1" height="6.5"/>
							<rect x="351.3" y="345.5" class="st121" width="0.1" height="6.5"/>
							<rect x="351.3" y="345.5" class="st122" width="0.1" height="6.5"/>
							<rect x="351.4" y="345.5" class="st123" width="0.1" height="6.5"/>
							<rect x="351.5" y="345.5" class="st124" width="0.1" height="6.5"/>
							<rect x="351.5" y="345.5" class="st125" width="0.1" height="6.5"/>
							<rect x="351.6" y="345.5" class="st126" width="0.1" height="6.5"/>
							<rect x="351.7" y="345.5" class="st127" width="0.1" height="6.5"/>
							<rect x="351.7" y="345.5" class="st128" width="0.1" height="6.5"/>
							<rect x="351.8" y="345.5" class="st129" width="0.1" height="6.5"/>
							<rect x="351.9" y="345.5" class="st130" width="0.1" height="6.5"/>
							<rect x="351.9" y="345.5" class="st131" width="0.1" height="6.5"/>
							<rect x="352" y="345.5" class="st132" width="0.1" height="6.5"/>
							<rect x="352.1" y="345.5" class="st133" width="0.1" height="6.5"/>
							<rect x="352.1" y="345.5" class="st134" width="0.1" height="6.5"/>
							<rect x="352.2" y="345.5" class="st135" width="0.1" height="6.5"/>
							<rect x="352.3" y="345.5" class="st136" width="0.1" height="6.5"/>
							<rect x="352.3" y="345.5" class="st137" width="0.1" height="6.5"/>
							<rect x="352.4" y="345.5" class="st138" width="0.1" height="6.5"/>
							<rect x="352.5" y="345.5" class="st139" width="0.1" height="6.5"/>
							<rect x="352.5" y="345.5" class="st140" width="0.1" height="6.5"/>
							<rect x="352.6" y="345.5" class="st141" width="0.1" height="6.5"/>
							<rect x="352.7" y="345.5" class="st142" width="0.1" height="6.5"/>
							<rect x="352.7" y="345.5" class="st143" width="0.1" height="6.5"/>
							<rect x="352.8" y="345.5" class="st144" width="0.1" height="6.5"/>
							<rect x="352.9" y="345.5" class="st145" width="0.1" height="6.5"/>
							<rect x="352.9" y="345.5" class="st146" width="0.1" height="6.5"/>
							<rect x="353" y="345.5" class="st147" width="0.1" height="6.5"/>
							<rect x="353.1" y="345.5" class="st148" width="0.1" height="6.5"/>
							<rect x="353.1" y="345.5" class="st149" width="0.1" height="6.5"/>
							<rect x="353.2" y="345.5" class="st150" width="0.1" height="6.5"/>
							<rect x="353.3" y="345.5" class="st151" width="0.1" height="6.5"/>
							<rect x="353.3" y="345.5" class="st152" width="0.1" height="6.5"/>
							<rect x="353.4" y="345.5" class="st153" width="0.1" height="6.5"/>
							<rect x="353.5" y="345.5" class="st154" width="0.1" height="6.5"/>
							<rect x="353.5" y="345.5" class="st155" width="0.1" height="6.5"/>
							<rect x="353.6" y="345.5" class="st156" width="0.1" height="6.5"/>
							<rect x="353.7" y="345.5" class="st157" width="0.1" height="6.5"/>
							<rect x="353.8" y="345.5" class="st158" width="0.1" height="6.5"/>
							<rect x="353.8" y="345.5" class="st159" width="0.1" height="6.5"/>
							<rect x="353.9" y="345.5" class="st160" width="0.1" height="6.5"/>
							<rect x="354" y="345.5" class="st161" width="0.1" height="6.5"/>
							<rect x="354" y="345.5" class="st162" width="0.1" height="6.5"/>
							<rect x="354.1" y="345.5" class="st163" width="0.1" height="6.5"/>
							<rect x="354.2" y="345.5" class="st164" width="0.1" height="6.5"/>
							<rect x="354.2" y="345.5" class="st165" width="0.1" height="6.5"/>
							<rect x="354.3" y="345.5" class="st166" width="0.1" height="6.5"/>
							<rect x="354.4" y="345.5" class="st167" width="0.1" height="6.5"/>
							<rect x="354.4" y="345.5" class="st168" width="0.1" height="6.5"/>
							<rect x="354.5" y="345.5" class="st169" width="0.1" height="6.5"/>
							<path class="st169" d="M354.6,352v-6.5V352z"/>
						</g>
					</g>
				</g>
			</g>
			<g>
				<g>
					<g>
						<path class="st170" d="M353.2,347c0,0-1.8,1-1.6,1.3c0.1,0.3,0.3,0.3,0.3,0.3l-0.5,0.7c0,0-0.1,0.7,0.7,0.6
							c0,0-0.1,0.6,0.6,0.4c0,0,0.1,0.5,0.4,0.4c0.4,0,1.5-0.7,1.5-0.7s0.2-0.2-0.2-0.6c0,0,0.2-0.4-0.2-0.8c0,0,0.1-0.4-0.3-0.7
							c0,0,0.2-0.9-0.5-1.1C353.4,346.9,353.3,347,353.2,347z"/>
					</g>
				</g>
			</g>
			<g>
				<g>
					<g>
						<g>
							<defs>
								<polygon id="SVGID_7_" points="348.1,346.8 354.3,345.6 353.3,340.5 347.1,341.9 								"/>
							</defs>
							<clipPath id="SVGID_8_">
								<use xlink:href="#SVGID_7_"  style="overflow:visible;"/>
							</clipPath>
							<path class="st171" d="M347.1,340.5v6.2V340.5z"/>
							<rect x="347.1" y="340.5" class="st171" width="0.1" height="6.2"/>
							<rect x="347.2" y="340.5" class="st172" width="0.1" height="6.2"/>
							<rect x="347.4" y="340.5" class="st173" width="0.1" height="6.2"/>
							<rect x="347.5" y="340.5" class="st174" width="0.1" height="6.2"/>
							<rect x="347.6" y="340.5" class="st175" width="0.1" height="6.2"/>
							<rect x="347.7" y="340.5" class="st176" width="0.1" height="6.2"/>
							<rect x="347.8" y="340.5" class="st177" width="0.1" height="6.2"/>
							<rect x="347.9" y="340.5" class="st178" width="0.1" height="6.2"/>
							<rect x="348" y="340.5" class="st179" width="0.1" height="6.2"/>
							<rect x="348.1" y="340.5" class="st180" width="0.1" height="6.2"/>
							<rect x="348.2" y="340.5" class="st181" width="0.1" height="6.2"/>
							<rect x="348.3" y="340.5" class="st182" width="0.1" height="6.2"/>
							<rect x="348.5" y="340.5" class="st183" width="0.1" height="6.2"/>
							<rect x="348.6" y="340.5" class="st184" width="0.1" height="6.2"/>
							<rect x="348.7" y="340.5" class="st185" width="0.1" height="6.2"/>
							<rect x="348.8" y="340.5" class="st186" width="0.1" height="6.2"/>
							<rect x="348.9" y="340.5" class="st187" width="0.1" height="6.2"/>
							<rect x="349" y="340.5" class="st188" width="0.1" height="6.2"/>
							<rect x="349.1" y="340.5" class="st189" width="0.1" height="6.2"/>
							<rect x="349.2" y="340.5" class="st190" width="0.1" height="6.2"/>
							<rect x="349.3" y="340.5" class="st191" width="0.1" height="6.2"/>
							<rect x="349.4" y="340.5" class="st192" width="0.1" height="6.2"/>
							<rect x="349.6" y="340.5" class="st193" width="0.1" height="6.2"/>
							<rect x="349.7" y="340.5" class="st194" width="0.1" height="6.2"/>
							<rect x="349.8" y="340.5" class="st195" width="0.1" height="6.2"/>
							<rect x="349.9" y="340.5" class="st196" width="0.1" height="6.2"/>
							<rect x="350" y="340.5" class="st197" width="0.1" height="6.2"/>
							<rect x="350.1" y="340.5" class="st198" width="0.1" height="6.2"/>
							<rect x="350.2" y="340.5" class="st199" width="0.1" height="6.2"/>
							<rect x="350.3" y="340.5" class="st200" width="0.1" height="6.2"/>
							<rect x="350.4" y="340.5" class="st201" width="0.1" height="6.2"/>
							<rect x="350.6" y="340.5" class="st202" width="0.1" height="6.2"/>
							<rect x="350.7" y="340.5" class="st203" width="0.1" height="6.2"/>
							<rect x="350.8" y="340.5" class="st204" width="0.1" height="6.2"/>
							<rect x="350.9" y="340.5" class="st205" width="0.1" height="6.2"/>
							<rect x="351" y="340.5" class="st206" width="0.1" height="6.2"/>
							<rect x="351.1" y="340.5" class="st207" width="0.1" height="6.2"/>
							<rect x="351.2" y="340.5" class="st208" width="0.1" height="6.2"/>
							<rect x="351.3" y="340.5" class="st209" width="0.1" height="6.2"/>
							<rect x="351.4" y="340.5" class="st210" width="0.1" height="6.2"/>
							<rect x="351.5" y="340.5" class="st211" width="0.1" height="6.2"/>
							<rect x="351.7" y="340.5" class="st212" width="0.1" height="6.2"/>
							<rect x="351.8" y="340.5" class="st213" width="0.1" height="6.2"/>
							<rect x="351.9" y="340.5" class="st214" width="0.1" height="6.2"/>
							<rect x="352" y="340.5" class="st215" width="0.1" height="6.2"/>
							<rect x="352.1" y="340.5" class="st216" width="0.1" height="6.2"/>
							<rect x="352.2" y="340.5" class="st217" width="0.1" height="6.2"/>
							<rect x="352.3" y="340.5" class="st218" width="0.1" height="6.2"/>
							<rect x="352.4" y="340.5" class="st219" width="0.1" height="6.2"/>
							<rect x="352.5" y="340.5" class="st220" width="0.1" height="6.2"/>
							<rect x="352.6" y="340.5" class="st221" width="0.1" height="6.2"/>
							<rect x="352.8" y="340.5" class="st222" width="0.1" height="6.2"/>
							<rect x="352.9" y="340.5" class="st223" width="0.1" height="6.2"/>
							<rect x="353" y="340.5" class="st224" width="0.1" height="6.2"/>
							<rect x="353.1" y="340.5" class="st225" width="0.1" height="6.2"/>
							<rect x="353.2" y="340.5" class="st226" width="0.1" height="6.2"/>
							<rect x="353.3" y="340.5" class="st227" width="0.1" height="6.2"/>
							<rect x="353.4" y="340.5" class="st228" width="0.1" height="6.2"/>
							<rect x="353.5" y="340.5" class="st229" width="0.1" height="6.2"/>
							<rect x="353.6" y="340.5" class="st230" width="0.1" height="6.2"/>
							<rect x="353.7" y="340.5" class="st231" width="0.1" height="6.2"/>
							<rect x="353.9" y="340.5" class="st232" width="0.1" height="6.2"/>
							<rect x="354" y="340.5" class="st233" width="0.1" height="6.2"/>
							<rect x="354.1" y="340.5" class="st234" width="0.1" height="6.2"/>
							<rect x="354.2" y="340.5" class="st235" width="0.1" height="6.2"/>
							<path class="st235" d="M354.3,346.8v-6.2V346.8z"/>
						</g>
					</g>
				</g>
			</g>
			<g>
				<g>
					<g>
						<path class="st12" d="M350.2,348.3c0,0,1.4,0,2.1,0.3c0.2,0.1,0.3,0.2,0.3,0.4c0,0.2-0.3,0.4-0.9,0.5c-0.6,0-1.3,0.4-1.3,0.4
							S349.8,349.7,350.2,348.3z"/>
					</g>
				</g>
			</g>
			<g>
				<g>
					<g>
						<path class="st236" d="M336.6,397.4c-0.1,0.5-0.2,1.1-0.3,1.7l-3.5-9.3C333.2,390.7,336.6,397.4,336.6,397.4z"/>
					</g>
				</g>
			</g>
		</g>
		<g>
			<path class="st16" d="M143.7,286.2H86c-3.5,0-6.4-2.9-6.4-6.4v-89.9c0-3.5,2.9-6.4,6.4-6.4h57.7c3.5,0,6.4,2.9,6.4,6.4v89.9
				C150.1,283.4,147.3,286.2,143.7,286.2z"/>
		</g>
		<g>
			<g>
				<g>
					<g>
						<g>
							<rect x="139" y="249.9" class="st237" width="3.7" height="27.8"/>
						</g>
					</g>
				</g>
			</g>
			<g>
				<g>
					<g>
						<g>
							<rect x="131.8" y="253" class="st237" width="3.7" height="24.7"/>
						</g>
					</g>
				</g>
			</g>
			<g>
				<g>
					<g>
						<g>
							<rect x="123.9" y="257" class="st237" width="3.7" height="20.6"/>
						</g>
					</g>
				</g>
			</g>
			<g>
				<g>
					<g>
						<g>
							<rect x="115.9" y="262.1" class="st237" width="3.7" height="15.5"/>
						</g>
					</g>
				</g>
			</g>
			<g>
				<g>
					<g>
						<polygon class="st237" points="94.1,258.9 93.3,258.6 100.2,239.3 115.1,235.3 120.5,214.1 132,209 134.6,192.5 135.4,192.7 
							132.8,209.6 121.2,214.7 115.8,236 100.8,240 						"/>
					</g>
				</g>
			</g>
			<g>
				<g>
					<path class="st16" d="M117.2,234.2c0.8,1,0.6,2.4-0.3,3.2c-1,0.8-2.4,0.6-3.2-0.3c-0.8-1-0.6-2.4,0.3-3.2
						C115,233.1,116.4,233.3,117.2,234.2z"/>
				</g>
			</g>
			<g>
				<g>
					<path class="st237" d="M117.1,237.7c-1.1,0.9-2.8,0.8-3.7-0.4c-0.9-1.1-0.8-2.8,0.4-3.7c1.1-0.9,2.8-0.8,3.7,0.4
						C118.5,235.1,118.3,236.8,117.1,237.7z M114.3,234.2c-0.8,0.6-0.9,1.8-0.3,2.6c0.6,0.8,1.8,0.9,2.6,0.3
						c0.8-0.6,0.9-1.8,0.3-2.6C116.2,233.7,115.1,233.6,114.3,234.2z"/>
				</g>
			</g>
			<g>
				<g>
					<path class="st16" d="M122.6,213.1c0.8,1,0.6,2.4-0.3,3.2c-1,0.8-2.4,0.6-3.2-0.3c-0.8-1-0.6-2.4,0.3-3.2
						C120.4,212,121.9,212.2,122.6,213.1z"/>
				</g>
			</g>
			<g>
				<g>
					<path class="st237" d="M122.6,216.6c-1.1,0.9-2.8,0.8-3.7-0.4c-0.9-1.1-0.8-2.8,0.4-3.7c1.1-0.9,2.8-0.8,3.7,0.4
						C123.9,214,123.7,215.7,122.6,216.6z M119.7,213.1c-0.8,0.6-0.9,1.8-0.3,2.6c0.6,0.8,1.8,0.9,2.6,0.3c0.8-0.6,0.9-1.8,0.3-2.6
						C121.7,212.6,120.5,212.5,119.7,213.1z"/>
				</g>
			</g>
			<g>
				<g>
					<path class="st16" d="M134,207.9c0.8,1,0.6,2.4-0.3,3.2c-1,0.8-2.4,0.6-3.2-0.3c-0.8-1-0.6-2.4,0.3-3.2
						C131.8,206.8,133.2,206.9,134,207.9z"/>
				</g>
			</g>
			<g>
				<g>
					<path class="st237" d="M133.9,211.4c-1.1,0.9-2.8,0.8-3.7-0.4c-0.9-1.1-0.8-2.8,0.4-3.7c1.1-0.9,2.8-0.8,3.7,0.4
						C135.2,208.8,135.1,210.4,133.9,211.4z M131.1,207.9c-0.8,0.6-0.9,1.8-0.3,2.6c0.6,0.8,1.8,0.9,2.6,0.3
						c0.8-0.6,0.9-1.8,0.3-2.6C133,207.4,131.9,207.3,131.1,207.9z"/>
				</g>
			</g>
			<g>
				<g>
					<path class="st16" d="M102.3,238.4c0.8,1,0.6,2.4-0.3,3.2c-1,0.8-2.4,0.6-3.2-0.3c-0.8-1-0.6-2.4,0.3-3.2
						C100.1,237.3,101.5,237.4,102.3,238.4z"/>
				</g>
			</g>
			<g>
				<g>
					<path class="st237" d="M102.3,241.9c-1.1,0.9-2.8,0.8-3.7-0.4c-0.9-1.1-0.8-2.8,0.4-3.7c1.1-0.9,2.8-0.8,3.7,0.4
						C103.6,239.2,103.4,240.9,102.3,241.9z M99.4,238.4c-0.8,0.6-0.9,1.8-0.3,2.6c0.6,0.8,1.8,0.9,2.6,0.3c0.8-0.6,0.9-1.8,0.3-2.6
						C101.4,237.9,100.2,237.7,99.4,238.4z"/>
				</g>
			</g>
			<g>
				<g>
					<g>
						<g>
							<path class="st238" d="M108.2,217.3H88.5c-0.8,0-1.4-0.6-1.4-1.4v-1.9c0-0.8,0.6-1.4,1.4-1.4h19.7c0.8,0,1.4,0.6,1.4,1.4v1.9
								C109.6,216.7,108.9,217.3,108.2,217.3z"/>
						</g>
					</g>
				</g>
			</g>
			<g>
				<g>
					<g>
						<g>
							<path class="st238" d="M108.2,209.2H88.5c-0.8,0-1.4-0.6-1.4-1.4V206c0-0.8,0.6-1.4,1.4-1.4h19.7c0.8,0,1.4,0.6,1.4,1.4v1.9
								C109.6,208.6,108.9,209.2,108.2,209.2z"/>
						</g>
					</g>
				</g>
			</g>
		</g>
		<g>
			<g>
				<path class="st13" d="M71,221.1c0,0-0.7,6.4,0.5,8c0,0-3.1-0.7-3.9-1.8C67,226.3,71,221.1,71,221.1z"/>
			</g>
			<g>
				<g>
					<path class="st12" d="M90.6,241.6c0,0,1.1-0.8,1.3-0.9c0.2-0.1,0.8-0.1,1.4,0c0.7,0.1,1.5,0.5,1.6,0.6c0.1,0.1,0.2,0.2,0.1,0.5
						c0,0.3-0.2,0.5-0.2,0.5s0.1,0.4-0.1,0.6c0,0,0.1,0.4-0.3,0.6c0,0,0.1,0.4-0.2,0.5c0,0-0.6,0-0.8,0c-0.2,0.1-1.4-0.1-2.6-0.4
						C90.9,243.7,89.6,243.5,90.6,241.6z"/>
				</g>
			</g>
			<g>
				<g>
					<path class="st94" d="M92.6,242.1c0,0-0.3,0.6-0.5,0.7c-0.2,0.1,0.9,1.3,0.9,1.3S93.3,242.5,92.6,242.1z"/>
				</g>
			</g>
			<g>
				<g>
					<path class="st12" d="M89.9,241.7c0,0,0.7-0.1,1.2-0.3c0.4-0.2-0.1,2.2-0.1,2.2s-1.1-0.7-1.8-0.8
						C88.5,242.8,89.9,241.7,89.9,241.7z"/>
				</g>
			</g>
			<g>
				<g>
					<path class="st239" d="M60.3,306.5c0,0,2.2,3.3,3,4c0,0,1.6,0.8,1.6,1.5c0.1,1.2,0.2,1.9-1.9,2c-2.1,0.1-3.3,0-3.7-1.3
						c-0.4-1.2-1-2.2-1-2.2l-0.2,3.2h-0.5c0,0-0.2-3.2-0.2-3.7c0-0.5-0.3-2.2,0.6-3C59,306.2,60.3,306.5,60.3,306.5z"/>
				</g>
			</g>
			<g>
				<g>
					<path class="st239" d="M63.6,310.7c0,0-1.1,0.3-2.4,0c-1.3-0.3-2.6-3.5-3-3.8l-0.3-1.3h2.6c0,0,0,0.9,0.4,1.8
						C61.3,308.2,63.6,310.7,63.6,310.7z"/>
				</g>
			</g>
			<g>
				<g>
					<path class="st239" d="M74.8,305.3c0,0,0.3,0.8,1,1.6c0.5,0.6,1.9,3.1,2.5,3.3c0.6,0.2,2.6,0.5,2.8,1.6c0.2,1.1,0.3,1.9-1.7,2
						c-1.9,0.1-3.2,0.2-4.1-1.2c-0.9-1.4-2.4-2.3-2.4-2.3v3.5h-0.8c0,0-0.3-3.7-0.5-4c-0.2-0.3-0.7-3.1,1.1-4.6
						C74.4,303.8,74.8,305.3,74.8,305.3z"/>
				</g>
			</g>
			<g>
				<g>
					<path class="st239" d="M78.3,310.2c0,0-1.7,0.4-2.4,0c-0.7-0.4-2.9-4.3-3.7-4.5c0,0,0.7-1.5,2.6-0.4
						C74.8,305.3,77.8,309.5,78.3,310.2z"/>
				</g>
			</g>
			<g>
				<g>
					<path class="st240" d="M59.3,252.1c0,0-2.4,3.2-3.1,7c-0.7,3.8,0.4,16.5,0.4,18.3c0,1.9-1.6,7.7-1.3,11.2
						c0.3,3.5,2.2,18.2,2.2,18.2l4.2-0.1c0,0-0.9-15.8-0.6-17.3c0.2-1.5,0.9-7.8,1-8.4c0.1-0.6,4.8-16.7,4.8-19.4
						C66.8,258.9,65.2,247.7,59.3,252.1z"/>
				</g>
			</g>
			<g>
				<g>
					<path class="st240" d="M71.6,253.4c0,0,4,15.4,4.5,17.5c0.5,2.1,1.4,4.9,1.4,5.3c0,0.4-0.5,6.9-0.5,6.9l-1.1,22.3h-4.2
						c0,0-1.4-14.2-1.6-17.1c-0.2-2.9,1.6-7.3,1.1-8.5c-0.4-1.2-7-15.2-7-15.2S59.2,248.9,71.6,253.4z"/>
				</g>
			</g>
			<g>
				<g>
					<path class="st90" d="M70.3,230.4c0,0,1.6,0.2,2.8,1.5c1.2,1.3,2.4,3.4,2.7,4.1c0.3,0.7,4.8,7.1,5,7.3c0.2,0.1,2.2-0.4,3.7-0.5
						c2.5-0.2,6.4-1.5,6.4-1.5l0.6,2.9c0,0-9.4,3-11.5,2.5c-2.6-0.7-8.7-8.5-8.7-8.5S66.7,232.8,70.3,230.4z"/>
				</g>
			</g>
			<g>
				<g>
					<path class="st90" d="M67.5,229.3c0,0,2.1,1,2.8,1.1c0.7,0.1,3.5,3.8,4,5.1c0.5,1.3,0,3.3-1,5.7c-1,2.3-0.1,3.1-0.5,5.5
						c-0.5,2.3-0.5,8.7-0.4,10c0.1,1.3-13.4,3.8-16.1,1.4c0,0,1.8-6,4-8.3c0.5-0.5,0.4-3.7,0.1-4.5c-0.3-0.8-3.9-6.9-3.9-6.9
						s-0.3-6.1,1.3-7.4c1.4-1.1,5.1-1.4,5.7-1.7C64.2,229.2,66.2,229.1,67.5,229.3z"/>
				</g>
			</g>
			<g>
				<g>
					<path class="st241" d="M68.2,233.9l1.3-1.5l-1.1-3.9C68.4,228.5,68,230.7,68.2,233.9z"/>
				</g>
			</g>
			<g>
				<g>
					<path class="st12" d="M60.3,230.4c0,0-2.6-0.8-4.1,2.1c-1.5,2.9-1.1,4.5-1.5,5.8c-0.3,1.3-1.7,10-1.8,10.4
						c-0.1,0.4-1.4,4.8-1.2,6.2c0.2,1.4,1.4,11.7,1.4,12c-0.1,0.3,2.4-0.3,2.4-0.3s-0.1-10.5,0-11.4c0.1-0.9,0.2-5.4,0.8-6.6
						c0.7-1.2,2.3-8.3,2.6-9.1C59.1,238.7,62.5,231.3,60.3,230.4z"/>
				</g>
			</g>
			<g>
				<g>
					<path class="st12" d="M68.5,226.9c0,0-0.4,3.8-0.3,5.1c0,0-2.2,2.2-4.6-2.5c0,0,1-1.9,0.3-4.6C63,222.2,68.5,226.9,68.5,226.9z
						"/>
				</g>
			</g>
			<g>
				<g>
					<polygon class="st12" points="68.2,231.9 68.2,233.9 65.9,231.9 					"/>
				</g>
			</g>
			<g>
				<g>
					<polygon class="st241" points="68.2,233.9 67.2,232.6 63.7,229.2 62.4,229.7 					"/>
				</g>
			</g>
			<g>
				<g>
					<polygon class="st242" points="69.5,232.4 71.1,232.9 68.4,228.5 					"/>
				</g>
			</g>
			<g>
				<g>
					<polygon class="st242" points="67.2,232.6 65.7,235 62.3,229.7 63.8,228.9 					"/>
				</g>
			</g>
			<g>
				<path class="st241" d="M74.6,242.1c0,0,0.5-3.5,0-5.6c0,0-0.3,1.7-1.1,4.3L74.6,242.1z"/>
			</g>
			<g>
				<path class="st241" d="M58.4,241.6c0,0,1.4-4.8,1.5-5c0,0-0.1,4.4-0.7,6.5C59.3,243.1,58.7,242.2,58.4,241.6z"/>
			</g>
			<g>
				<polygon class="st243" points="112.1,217.7 89.4,246.3 90.2,246.9 				"/>
			</g>
			<g>
				<g>
					<path class="st170" d="M94.8,241.2c0,0-1.7-0.2-1.8,0.1c-0.1,0.3,0.1,0.4,0.1,0.4l-0.7,0.3c0,0-0.4,0.4,0.2,0.7
						c0,0-0.4,0.4,0.2,0.6c0,0-0.2,0.4,0.1,0.5c0.3,0.1,1.4,0.2,1.4,0.2s0.2-0.1,0.2-0.5c0,0,0.3-0.2,0.3-0.6c0,0,0.3-0.2,0.1-0.6
						c0,0,0.5-0.5,0.1-1C95,241.3,94.9,241.2,94.8,241.2z"/>
				</g>
			</g>
			<g>
				<g>
					<path class="st12" d="M92,240.7c0,0,1,0.6,1.4,1.2c0.1,0.1,0.1,0.3,0.1,0.4c-0.1,0.1-0.4,0.2-0.8-0.1c-0.4-0.3-1.1-0.4-1.1-0.4
						S91.1,241.5,92,240.7z"/>
				</g>
			</g>
			<g>
				<path class="st12" d="M66.8,213.9c0,0,3.8-0.1,4.5,4.4c0.7,4.5-0.9,8.5-1.6,9.2c-0.6,0.6-4.5,0.2-5.4-2.2
					c-0.9-2.4-2.2-4.1-2-6.1C62.5,217.1,62.1,213.8,66.8,213.9z"/>
			</g>
			<g>
				<path class="st13" d="M71.5,220c0,0,1-5.7-4.1-6.7c-5.1-1-6.9,2.5-7.4,4.5c-0.5,2.1,0.1,7.9,0.1,7.9s3.4,3,5.4,3.7
					c0,0-1.7-6.2-1.1-10.7c0,0,4.1,0.6,6.9,0C71.4,218.9,71.5,219.8,71.5,220z"/>
			</g>
			<g>
				<path class="st14" d="M68.4,227.7c0,0-1.3,0-3.1-1.2c0,0,1.3,1.6,3.1,2.2C68.3,228.7,68.5,227.9,68.4,227.7z"/>
			</g>
			<g>
				
					<rect x="46.8" y="258.1" transform="matrix(0.9869 -0.1612 0.1612 0.9869 -41.781 12.2059)" class="st244" width="15" height="11.1"/>
			</g>
			<g>
				<g>
					<g>
						<g>
							<g>
								<g>
									<path class="st12" d="M52.4,270.2c0,0-0.2-0.4-0.3-0.6c0,0,0-0.4,0-0.7c0-0.1,0-0.2,0-0.2c0-0.2-0.2-0.6-0.2-1.2
										c0-0.5,0.7-2.7,0.7-2.7l1.3,0l1.2-0.1c0,0,1.5,2.8,1.5,3.3c0,0,0,0.1,0,0.1c0,0.4-0.2,0.7-0.2,0.9c0,0.1-0.2,0.9-0.4,1
										c-0.3,0.1-0.6,0.1-0.8,0c0,0-0.6,0.3-1,0.2c0,0-0.5,0.3-1,0C53.3,270.2,52.7,270.4,52.4,270.2z"/>
								</g>
							</g>
						</g>
					</g>
				</g>
			</g>
			<g>
				<g>
					<path class="st90" d="M60.3,230.4c0,0-2.6-0.8-4.1,2.1c-1.5,2.9-1.5,4.1-1.7,5.5c-0.2,1.3-2,9.3-2.1,9.6
						c-0.1,0.4-0.7,5.3-0.7,7.1c0,1.4,0.3,10.4,0.2,10.7c-0.1,0.3,4.2-0.6,4.2-0.6s-0.5-8.3-0.4-9.2c0.1-0.9,0.3-5.2,0.7-6.5
						c0.5-1.5,2.5-9,2.8-9.8C59.5,238.8,62.5,231.3,60.3,230.4z"/>
				</g>
			</g>
		</g>
		<g>
			<g>
				<g>
					<path class="st245" d="M196,308.3l0.3-2.5c0,0-3.6,0-4,0.3c0,0,0.3,2.1,0.3,2.5C192.6,308.8,196,308.3,196,308.3z"/>
				</g>
			</g>
			<g>
				<g>
					<path class="st246" d="M189.9,313.6c4.3,0,6.3,0.3,6.8-0.4c0.5-0.7-0.7-5.1-0.7-5.1s-1,0.4-3.5,0.1c0,0-1.1,1.3-2.1,1.8
						c-1,0.6-2.6,0.8-3.3,1.4C186.8,311.9,185.6,313.7,189.9,313.6z"/>
				</g>
			</g>
			<g>
				<g>
					<path class="st245" d="M172,308.3l0.3-2.5c0,0-3.6,0-4,0.3c0,0,0.3,2.1,0.3,2.5C168.6,308.8,172,308.3,172,308.3z"/>
				</g>
			</g>
			<g>
				<g>
					<path class="st246" d="M165.9,313.6c4.3-0.1,6.3,0.3,6.8-0.4c0.5-0.7-0.7-5.1-0.7-5.1s-1,0.4-3.5,0.1c0,0-1.1,1.3-2.1,1.8
						c-1,0.6-4.8,1-5.4,1.6C160.6,312.1,159.9,313.8,165.9,313.6z"/>
				</g>
			</g>
			<g>
				<g>
					<path class="st6" d="M191.1,250.9c0,0,1.8,5.3,1.5,9.9c-0.2,4.6,0.9,9.6,1.4,14.3c0.5,5.3,2.7,17.9,2.8,20.8
						c0.1,2.8-0.3,11.9-0.3,11.9l-4.3,0.1c0,0-3.6-22-4.6-24.3c-0.9-2.2-5.6-18.3-5.8-20.1C181.6,261.8,191.1,250.9,191.1,250.9z"/>
				</g>
			</g>
			<g>
				<g>
					<path class="st6" d="M172.9,251.8c0,0-2.4,12.5-2.7,15.3c-0.3,2.8-0.5,13.5-0.7,15.3c-0.2,1.7-1,22.9-1.9,25.5h5.5
						c0,0,4.2-15.4,4.2-22.6c0-7.3,3.3-15.8,5.4-20.6c2.1-4.8,7-4.9,8.3-13.8C191.1,250.9,174.7,249,172.9,251.8z"/>
				</g>
			</g>
			<g>
				<g>
					<path class="st12" d="M184.1,209c0,0-4.4-1.6-6.4,1.7c-2,3.3-1.8,10,0.4,10.8c2.2,0.8,5.5,0.4,6.6-1.7c1.1-2.1,2.1-5.1,2.1-7.1
						C186.8,210.7,185.3,209.6,184.1,209z"/>
				</g>
			</g>
			<g>
				<g>
					<path class="st12" d="M178.9,221.3c0,0,0.2,1.1-0.1,1.7c-0.3,0.6,5.5,0.6,5.5,0.6s0.5-3.1,1.4-5.6
						C186.5,215.3,178.9,221.3,178.9,221.3z"/>
				</g>
			</g>
			<g>
				<g>
					<path class="st247" d="M185.6,217.9c0,0-0.4,0.7-2,0.4c-1.6-0.3-3.6-2.4-4.3-2.7c-0.7-0.2-0.7-0.6-0.7-0.6l-0.4,0.6l-0.7,0
						c0,0,0.7-1.9-0.3-2.7c-1-0.8,1-6.3,6.2-4.4c0,0,3.7,0.7,4,3C187.6,214,186.5,216.8,185.6,217.9z"/>
				</g>
			</g>
			<g>
				<g>
					<path class="st248" d="M178.4,222.9c0,0,0-1.1,0.5-1.2c0.5-0.1,5.4-0.6,6-0.3v1.3C184.9,222.7,183.8,223.4,178.4,222.9z"/>
				</g>
			</g>
			<g>
				<g>
					<path class="st12" d="M178.7,214.2c0.1-0.4,1.1-1.5,1.4-0.3c0.4,1.2-0.6,2.7-1.1,2.6C178.5,216.4,178.5,215.2,178.7,214.2z"/>
				</g>
			</g>
			<g>
				<g>
					<path class="st249" d="M178.4,222.9c0,0-2.7,1-5.8,2.3c0,0-3.6,1.3-4,5.3c-0.2,2.1-2.4,13.2-2.9,14.2c-0.4,0.9-5.4,16-5.5,16.4
						c-0.2,0.3,4,2.1,4.3,1.9c0.3-0.1,4.8-13.8,5.2-14.8c0,0,2.6-8.2,2.7-9.4c0,0,0.1,3.5,0.2,4.5c0.1,1-2.3,19.9-2.2,20.4
						c0.1,0.5,11.1,1.2,15.5,0.7c4.4-0.5,8-1.5,8-1.5s-3.5-14.9-3.4-16.6c0.2-3.6,1.4-10.4,1.4-10.4l3.6,6.8l-4.6,11.9l1.1,3.6
						c0,0,8.6-13,8.9-14.1c0.3-1.2-0.4-2.7-0.9-3.7c-0.5-1-3.4-8.4-4.1-9.4c-0.7-1-1.9-5.2-4.7-6.4c-2.4-1-6.4-1.8-6.4-1.8
						L178.4,222.9z"/>
				</g>
			</g>
			<g>
				<g>
					
						<rect x="153.8" y="250.9" transform="matrix(0.9687 0.2484 -0.2484 0.9687 69.2766 -32.6967)" class="st250" width="20.9" height="14.6"/>
				</g>
			</g>
			<g>
				<g>
					<path class="st251" d="M158.5,264.1c0,0-0.6,0.9-0.8,1.2c-0.2,0.3,0.5,0.4,0.8,0.2C158.9,265.2,158.5,264.1,158.5,264.1z"/>
				</g>
			</g>
			<g>
				<g>
					<path class="st252" d="M162.7,267.3c0,0,0.3-0.4,0.4-0.6c0,0,0.1-0.4,0.2-0.7c0-0.1,0.1-0.2,0.1-0.2c0.1-0.2,0.4-0.7,0.5-1.2
						c0.1-0.6,0.3-3.2,0.3-3.2l-1.6-0.4l-1.3-0.3c0,0-2.7,2.7-2.9,3.2c0,0.1,0,0.1,0,0.2c-0.1,0.5,0.1,0.8,0,1.1c0,0.1,0,1,0.2,1.2
						c0.3,0.2,0.6,0.3,0.8,0.2c0,0,0.6,0.4,1.1,0.4c0,0,0.5,0.4,1.1,0.2C161.8,267.1,162.4,267.5,162.7,267.3z"/>
				</g>
			</g>
			<g>
				<g>
					<path class="st249" d="M168.8,250.9c0,0-3.6,10.9-4.2,12c0,0-2.6-0.6-4.3-1.9l3.9-11.7L168.8,250.9z"/>
				</g>
			</g>
		</g>
		<g>
			<g>
				<path class="st253" d="M492.5,267.9c0,0,13.3-39.1-12.1-51.2c-25.4-12.1-47,5.4-51.1,14.9c-4.1,9.5-3,26.7,0.5,38.7
					c3.5,12,3,30.3-4.6,36.4c-7.6,6.1-16.9,16.3-16.5,36.9c0.3,12.8,50.5-32.8,50.5-32.8L492.5,267.9z"/>
			</g>
			<g>
				<path class="st102" d="M456.8,314.3c0,0-20.9,4.6-29.2,9.5c-8.3,4.8-26.7,27.1-26.7,36.7c0,9.6,80.5,18.5,80.5,18.5l15.3,55.7
					c0,0,40.7-9.9,45.5-18.2c4.8-8.2-15.5-67.3-18.9-79.2c-3.5-12.2-18.1-20.7-35.1-23.1C471.2,311.9,456.8,314.3,456.8,314.3z"/>
			</g>
			<g>
				<path class="st12" d="M486.8,314.1c0,0-0.5,25.4-20.6,26.1c-20.1,0.8-15.9-24.4-15.9-24.4S464.9,310,486.8,314.1z"/>
			</g>
			<g>
				<path class="st253" d="M495.3,237.5c0,0,7.1,40.8-13.2,70.3C461.1,338.4,495.3,237.5,495.3,237.5z"/>
			</g>
			<g>
				<path class="st12" d="M482.4,296.2c0,0-1.4,12.1,0.9,19.7c2.3,7.6-30.8,7.8-30.8,1.6c0-7.1,3.4-12.9,0.2-25
					C449.6,280.3,482.4,296.2,482.4,296.2z"/>
			</g>
			<g>
				<path class="st14" d="M456.7,297.7c0,0,10.5,10.9,23.8,1.1c0,0-1.1,7-10.7,7.9C460.2,307.6,456.7,297.7,456.7,297.7z"/>
			</g>
			<g>
				<path class="st12" d="M469.8,223.4c0,0,26.4,7.8,22.7,44.5c-3.8,36.7-21,34.8-22.7,35.1c-1.6,0.3-22.1,1.6-28.6-42.9
					C434.8,215.5,469.8,223.4,469.8,223.4z"/>
			</g>
			<g>
				<path class="st253" d="M463,239.7c0,0,14.4,22.8,29.5,28.1c0,0,8.3-38.3-25.8-46.4c-34.1-8-28.8,38.7-26.2,51.2
					C440.4,272.7,447.5,254.3,463,239.7z"/>
			</g>
			<g>
				<path class="st254" d="M443.7,236.3c0,0,7.6-14.6,20.3-15.3c12.8-0.7,20.4,10.4,20.4,10.4s-5-12.5-20.3-12.5
					C448.7,218.9,443.7,236.3,443.7,236.3z"/>
			</g>
		</g>
		<g>
			<polygon class="st255" points="495.7,351.4 504.7,434.8 386.7,434.8 377.7,351.4 			"/>
		</g>
		<g>
			<path class="st255" d="M501.8,431.9h-119l-9.1-84.4h119L501.8,431.9z M383.8,430.9h116.9l-8.9-82.3H374.9L383.8,430.9z"/>
		</g>
		<g>
			<path class="st256" d="M448.5,391.7c1.1,5.2-1.4,10.1-5.4,10.9c-4,0.8-8.2-2.7-9.2-7.9c-1.1-5.2,1.4-10.1,5.4-10.9
				C443.3,383,447.5,386.6,448.5,391.7z"/>
		</g>
		<g>
			
				<rect x="493.5" y="426.4" transform="matrix(-1 -1.224647e-16 1.224647e-16 -1 1009.0805 861.1365)" class="st255" width="22" height="8.4"/>
		</g>
		<g>
			<path class="st2" d="M425.1,184.5c-10,0-18.1-8.1-18.1-18.2c0-10,8.1-18.1,18.1-18.1c10,0,18.1,8.1,18.1,18.1
				C443.2,176.4,435.1,184.5,425.1,184.5z M425.1,149.3c-9.4,0-17.1,7.7-17.1,17.1c0,9.4,7.7,17.1,17.1,17.1s17.1-7.7,17.1-17.1
				C442.2,157,434.5,149.3,425.1,149.3z"/>
		</g>
		<g>
			<path class="st257" d="M105,369.1l0-1.5c3.1,0,6.2-0.1,9.2-0.3l0.1,1.5C111.2,369,108.1,369,105,369.1z M95.7,369
				c-3-0.1-6.2-0.2-9.3-0.4l0.1-1.5c3.1,0.2,6.2,0.3,9.2,0.4L95.7,369z M123.5,368.2l-0.1-1.5c3-0.3,6.1-0.6,9.2-1l0.2,1.5
				C129.7,367.6,126.6,367.9,123.5,368.2z M77.2,367.8c-3.2-0.3-6.3-0.7-9.2-1.2l0.2-1.5c2.9,0.5,6,0.9,9.1,1.2L77.2,367.8z
				 M142,365.8l-0.3-1.5c3-0.5,6-1.1,9.1-1.7l0.3,1.5C148,364.8,144.9,365.3,142,365.8z M58.8,364.8c-3.1-0.8-6.1-1.6-8.9-2.6
				l0.5-1.5c2.8,1,5.7,1.8,8.8,2.6L58.8,364.8z M160.1,362.1l-0.4-1.5c2.8-0.7,5.8-1.4,9-2.3l0.4,1.5
				C165.9,360.7,163,361.4,160.1,362.1z M41.3,358.7c-2.9-1.4-5.6-2.9-8.1-4.6l0.9-1.3c2.5,1.6,5.1,3.1,8,4.5L41.3,358.7z
				 M178.1,357.4l-0.4-1.5c1.3-0.4,2.6-0.7,3.8-1.1c1.7-0.5,3.4-1,5.1-1.4l0.4,1.5c-1.7,0.5-3.4,0.9-5.1,1.4
				C180.6,356.7,179.4,357,178.1,357.4z M258.5,356.1c-2.8-1.3-5.7-2.5-8.5-3.5l0.5-1.5c2.8,1,5.7,2.2,8.6,3.6L258.5,356.1z
				 M195.9,352.5l-0.4-1.5c3.3-0.9,6.3-1.5,9-2.1l0.3,1.5C202.1,350.9,199.2,351.6,195.9,352.5z M241.2,350c-3-0.7-6-1.2-9-1.5
				l0.2-1.5c3.1,0.3,6.2,0.8,9.2,1.5L241.2,350z M213.9,348.8l-0.2-1.5c3.2-0.4,6.3-0.6,9.3-0.7l0,1.5
				C220.1,348.2,217.1,348.4,213.9,348.8z M25.7,348.3c-2.3-2.1-4.4-4.5-6.3-7l1.2-0.9c1.8,2.4,3.8,4.7,6.1,6.8L25.7,348.3z
				 M14.6,333.3c-1.4-2.8-2.5-5.7-3.4-8.7l1.5-0.4c0.9,3,2,5.8,3.3,8.5L14.6,333.3z M9.3,315.4c-0.4-3-0.6-6.1-0.6-9.3l1.5,0
				c0,3.1,0.2,6.2,0.6,9.1L9.3,315.4z M10.7,296.9l-1.5-0.2c0.3-3,0.8-6.1,1.4-9.2l1.5,0.3C11.4,290.9,11,293.9,10.7,296.9z
				 M14.2,278.9l-1.5-0.4c1.6-5.4,3-8.7,3-8.9l1.4,0.6C17.2,270.2,15.7,273.6,14.2,278.9z"/>
		</g>
		<g>
			<path class="st257" d="M504.4,91.6c0,0-2.6-2.3-7.2-5.7l0.9-1.2c4.7,3.5,7.3,5.8,7.3,5.8L504.4,91.6z M489.7,80.6
				c-2.5-1.7-5.2-3.4-7.8-4.9l0.8-1.3c2.7,1.6,5.3,3.3,7.9,5L489.7,80.6z M473.9,71.1c-2.7-1.5-5.5-2.9-8.2-4.2l0.7-1.4
				c2.8,1.3,5.6,2.7,8.3,4.2L473.9,71.1z M457.2,63.1c-2.9-1.2-5.7-2.3-8.6-3.3l0.5-1.5c2.9,1,5.8,2.2,8.7,3.4L457.2,63.1z
				 M340,61.2l0-1.5c3-0.1,6.1-0.4,9.1-0.9l0.2,1.5C346.2,60.9,343,61.1,340,61.2z M330.6,60.7c-3-0.4-6.1-1-9.2-1.8l0.4-1.5
				c3,0.8,6,1.4,9,1.8L330.6,60.7z M358.4,58.2l-0.4-1.5c1-0.3,2-0.6,3-0.9c1.9-0.6,3.9-1.3,5.8-1.8l0.4,1.5
				c-1.9,0.5-3.9,1.1-5.8,1.8C360.4,57.6,359.4,57.9,358.4,58.2z M439.9,56.9c-3-0.9-6-1.7-8.9-2.3l0.3-1.5c3,0.7,6,1.5,9,2.4
				L439.9,56.9z M312.6,56c-2.7-1.1-5.5-2.3-8.5-3.7l0.7-1.4c3,1.4,5.7,2.7,8.4,3.7L312.6,56z M376.2,53.3l-0.3-1.5
				c3-0.6,6.1-1.1,9.2-1.5l0.2,1.5C382.2,52.3,379.2,52.7,376.2,53.3z M421.9,52.8c-3-0.5-6.1-0.9-9.1-1.2l0.1-1.5
				c3,0.3,6.2,0.7,9.2,1.2L421.9,52.8z M150.8,51.3l-0.8-1.3c2.6-1.7,5.3-3.4,7.9-4.9l0.8,1.3C156,48,153.4,49.6,150.8,51.3z
				 M394.4,51.1l-0.1-1.5c3.1-0.1,6.2-0.2,9.3-0.1l0,1.5C400.5,50.9,397.5,51,394.4,51.1z M295.8,48c-2.6-1.4-5.2-2.9-8.1-4.5
				l0.8-1.3c2.9,1.6,5.5,3.1,8.1,4.5L295.8,48z M166.6,41.8l-0.7-1.4c2.8-1.5,5.5-3,8.2-4.3l0.7,1.4
				C172.1,38.8,169.3,40.3,166.6,41.8z M279.7,39c-3-1.7-5.7-3.1-8.2-4.3l0.7-1.4c2.5,1.2,5.2,2.7,8.2,4.3L279.7,39z M183.1,33.6
				l-0.6-1.4c2.9-1.3,5.8-2.4,8.6-3.5l0.5,1.4C188.8,31.2,186,32.4,183.1,33.6z M263.2,30.8c-3-1.3-5.8-2.3-8.6-3.2l0.5-1.5
				c2.9,0.9,5.7,2,8.7,3.3L263.2,30.8z M200.4,27.3l-0.4-1.5c3-0.9,6.1-1.6,9-2.2l0.3,1.5C206.4,25.7,203.4,26.5,200.4,27.3z
				 M245.7,25.2c-3-0.7-6-1.2-9-1.5l0.2-1.5c3.1,0.3,6.2,0.8,9.2,1.5L245.7,25.2z M218.4,23.7l-0.2-1.5c3.1-0.3,6.3-0.5,9.3-0.5
				l0,1.5C224.5,23.2,221.4,23.4,218.4,23.7z"/>
		</g>
		<g>
			<g>
				<g>
					<g>
						<polygon class="st258" points="312.2,373 273.4,361.7 285,358.2 						"/>
					</g>
				</g>
			</g>
			<g>
				<g>
					<g>
						<polygon class="st259" points="312.2,373 297.7,358.5 288.8,360.3 						"/>
					</g>
				</g>
			</g>
			<g>
				<g>
					<g>
						<polygon class="st260" points="282.3,364.3 282.6,368.8 312.2,373 						"/>
					</g>
				</g>
			</g>
		</g>
		<g>
			<g>
				<g>
					<g>
						<polygon class="st258" points="117,77 151.2,57.8 139.4,57.1 						"/>
					</g>
				</g>
			</g>
			<g>
				<g>
					<g>
						<polygon class="st259" points="117,77 127.5,60 136.3,59.8 						"/>
					</g>
				</g>
			</g>
			<g>
				<g>
					<g>
						<polygon class="st260" points="143.3,62.2 144,66.5 117,77 						"/>
					</g>
				</g>
			</g>
		</g>
	</g>
</g>
</svg>
